%
M48
M72
T01C0.01378
T02C0.04000
T03C0.10000
%
T01
X65595Y100333
X87795Y62533
X89595Y53533
X82995Y53533
X98595Y70333
X103395Y68533
X106995Y89533
X109995Y99733
X108195Y118333
X108795Y127933
X110595Y138133
X114795Y139933
X100395Y142333
X97995Y186133
X102795Y189133
X106395Y189733
X88395Y185533
T02
X76095Y176933
X79095Y219433
X69095Y219433
X59095Y219433
T03
X42595Y38933
X112595Y38933
X112595Y218933
X42595Y218933
M30
