G75*
%MOIN*%
%OFA0B0*%
%FSLAX25Y25*%
%IPPOS*%
%LPD*%
%AMOC8*
5,1,8,0,0,1.08239X$1,22.5*
%
%ADD10R,0.15000X0.03600*%
%ADD11C,0.07000*%
%ADD12C,0.06600*%
%ADD13C,0.00600*%
%ADD14C,0.02978*%
D10*
X0042595Y0093933D03*
X0042595Y0103933D03*
X0042595Y0113933D03*
X0042595Y0123933D03*
X0042595Y0133933D03*
X0042595Y0143933D03*
X0042595Y0153933D03*
X0042595Y0163933D03*
X0042595Y0173933D03*
X0042595Y0183933D03*
X0042595Y0193933D03*
X0042595Y0203933D03*
X0112595Y0203933D03*
X0112595Y0193933D03*
X0112595Y0183933D03*
X0112595Y0173933D03*
X0112595Y0163933D03*
X0112595Y0153933D03*
X0112595Y0143933D03*
X0112595Y0133933D03*
X0112595Y0123933D03*
X0112595Y0113933D03*
X0112595Y0103933D03*
X0112595Y0093933D03*
X0112595Y0083933D03*
X0112595Y0073933D03*
X0112595Y0063933D03*
X0112595Y0053933D03*
D11*
X0076095Y0176933D03*
D12*
X0079095Y0219433D03*
X0069095Y0219433D03*
X0059095Y0219433D03*
D13*
X0063795Y0220333D02*
X0063795Y0217933D01*
X0049995Y0204133D01*
X0042795Y0204133D01*
X0042595Y0203933D01*
X0042595Y0193933D02*
X0043395Y0193933D01*
X0064995Y0172333D01*
X0078195Y0172333D01*
X0088395Y0182533D01*
X0088395Y0185533D01*
X0090795Y0186733D02*
X0090795Y0151333D01*
X0043395Y0103933D01*
X0042595Y0103933D01*
X0042795Y0094333D02*
X0042595Y0093933D01*
X0042795Y0094333D02*
X0043995Y0094333D01*
X0052395Y0102733D01*
X0066795Y0102733D01*
X0067995Y0101533D01*
X0067995Y0100933D01*
X0098595Y0070333D01*
X0100395Y0068533D01*
X0103395Y0068533D01*
X0100395Y0075133D02*
X0100395Y0142333D01*
X0108795Y0127933D02*
X0112395Y0124333D01*
X0112595Y0123933D01*
X0108195Y0118333D02*
X0112595Y0113933D01*
X0112595Y0103933D02*
X0112395Y0103933D01*
X0109995Y0101533D01*
X0109995Y0099733D01*
X0102795Y0093133D02*
X0105195Y0090733D01*
X0105795Y0090733D01*
X0106995Y0089533D01*
X0112595Y0083933D01*
X0102795Y0093133D02*
X0102795Y0177733D01*
X0083595Y0196933D01*
X0083595Y0220933D01*
X0080595Y0223933D01*
X0077595Y0223933D01*
X0070995Y0217333D01*
X0069095Y0219433D01*
X0069195Y0219133D01*
X0070995Y0217333D01*
X0075795Y0212533D01*
X0075795Y0177133D01*
X0076095Y0176933D01*
X0090795Y0186733D02*
X0079395Y0198133D01*
X0079395Y0219133D01*
X0079095Y0219433D01*
X0081195Y0225133D02*
X0068595Y0225133D01*
X0063795Y0220333D01*
X0081195Y0225133D02*
X0084795Y0221533D01*
X0084795Y0210733D01*
X0104595Y0190933D01*
X0105195Y0190933D01*
X0106395Y0189733D01*
X0102795Y0189133D02*
X0100995Y0189133D01*
X0097995Y0186133D01*
X0112595Y0143933D02*
X0114795Y0141733D01*
X0114795Y0139933D01*
X0110595Y0135733D02*
X0112395Y0133933D01*
X0112595Y0133933D01*
X0110595Y0135733D02*
X0110595Y0138133D01*
X0065595Y0100333D02*
X0087795Y0078133D01*
X0087795Y0062533D01*
X0089595Y0053533D02*
X0082995Y0053533D01*
X0100395Y0075133D02*
X0111195Y0064333D01*
X0112395Y0064333D01*
X0112595Y0063933D01*
D14*
X0103395Y0068533D03*
X0098595Y0070333D03*
X0089595Y0053533D03*
X0087795Y0062533D03*
X0082995Y0053533D03*
X0106995Y0089533D03*
X0109995Y0099733D03*
X0108195Y0118333D03*
X0108795Y0127933D03*
X0110595Y0138133D03*
X0114795Y0139933D03*
X0100395Y0142333D03*
X0097995Y0186133D03*
X0102795Y0189133D03*
X0106395Y0189733D03*
X0088395Y0185533D03*
X0065595Y0100333D03*
M02*
