G75*
%MOIN*%
%OFA0B0*%
%FSLAX25Y25*%
%IPPOS*%
%LPD*%
%AMOC8*
5,1,8,0,0,1.08239X$1,22.5*
%
%ADD10C,0.00600*%
%ADD11C,0.00000*%
%ADD12C,0.00512*%
%ADD13C,0.00300*%
%ADD14C,0.01200*%
%ADD15C,0.01500*%
%ADD16C,0.00500*%
%ADD17C,0.00200*%
%ADD18R,0.02000X0.00500*%
%ADD19C,0.00100*%
%ADD20C,0.00800*%
%ADD21C,0.02200*%
%ADD22R,0.03000X0.01800*%
%ADD23R,0.01800X0.03000*%
%ADD24C,0.00984*%
%ADD25R,0.02660X0.00083*%
%ADD26R,0.03660X0.00083*%
%ADD27R,0.04500X0.00084*%
%ADD28R,0.05160X0.00083*%
%ADD29R,0.05840X0.00083*%
%ADD30R,0.06250X0.00084*%
%ADD31R,0.06500X0.00083*%
%ADD32R,0.06750X0.00083*%
%ADD33R,0.06910X0.00084*%
%ADD34R,0.07160X0.00083*%
%ADD35R,0.07330X0.00083*%
%ADD36R,0.07420X0.00084*%
%ADD37R,0.07580X0.00083*%
%ADD38R,0.07750X0.00083*%
%ADD39R,0.07920X0.00084*%
%ADD40R,0.00170X0.00083*%
%ADD41R,0.07920X0.00083*%
%ADD42R,0.00340X0.00083*%
%ADD43R,0.08090X0.00083*%
%ADD44R,0.00500X0.00084*%
%ADD45R,0.08250X0.00084*%
%ADD46R,0.00590X0.00083*%
%ADD47R,0.08330X0.00083*%
%ADD48R,0.00830X0.00083*%
%ADD49R,0.08500X0.00083*%
%ADD50R,0.00920X0.00084*%
%ADD51R,0.08490X0.00084*%
%ADD52R,0.01080X0.00083*%
%ADD53R,0.08660X0.00083*%
%ADD54R,0.01170X0.00083*%
%ADD55R,0.08750X0.00083*%
%ADD56R,0.01420X0.00084*%
%ADD57R,0.08830X0.00084*%
%ADD58R,0.01500X0.00083*%
%ADD59R,0.02160X0.00083*%
%ADD60R,0.05340X0.00083*%
%ADD61R,0.01580X0.00083*%
%ADD62R,0.02080X0.00083*%
%ADD63R,0.04830X0.00083*%
%ADD64R,0.01660X0.00084*%
%ADD65R,0.02080X0.00084*%
%ADD66R,0.01830X0.00083*%
%ADD67R,0.04330X0.00083*%
%ADD68R,0.02000X0.00083*%
%ADD69R,0.02170X0.00083*%
%ADD70R,0.04160X0.00083*%
%ADD71R,0.02090X0.00084*%
%ADD72R,0.04000X0.00084*%
%ADD73R,0.02090X0.00083*%
%ADD74R,0.03920X0.00083*%
%ADD75R,0.02260X0.00083*%
%ADD76R,0.03750X0.00083*%
%ADD77R,0.02340X0.00084*%
%ADD78R,0.03670X0.00084*%
%ADD79R,0.02500X0.00083*%
%ADD80R,0.02170X0.00083*%
%ADD81R,0.03580X0.00083*%
%ADD82R,0.02580X0.00083*%
%ADD83R,0.02080X0.00083*%
%ADD84R,0.03500X0.00083*%
%ADD85R,0.02670X0.00084*%
%ADD86R,0.02080X0.00084*%
%ADD87R,0.03420X0.00084*%
%ADD88R,0.02750X0.00083*%
%ADD89R,0.03330X0.00083*%
%ADD90R,0.02910X0.00083*%
%ADD91R,0.03250X0.00083*%
%ADD92R,0.03000X0.00084*%
%ADD93R,0.03250X0.00084*%
%ADD94R,0.03080X0.00083*%
%ADD95R,0.03170X0.00083*%
%ADD96R,0.03160X0.00083*%
%ADD97R,0.03090X0.00084*%
%ADD98R,0.03420X0.00083*%
%ADD99R,0.03080X0.00083*%
%ADD100R,0.02920X0.00083*%
%ADD101R,0.03500X0.00084*%
%ADD102R,0.02910X0.00084*%
%ADD103R,0.03590X0.00083*%
%ADD104R,0.02920X0.00083*%
%ADD105R,0.03830X0.00084*%
%ADD106R,0.02750X0.00084*%
%ADD107R,0.03830X0.00083*%
%ADD108R,0.02760X0.00083*%
%ADD109R,0.04080X0.00083*%
%ADD110R,0.02670X0.00083*%
%ADD111R,0.02670X0.00083*%
%ADD112R,0.04250X0.00084*%
%ADD113R,0.02670X0.00084*%
%ADD114R,0.04250X0.00083*%
%ADD115R,0.02590X0.00083*%
%ADD116R,0.04330X0.00083*%
%ADD117R,0.02170X0.00084*%
%ADD118R,0.02580X0.00084*%
%ADD119R,0.04500X0.00083*%
%ADD120R,0.04590X0.00083*%
%ADD121R,0.04590X0.00084*%
%ADD122R,0.02490X0.00084*%
%ADD123R,0.04750X0.00083*%
%ADD124R,0.04830X0.00084*%
%ADD125R,0.02410X0.00084*%
%ADD126R,0.04920X0.00083*%
%ADD127R,0.02420X0.00083*%
%ADD128R,0.05080X0.00084*%
%ADD129R,0.02160X0.00084*%
%ADD130R,0.02420X0.00084*%
%ADD131R,0.05080X0.00083*%
%ADD132R,0.02330X0.00083*%
%ADD133R,0.02410X0.00083*%
%ADD134R,0.05160X0.00084*%
%ADD135R,0.02330X0.00084*%
%ADD136R,0.02340X0.00083*%
%ADD137R,0.05420X0.00084*%
%ADD138R,0.02330X0.00084*%
%ADD139R,0.05420X0.00083*%
%ADD140R,0.02250X0.00083*%
%ADD141R,0.05580X0.00084*%
%ADD142R,0.02170X0.00084*%
%ADD143R,0.05580X0.00083*%
%ADD144R,0.05670X0.00083*%
%ADD145R,0.05670X0.00084*%
%ADD146R,0.02250X0.00084*%
%ADD147R,0.05750X0.00083*%
%ADD148R,0.05830X0.00083*%
%ADD149R,0.05830X0.00084*%
%ADD150R,0.05910X0.00083*%
%ADD151R,0.06000X0.00084*%
%ADD152R,0.06000X0.00083*%
%ADD153R,0.06090X0.00083*%
%ADD154R,0.06090X0.00084*%
%ADD155R,0.06170X0.00083*%
%ADD156R,0.06250X0.00083*%
%ADD157R,0.06330X0.00084*%
%ADD158R,0.06410X0.00083*%
%ADD159R,0.06170X0.00084*%
%ADD160R,0.05920X0.00083*%
%ADD161R,0.05830X0.00083*%
%ADD162R,0.05750X0.00084*%
%ADD163R,0.05660X0.00083*%
%ADD164R,0.05090X0.00083*%
%ADD165R,0.04420X0.00084*%
%ADD166R,0.02000X0.00084*%
%ADD167R,0.04090X0.00083*%
%ADD168R,0.02830X0.00083*%
%ADD169R,0.02500X0.00084*%
%ADD170R,0.01830X0.00083*%
%ADD171R,0.01500X0.00084*%
%ADD172R,0.00250X0.00083*%
%ADD173R,0.00080X0.00083*%
%ADD174R,0.00170X0.00084*%
%ADD175R,0.00330X0.00083*%
%ADD176R,0.00420X0.00084*%
%ADD177R,0.00500X0.00083*%
%ADD178R,0.00580X0.00083*%
%ADD179R,0.00670X0.00084*%
%ADD180R,0.00670X0.00084*%
%ADD181R,0.00750X0.00083*%
%ADD182R,0.00920X0.00083*%
%ADD183R,0.00830X0.00083*%
%ADD184R,0.01250X0.00083*%
%ADD185R,0.00920X0.00084*%
%ADD186R,0.01000X0.00083*%
%ADD187R,0.01750X0.00083*%
%ADD188R,0.01090X0.00084*%
%ADD189R,0.02840X0.00083*%
%ADD190R,0.01340X0.00084*%
%ADD191R,0.01420X0.00083*%
%ADD192R,0.01410X0.00083*%
%ADD193R,0.01580X0.00083*%
%ADD194R,0.01660X0.00083*%
%ADD195R,0.01750X0.00084*%
%ADD196R,0.03000X0.00083*%
%ADD197R,0.01920X0.00084*%
%ADD198R,0.02580X0.00083*%
%ADD199R,0.02580X0.00084*%
%ADD200R,0.02490X0.00083*%
%ADD201R,0.02420X0.00084*%
%ADD202R,0.01910X0.00083*%
%ADD203R,0.02330X0.00083*%
%ADD204R,0.02830X0.00083*%
%ADD205R,0.01670X0.00083*%
%ADD206R,0.02920X0.00084*%
%ADD207R,0.01590X0.00084*%
%ADD208R,0.01420X0.00083*%
%ADD209R,0.03080X0.00084*%
%ADD210R,0.01420X0.00084*%
%ADD211R,0.01330X0.00083*%
%ADD212R,0.03170X0.00084*%
%ADD213R,0.01170X0.00084*%
%ADD214R,0.02420X0.00083*%
%ADD215R,0.01080X0.00083*%
%ADD216R,0.03340X0.00084*%
%ADD217R,0.01000X0.00084*%
%ADD218R,0.00910X0.00083*%
%ADD219R,0.03410X0.00083*%
%ADD220R,0.00840X0.00084*%
%ADD221R,0.03420X0.00083*%
%ADD222R,0.00670X0.00083*%
%ADD223R,0.03580X0.00084*%
%ADD224R,0.00590X0.00084*%
%ADD225R,0.00510X0.00083*%
%ADD226R,0.03670X0.00083*%
%ADD227R,0.03670X0.00084*%
%ADD228R,0.00420X0.00084*%
%ADD229R,0.02590X0.00084*%
%ADD230R,0.00330X0.00083*%
%ADD231R,0.03750X0.00084*%
%ADD232R,0.00250X0.00084*%
%ADD233R,0.03830X0.00083*%
%ADD234R,0.00160X0.00083*%
%ADD235R,0.03840X0.00083*%
%ADD236R,0.03910X0.00083*%
%ADD237R,0.03920X0.00083*%
%ADD238R,0.03920X0.00084*%
%ADD239R,0.04000X0.00083*%
%ADD240R,0.03090X0.00083*%
%ADD241R,0.03170X0.00084*%
%ADD242R,0.03170X0.00083*%
%ADD243R,0.03330X0.00084*%
%ADD244R,0.03340X0.00083*%
%ADD245R,0.04010X0.00083*%
%ADD246R,0.05830X0.00084*%
%ADD247R,0.05500X0.00084*%
%ADD248R,0.05410X0.00083*%
%ADD249R,0.05170X0.00083*%
%ADD250R,0.04910X0.00083*%
%ADD251R,0.04830X0.00083*%
%ADD252R,0.04580X0.00084*%
%ADD253R,0.04340X0.00083*%
%ADD254R,0.04170X0.00084*%
%ADD255R,0.03660X0.00084*%
%ADD256R,0.03160X0.00084*%
%ADD257R,0.01840X0.00083*%
%ADD258R,0.01920X0.00083*%
%ADD259R,0.01590X0.00083*%
%ADD260R,0.00840X0.00083*%
%ADD261R,0.01080X0.00084*%
%ADD262R,0.00670X0.00167*%
%ADD263R,0.01340X0.00167*%
%ADD264R,0.02000X0.00166*%
%ADD265R,0.02660X0.00167*%
%ADD266R,0.00660X0.00167*%
%ADD267R,0.03160X0.00167*%
%ADD268R,0.01330X0.00167*%
%ADD269R,0.03830X0.00166*%
%ADD270R,0.02330X0.00166*%
%ADD271R,0.04170X0.00167*%
%ADD272R,0.03170X0.00167*%
%ADD273R,0.03840X0.00167*%
%ADD274R,0.04170X0.00166*%
%ADD275R,0.04500X0.00166*%
%ADD276R,0.04340X0.00167*%
%ADD277R,0.04500X0.00167*%
%ADD278R,0.04340X0.00166*%
%ADD279R,0.04670X0.00166*%
%ADD280R,0.04830X0.00167*%
%ADD281R,0.04660X0.00167*%
%ADD282R,0.04830X0.00166*%
%ADD283R,0.04670X0.00167*%
%ADD284R,0.04840X0.00167*%
%ADD285R,0.04840X0.00166*%
%ADD286R,0.04000X0.00167*%
%ADD287R,0.03330X0.00167*%
%ADD288R,0.05000X0.00167*%
%ADD289R,0.03500X0.00166*%
%ADD290R,0.03500X0.00167*%
%ADD291R,0.05000X0.00166*%
%ADD292R,0.01000X0.00167*%
%ADD293R,0.03340X0.00167*%
%ADD294R,0.00500X0.00167*%
%ADD295R,0.03340X0.00166*%
%ADD296R,0.03670X0.00167*%
%ADD297R,0.03660X0.00166*%
%ADD298R,0.03330X0.00166*%
%ADD299R,0.03670X0.00166*%
%ADD300R,0.03160X0.00166*%
%ADD301R,0.03660X0.00167*%
%ADD302R,0.03170X0.00166*%
%ADD303R,0.03000X0.00166*%
%ADD304R,0.03830X0.00167*%
%ADD305R,0.03840X0.00166*%
%ADD306R,0.07000X0.00166*%
%ADD307R,0.06670X0.00167*%
%ADD308R,0.06500X0.00166*%
%ADD309R,0.06340X0.00167*%
%ADD310R,0.06000X0.00166*%
%ADD311R,0.06000X0.00167*%
%ADD312R,0.05830X0.00167*%
%ADD313R,0.05670X0.00166*%
%ADD314R,0.05670X0.00167*%
%ADD315R,0.05330X0.00167*%
%ADD316R,0.05330X0.00166*%
%ADD317R,0.05160X0.00167*%
%ADD318R,0.01500X0.00166*%
%ADD319R,0.02170X0.00167*%
%ADD320R,0.02670X0.00167*%
%ADD321R,0.04000X0.00166*%
%ADD322R,0.00500X0.00166*%
%ADD323R,0.01170X0.00167*%
%ADD324R,0.01660X0.00167*%
%ADD325R,0.02500X0.00166*%
%ADD326R,0.02840X0.00167*%
%ADD327R,0.03000X0.00167*%
%ADD328R,0.06330X0.00167*%
%ADD329R,0.06170X0.00166*%
%ADD330R,0.06170X0.00167*%
%ADD331R,0.09500X0.00167*%
%ADD332R,0.09500X0.00166*%
%ADD333R,0.09160X0.00167*%
%ADD334R,0.09000X0.00167*%
%ADD335R,0.08670X0.00166*%
%ADD336R,0.08500X0.00167*%
%ADD337R,0.08330X0.00167*%
%ADD338R,0.08000X0.00166*%
%ADD339R,0.07830X0.00167*%
%ADD340R,0.07500X0.00167*%
%ADD341R,0.07500X0.00166*%
%ADD342R,0.07170X0.00167*%
%ADD343R,0.07000X0.00167*%
%ADD344R,0.06660X0.00166*%
%ADD345R,0.06500X0.00167*%
%ADD346R,0.05500X0.00166*%
%ADD347R,0.05170X0.00167*%
%ADD348R,0.04330X0.00167*%
%ADD349R,0.04160X0.00166*%
%ADD350R,0.02830X0.00166*%
%ADD351R,0.07170X0.00166*%
%ADD352R,0.08170X0.00167*%
%ADD353R,0.08500X0.00166*%
%ADD354R,0.09170X0.00167*%
%ADD355R,0.09830X0.00166*%
%ADD356R,0.10170X0.00167*%
%ADD357R,0.10500X0.00167*%
%ADD358R,0.10830X0.00166*%
%ADD359R,0.11170X0.00167*%
%ADD360R,0.11500X0.00167*%
%ADD361R,0.11500X0.00166*%
%ADD362R,0.11830X0.00167*%
%ADD363R,0.04160X0.00167*%
%ADD364R,0.00830X0.00166*%
%ADD365R,0.00340X0.00167*%
%ADD366R,0.02160X0.00166*%
%ADD367R,0.04330X0.00166*%
%ADD368R,0.00340X0.00166*%
%ADD369R,0.11830X0.00166*%
%ADD370R,0.00840X0.00167*%
%ADD371R,0.01830X0.00166*%
%ADD372R,0.11170X0.00166*%
%ADD373R,0.02160X0.00167*%
%ADD374R,0.10830X0.00167*%
%ADD375R,0.10170X0.00166*%
%ADD376R,0.09830X0.00167*%
%ADD377R,0.09170X0.00166*%
%ADD378R,0.07830X0.00166*%
%ADD379R,0.05830X0.00166*%
%ADD380R,0.02000X0.00167*%
%ADD381R,0.01500X0.00167*%
%ADD382R,0.01000X0.00166*%
%ADD383R,0.00830X0.00167*%
%ADD384R,0.00330X0.00167*%
%ADD385R,0.02500X0.00167*%
%ADD386R,0.02830X0.00167*%
%ADD387R,0.00670X0.00166*%
%ADD388R,0.01670X0.00167*%
%ADD389R,0.00170X0.00167*%
%ADD390R,0.02670X0.00166*%
D10*
X0032595Y0038933D02*
X0032595Y0218933D01*
X0032598Y0219175D01*
X0032607Y0219416D01*
X0032621Y0219657D01*
X0032642Y0219898D01*
X0032668Y0220138D01*
X0032700Y0220378D01*
X0032738Y0220617D01*
X0032781Y0220854D01*
X0032831Y0221091D01*
X0032886Y0221326D01*
X0032946Y0221560D01*
X0033013Y0221792D01*
X0033084Y0222023D01*
X0033162Y0222252D01*
X0033245Y0222479D01*
X0033333Y0222704D01*
X0033427Y0222927D01*
X0033526Y0223147D01*
X0033631Y0223365D01*
X0033740Y0223580D01*
X0033855Y0223793D01*
X0033975Y0224003D01*
X0034100Y0224209D01*
X0034230Y0224413D01*
X0034365Y0224614D01*
X0034505Y0224811D01*
X0034649Y0225005D01*
X0034798Y0225195D01*
X0034952Y0225381D01*
X0035110Y0225564D01*
X0035272Y0225743D01*
X0035439Y0225918D01*
X0035610Y0226089D01*
X0035785Y0226256D01*
X0035964Y0226418D01*
X0036147Y0226576D01*
X0036333Y0226730D01*
X0036523Y0226879D01*
X0036717Y0227023D01*
X0036914Y0227163D01*
X0037115Y0227298D01*
X0037319Y0227428D01*
X0037525Y0227553D01*
X0037735Y0227673D01*
X0037948Y0227788D01*
X0038163Y0227897D01*
X0038381Y0228002D01*
X0038601Y0228101D01*
X0038824Y0228195D01*
X0039049Y0228283D01*
X0039276Y0228366D01*
X0039505Y0228444D01*
X0039736Y0228515D01*
X0039968Y0228582D01*
X0040202Y0228642D01*
X0040437Y0228697D01*
X0040674Y0228747D01*
X0040911Y0228790D01*
X0041150Y0228828D01*
X0041390Y0228860D01*
X0041630Y0228886D01*
X0041871Y0228907D01*
X0042112Y0228921D01*
X0042353Y0228930D01*
X0042595Y0228933D01*
X0112595Y0228933D01*
X0112837Y0228930D01*
X0113078Y0228921D01*
X0113319Y0228907D01*
X0113560Y0228886D01*
X0113800Y0228860D01*
X0114040Y0228828D01*
X0114279Y0228790D01*
X0114516Y0228747D01*
X0114753Y0228697D01*
X0114988Y0228642D01*
X0115222Y0228582D01*
X0115454Y0228515D01*
X0115685Y0228444D01*
X0115914Y0228366D01*
X0116141Y0228283D01*
X0116366Y0228195D01*
X0116589Y0228101D01*
X0116809Y0228002D01*
X0117027Y0227897D01*
X0117242Y0227788D01*
X0117455Y0227673D01*
X0117665Y0227553D01*
X0117871Y0227428D01*
X0118075Y0227298D01*
X0118276Y0227163D01*
X0118473Y0227023D01*
X0118667Y0226879D01*
X0118857Y0226730D01*
X0119043Y0226576D01*
X0119226Y0226418D01*
X0119405Y0226256D01*
X0119580Y0226089D01*
X0119751Y0225918D01*
X0119918Y0225743D01*
X0120080Y0225564D01*
X0120238Y0225381D01*
X0120392Y0225195D01*
X0120541Y0225005D01*
X0120685Y0224811D01*
X0120825Y0224614D01*
X0120960Y0224413D01*
X0121090Y0224209D01*
X0121215Y0224003D01*
X0121335Y0223793D01*
X0121450Y0223580D01*
X0121559Y0223365D01*
X0121664Y0223147D01*
X0121763Y0222927D01*
X0121857Y0222704D01*
X0121945Y0222479D01*
X0122028Y0222252D01*
X0122106Y0222023D01*
X0122177Y0221792D01*
X0122244Y0221560D01*
X0122304Y0221326D01*
X0122359Y0221091D01*
X0122409Y0220854D01*
X0122452Y0220617D01*
X0122490Y0220378D01*
X0122522Y0220138D01*
X0122548Y0219898D01*
X0122569Y0219657D01*
X0122583Y0219416D01*
X0122592Y0219175D01*
X0122595Y0218933D01*
X0122595Y0038933D01*
X0122592Y0038691D01*
X0122583Y0038450D01*
X0122569Y0038209D01*
X0122548Y0037968D01*
X0122522Y0037728D01*
X0122490Y0037488D01*
X0122452Y0037249D01*
X0122409Y0037012D01*
X0122359Y0036775D01*
X0122304Y0036540D01*
X0122244Y0036306D01*
X0122177Y0036074D01*
X0122106Y0035843D01*
X0122028Y0035614D01*
X0121945Y0035387D01*
X0121857Y0035162D01*
X0121763Y0034939D01*
X0121664Y0034719D01*
X0121559Y0034501D01*
X0121450Y0034286D01*
X0121335Y0034073D01*
X0121215Y0033863D01*
X0121090Y0033657D01*
X0120960Y0033453D01*
X0120825Y0033252D01*
X0120685Y0033055D01*
X0120541Y0032861D01*
X0120392Y0032671D01*
X0120238Y0032485D01*
X0120080Y0032302D01*
X0119918Y0032123D01*
X0119751Y0031948D01*
X0119580Y0031777D01*
X0119405Y0031610D01*
X0119226Y0031448D01*
X0119043Y0031290D01*
X0118857Y0031136D01*
X0118667Y0030987D01*
X0118473Y0030843D01*
X0118276Y0030703D01*
X0118075Y0030568D01*
X0117871Y0030438D01*
X0117665Y0030313D01*
X0117455Y0030193D01*
X0117242Y0030078D01*
X0117027Y0029969D01*
X0116809Y0029864D01*
X0116589Y0029765D01*
X0116366Y0029671D01*
X0116141Y0029583D01*
X0115914Y0029500D01*
X0115685Y0029422D01*
X0115454Y0029351D01*
X0115222Y0029284D01*
X0114988Y0029224D01*
X0114753Y0029169D01*
X0114516Y0029119D01*
X0114279Y0029076D01*
X0114040Y0029038D01*
X0113800Y0029006D01*
X0113560Y0028980D01*
X0113319Y0028959D01*
X0113078Y0028945D01*
X0112837Y0028936D01*
X0112595Y0028933D01*
X0042595Y0028933D01*
X0042353Y0028936D01*
X0042112Y0028945D01*
X0041871Y0028959D01*
X0041630Y0028980D01*
X0041390Y0029006D01*
X0041150Y0029038D01*
X0040911Y0029076D01*
X0040674Y0029119D01*
X0040437Y0029169D01*
X0040202Y0029224D01*
X0039968Y0029284D01*
X0039736Y0029351D01*
X0039505Y0029422D01*
X0039276Y0029500D01*
X0039049Y0029583D01*
X0038824Y0029671D01*
X0038601Y0029765D01*
X0038381Y0029864D01*
X0038163Y0029969D01*
X0037948Y0030078D01*
X0037735Y0030193D01*
X0037525Y0030313D01*
X0037319Y0030438D01*
X0037115Y0030568D01*
X0036914Y0030703D01*
X0036717Y0030843D01*
X0036523Y0030987D01*
X0036333Y0031136D01*
X0036147Y0031290D01*
X0035964Y0031448D01*
X0035785Y0031610D01*
X0035610Y0031777D01*
X0035439Y0031948D01*
X0035272Y0032123D01*
X0035110Y0032302D01*
X0034952Y0032485D01*
X0034798Y0032671D01*
X0034649Y0032861D01*
X0034505Y0033055D01*
X0034365Y0033252D01*
X0034230Y0033453D01*
X0034100Y0033657D01*
X0033975Y0033863D01*
X0033855Y0034073D01*
X0033740Y0034286D01*
X0033631Y0034501D01*
X0033526Y0034719D01*
X0033427Y0034939D01*
X0033333Y0035162D01*
X0033245Y0035387D01*
X0033162Y0035614D01*
X0033084Y0035843D01*
X0033013Y0036074D01*
X0032946Y0036306D01*
X0032886Y0036540D01*
X0032831Y0036775D01*
X0032781Y0037012D01*
X0032738Y0037249D01*
X0032700Y0037488D01*
X0032668Y0037728D01*
X0032642Y0037968D01*
X0032621Y0038209D01*
X0032607Y0038450D01*
X0032598Y0038691D01*
X0032595Y0038933D01*
X0068143Y0016833D02*
X0068143Y0012562D01*
X0072414Y0016833D01*
X0072414Y0012562D01*
X0071346Y0011495D01*
X0069211Y0011495D01*
X0068143Y0012562D01*
X0068143Y0016833D02*
X0069211Y0017900D01*
X0071346Y0017900D01*
X0072414Y0016833D01*
X0074589Y0012562D02*
X0075657Y0012562D01*
X0075657Y0011495D01*
X0074589Y0011495D01*
X0074589Y0012562D01*
X0077812Y0012562D02*
X0078879Y0011495D01*
X0081014Y0011495D01*
X0082082Y0012562D01*
X0082082Y0016833D01*
X0081014Y0017900D01*
X0078879Y0017900D01*
X0077812Y0016833D01*
X0077812Y0015765D01*
X0078879Y0014698D01*
X0082082Y0014698D01*
X0084257Y0016833D02*
X0084257Y0012562D01*
X0088528Y0016833D01*
X0088528Y0012562D01*
X0087460Y0011495D01*
X0085325Y0011495D01*
X0084257Y0012562D01*
X0084257Y0016833D02*
X0085325Y0017900D01*
X0087460Y0017900D01*
X0088528Y0016833D01*
X0084776Y0039371D02*
X0082414Y0039371D01*
X0082414Y0044095D02*
X0084776Y0044095D01*
X0088995Y0063433D02*
X0078995Y0063433D01*
X0078935Y0063435D01*
X0078874Y0063440D01*
X0078815Y0063449D01*
X0078756Y0063462D01*
X0078697Y0063478D01*
X0078640Y0063498D01*
X0078585Y0063521D01*
X0078530Y0063548D01*
X0078478Y0063577D01*
X0078427Y0063610D01*
X0078378Y0063646D01*
X0078332Y0063684D01*
X0078288Y0063726D01*
X0078246Y0063770D01*
X0078208Y0063816D01*
X0078172Y0063865D01*
X0078139Y0063916D01*
X0078110Y0063968D01*
X0078083Y0064023D01*
X0078060Y0064078D01*
X0078040Y0064135D01*
X0078024Y0064194D01*
X0078011Y0064253D01*
X0078002Y0064312D01*
X0077997Y0064373D01*
X0077995Y0064433D01*
X0077995Y0070433D01*
X0077997Y0070493D01*
X0078002Y0070554D01*
X0078011Y0070613D01*
X0078024Y0070672D01*
X0078040Y0070731D01*
X0078060Y0070788D01*
X0078083Y0070843D01*
X0078110Y0070898D01*
X0078139Y0070950D01*
X0078172Y0071001D01*
X0078208Y0071050D01*
X0078246Y0071096D01*
X0078288Y0071140D01*
X0078332Y0071182D01*
X0078378Y0071220D01*
X0078427Y0071256D01*
X0078478Y0071289D01*
X0078530Y0071318D01*
X0078585Y0071345D01*
X0078640Y0071368D01*
X0078697Y0071388D01*
X0078756Y0071404D01*
X0078815Y0071417D01*
X0078874Y0071426D01*
X0078935Y0071431D01*
X0078995Y0071433D01*
X0088995Y0071433D01*
X0089055Y0071431D01*
X0089116Y0071426D01*
X0089175Y0071417D01*
X0089234Y0071404D01*
X0089293Y0071388D01*
X0089350Y0071368D01*
X0089405Y0071345D01*
X0089460Y0071318D01*
X0089512Y0071289D01*
X0089563Y0071256D01*
X0089612Y0071220D01*
X0089658Y0071182D01*
X0089702Y0071140D01*
X0089744Y0071096D01*
X0089782Y0071050D01*
X0089818Y0071001D01*
X0089851Y0070950D01*
X0089880Y0070898D01*
X0089907Y0070843D01*
X0089930Y0070788D01*
X0089950Y0070731D01*
X0089966Y0070672D01*
X0089979Y0070613D01*
X0089988Y0070554D01*
X0089993Y0070493D01*
X0089995Y0070433D01*
X0089995Y0064433D01*
X0089993Y0064373D01*
X0089988Y0064312D01*
X0089979Y0064253D01*
X0089966Y0064194D01*
X0089950Y0064135D01*
X0089930Y0064078D01*
X0089907Y0064023D01*
X0089880Y0063968D01*
X0089851Y0063916D01*
X0089818Y0063865D01*
X0089782Y0063816D01*
X0089744Y0063770D01*
X0089702Y0063726D01*
X0089658Y0063684D01*
X0089612Y0063646D01*
X0089563Y0063610D01*
X0089512Y0063577D01*
X0089460Y0063548D01*
X0089405Y0063521D01*
X0089350Y0063498D01*
X0089293Y0063478D01*
X0089234Y0063462D01*
X0089175Y0063449D01*
X0089116Y0063440D01*
X0089055Y0063435D01*
X0088995Y0063433D01*
X0116595Y0114233D02*
X0058595Y0114233D01*
X0058519Y0114235D01*
X0058443Y0114241D01*
X0058368Y0114250D01*
X0058293Y0114264D01*
X0058219Y0114281D01*
X0058146Y0114302D01*
X0058074Y0114326D01*
X0058003Y0114355D01*
X0057934Y0114386D01*
X0057867Y0114421D01*
X0057802Y0114460D01*
X0057738Y0114502D01*
X0057677Y0114547D01*
X0057618Y0114595D01*
X0057562Y0114646D01*
X0057508Y0114700D01*
X0057457Y0114756D01*
X0057409Y0114815D01*
X0057364Y0114876D01*
X0057322Y0114940D01*
X0057283Y0115005D01*
X0057248Y0115072D01*
X0057217Y0115141D01*
X0057188Y0115212D01*
X0057164Y0115284D01*
X0057143Y0115357D01*
X0057126Y0115431D01*
X0057112Y0115506D01*
X0057103Y0115581D01*
X0057097Y0115657D01*
X0057095Y0115733D01*
X0057095Y0123933D01*
X0057095Y0133933D01*
X0057095Y0142133D01*
X0057097Y0142209D01*
X0057103Y0142285D01*
X0057112Y0142360D01*
X0057126Y0142435D01*
X0057143Y0142509D01*
X0057164Y0142582D01*
X0057188Y0142654D01*
X0057217Y0142725D01*
X0057248Y0142794D01*
X0057283Y0142861D01*
X0057322Y0142926D01*
X0057364Y0142990D01*
X0057409Y0143051D01*
X0057457Y0143110D01*
X0057508Y0143166D01*
X0057562Y0143220D01*
X0057618Y0143271D01*
X0057677Y0143319D01*
X0057738Y0143364D01*
X0057802Y0143406D01*
X0057867Y0143445D01*
X0057934Y0143480D01*
X0058003Y0143511D01*
X0058074Y0143540D01*
X0058146Y0143564D01*
X0058219Y0143585D01*
X0058293Y0143602D01*
X0058368Y0143616D01*
X0058443Y0143625D01*
X0058519Y0143631D01*
X0058595Y0143633D01*
X0116595Y0143633D01*
X0116671Y0143631D01*
X0116747Y0143625D01*
X0116822Y0143616D01*
X0116897Y0143602D01*
X0116971Y0143585D01*
X0117044Y0143564D01*
X0117116Y0143540D01*
X0117187Y0143511D01*
X0117256Y0143480D01*
X0117323Y0143445D01*
X0117388Y0143406D01*
X0117452Y0143364D01*
X0117513Y0143319D01*
X0117572Y0143271D01*
X0117628Y0143220D01*
X0117682Y0143166D01*
X0117733Y0143110D01*
X0117781Y0143051D01*
X0117826Y0142990D01*
X0117868Y0142926D01*
X0117907Y0142861D01*
X0117942Y0142794D01*
X0117973Y0142725D01*
X0118002Y0142654D01*
X0118026Y0142582D01*
X0118047Y0142509D01*
X0118064Y0142435D01*
X0118078Y0142360D01*
X0118087Y0142285D01*
X0118093Y0142209D01*
X0118095Y0142133D01*
X0118095Y0115733D01*
X0118093Y0115657D01*
X0118087Y0115581D01*
X0118078Y0115506D01*
X0118064Y0115431D01*
X0118047Y0115357D01*
X0118026Y0115284D01*
X0118002Y0115212D01*
X0117973Y0115141D01*
X0117942Y0115072D01*
X0117907Y0115005D01*
X0117868Y0114940D01*
X0117826Y0114876D01*
X0117781Y0114815D01*
X0117733Y0114756D01*
X0117682Y0114700D01*
X0117628Y0114646D01*
X0117572Y0114595D01*
X0117513Y0114547D01*
X0117452Y0114502D01*
X0117388Y0114460D01*
X0117323Y0114421D01*
X0117256Y0114386D01*
X0117187Y0114355D01*
X0117116Y0114326D01*
X0117044Y0114302D01*
X0116971Y0114281D01*
X0116897Y0114264D01*
X0116822Y0114250D01*
X0116747Y0114241D01*
X0116671Y0114235D01*
X0116595Y0114233D01*
X0117199Y0165533D02*
X0118933Y0165533D01*
X0118066Y0165533D02*
X0118066Y0168135D01*
X0117199Y0167268D01*
X0115987Y0167702D02*
X0115553Y0168135D01*
X0114686Y0168135D01*
X0114252Y0167702D01*
X0114252Y0165967D01*
X0114686Y0165533D01*
X0115553Y0165533D01*
X0115987Y0165967D01*
X0109933Y0165533D02*
X0108199Y0165533D01*
X0109933Y0167268D01*
X0109933Y0167702D01*
X0109500Y0168135D01*
X0108632Y0168135D01*
X0108199Y0167702D01*
X0106987Y0167702D02*
X0106553Y0168135D01*
X0105252Y0168135D01*
X0105252Y0165533D01*
X0105252Y0166400D02*
X0106553Y0166400D01*
X0106987Y0166834D01*
X0106987Y0167702D01*
X0106120Y0166400D02*
X0106987Y0165533D01*
X0101933Y0165533D02*
X0100199Y0165533D01*
X0101066Y0165533D02*
X0101066Y0168135D01*
X0100199Y0167268D01*
X0098987Y0167702D02*
X0098987Y0166834D01*
X0098553Y0166400D01*
X0097252Y0166400D01*
X0097252Y0165533D02*
X0097252Y0168135D01*
X0098553Y0168135D01*
X0098987Y0167702D01*
X0098120Y0166400D02*
X0098987Y0165533D01*
X0092933Y0166834D02*
X0091199Y0166834D01*
X0092500Y0168135D01*
X0092500Y0165533D01*
X0089987Y0165967D02*
X0089553Y0165533D01*
X0088686Y0165533D01*
X0088252Y0165967D01*
X0088252Y0167702D01*
X0088686Y0168135D01*
X0089553Y0168135D01*
X0089987Y0167702D01*
X0086111Y0193733D02*
X0084377Y0193733D01*
X0083943Y0194167D01*
X0083943Y0195034D01*
X0084377Y0195468D01*
X0084377Y0196680D02*
X0083943Y0197113D01*
X0083943Y0197981D01*
X0084377Y0198414D01*
X0084810Y0198414D01*
X0085244Y0197981D01*
X0085678Y0198414D01*
X0086111Y0198414D01*
X0086545Y0197981D01*
X0086545Y0197113D01*
X0086111Y0196680D01*
X0086111Y0195468D02*
X0086545Y0195034D01*
X0086545Y0194167D01*
X0086111Y0193733D01*
X0085244Y0197547D02*
X0085244Y0197981D01*
X0093579Y0216233D02*
X0094446Y0216233D01*
X0094880Y0216667D01*
X0096092Y0216233D02*
X0097826Y0217968D01*
X0097826Y0218402D01*
X0097393Y0218835D01*
X0096525Y0218835D01*
X0096092Y0218402D01*
X0094880Y0218402D02*
X0094446Y0218835D01*
X0093579Y0218835D01*
X0093145Y0218402D01*
X0093145Y0216667D01*
X0093579Y0216233D01*
X0096092Y0216233D02*
X0097826Y0216233D01*
X0105502Y0200135D02*
X0105502Y0197967D01*
X0105936Y0197533D01*
X0106803Y0197533D01*
X0107237Y0197967D01*
X0107237Y0200135D01*
X0108449Y0198834D02*
X0110183Y0198834D01*
X0109750Y0197533D02*
X0109750Y0200135D01*
X0108449Y0198834D01*
X0057095Y0133933D02*
X0057235Y0133931D01*
X0057375Y0133925D01*
X0057515Y0133915D01*
X0057655Y0133902D01*
X0057794Y0133884D01*
X0057933Y0133862D01*
X0058070Y0133837D01*
X0058208Y0133808D01*
X0058344Y0133775D01*
X0058479Y0133738D01*
X0058613Y0133697D01*
X0058746Y0133652D01*
X0058878Y0133604D01*
X0059008Y0133552D01*
X0059137Y0133497D01*
X0059264Y0133438D01*
X0059390Y0133375D01*
X0059514Y0133309D01*
X0059635Y0133240D01*
X0059755Y0133167D01*
X0059873Y0133090D01*
X0059988Y0133011D01*
X0060102Y0132928D01*
X0060212Y0132842D01*
X0060321Y0132753D01*
X0060427Y0132661D01*
X0060530Y0132566D01*
X0060631Y0132469D01*
X0060728Y0132368D01*
X0060823Y0132265D01*
X0060915Y0132159D01*
X0061004Y0132050D01*
X0061090Y0131940D01*
X0061173Y0131826D01*
X0061252Y0131711D01*
X0061329Y0131593D01*
X0061402Y0131473D01*
X0061471Y0131352D01*
X0061537Y0131228D01*
X0061600Y0131102D01*
X0061659Y0130975D01*
X0061714Y0130846D01*
X0061766Y0130716D01*
X0061814Y0130584D01*
X0061859Y0130451D01*
X0061900Y0130317D01*
X0061937Y0130182D01*
X0061970Y0130046D01*
X0061999Y0129908D01*
X0062024Y0129771D01*
X0062046Y0129632D01*
X0062064Y0129493D01*
X0062077Y0129353D01*
X0062087Y0129213D01*
X0062093Y0129073D01*
X0062095Y0128933D01*
X0062093Y0128793D01*
X0062087Y0128653D01*
X0062077Y0128513D01*
X0062064Y0128373D01*
X0062046Y0128234D01*
X0062024Y0128095D01*
X0061999Y0127958D01*
X0061970Y0127820D01*
X0061937Y0127684D01*
X0061900Y0127549D01*
X0061859Y0127415D01*
X0061814Y0127282D01*
X0061766Y0127150D01*
X0061714Y0127020D01*
X0061659Y0126891D01*
X0061600Y0126764D01*
X0061537Y0126638D01*
X0061471Y0126514D01*
X0061402Y0126393D01*
X0061329Y0126273D01*
X0061252Y0126155D01*
X0061173Y0126040D01*
X0061090Y0125926D01*
X0061004Y0125816D01*
X0060915Y0125707D01*
X0060823Y0125601D01*
X0060728Y0125498D01*
X0060631Y0125397D01*
X0060530Y0125300D01*
X0060427Y0125205D01*
X0060321Y0125113D01*
X0060212Y0125024D01*
X0060102Y0124938D01*
X0059988Y0124855D01*
X0059873Y0124776D01*
X0059755Y0124699D01*
X0059635Y0124626D01*
X0059514Y0124557D01*
X0059390Y0124491D01*
X0059264Y0124428D01*
X0059137Y0124369D01*
X0059008Y0124314D01*
X0058878Y0124262D01*
X0058746Y0124214D01*
X0058613Y0124169D01*
X0058479Y0124128D01*
X0058344Y0124091D01*
X0058208Y0124058D01*
X0058070Y0124029D01*
X0057933Y0124004D01*
X0057794Y0123982D01*
X0057655Y0123964D01*
X0057515Y0123951D01*
X0057375Y0123941D01*
X0057235Y0123935D01*
X0057095Y0123933D01*
X0010033Y0123752D02*
X0010033Y0119481D01*
X0005763Y0123752D01*
X0004695Y0123752D01*
X0003628Y0122684D01*
X0003628Y0120549D01*
X0004695Y0119481D01*
X0008966Y0125927D02*
X0008966Y0126994D01*
X0010033Y0126994D01*
X0010033Y0125927D01*
X0008966Y0125927D01*
X0008966Y0129150D02*
X0004695Y0133420D01*
X0008966Y0133420D01*
X0010033Y0132352D01*
X0010033Y0130217D01*
X0008966Y0129150D01*
X0004695Y0129150D01*
X0003628Y0130217D01*
X0003628Y0132352D01*
X0004695Y0133420D01*
X0004695Y0135595D02*
X0003628Y0136663D01*
X0003628Y0138798D01*
X0004695Y0139865D01*
X0008966Y0135595D01*
X0010033Y0136663D01*
X0010033Y0138798D01*
X0008966Y0139865D01*
X0004695Y0139865D01*
X0004695Y0135595D02*
X0008966Y0135595D01*
D11*
X0037595Y0218933D02*
X0037597Y0219074D01*
X0037603Y0219215D01*
X0037613Y0219355D01*
X0037627Y0219495D01*
X0037645Y0219635D01*
X0037666Y0219774D01*
X0037692Y0219913D01*
X0037721Y0220051D01*
X0037755Y0220187D01*
X0037792Y0220323D01*
X0037833Y0220458D01*
X0037878Y0220592D01*
X0037927Y0220724D01*
X0037979Y0220855D01*
X0038035Y0220984D01*
X0038095Y0221111D01*
X0038158Y0221237D01*
X0038224Y0221361D01*
X0038295Y0221484D01*
X0038368Y0221604D01*
X0038445Y0221722D01*
X0038525Y0221838D01*
X0038609Y0221951D01*
X0038695Y0222062D01*
X0038785Y0222171D01*
X0038878Y0222277D01*
X0038973Y0222380D01*
X0039072Y0222481D01*
X0039173Y0222579D01*
X0039277Y0222674D01*
X0039384Y0222766D01*
X0039493Y0222855D01*
X0039605Y0222940D01*
X0039719Y0223023D01*
X0039835Y0223103D01*
X0039954Y0223179D01*
X0040075Y0223251D01*
X0040197Y0223321D01*
X0040322Y0223386D01*
X0040448Y0223449D01*
X0040576Y0223507D01*
X0040706Y0223562D01*
X0040837Y0223614D01*
X0040970Y0223661D01*
X0041104Y0223705D01*
X0041239Y0223746D01*
X0041375Y0223782D01*
X0041512Y0223814D01*
X0041650Y0223843D01*
X0041788Y0223868D01*
X0041928Y0223888D01*
X0042068Y0223905D01*
X0042208Y0223918D01*
X0042349Y0223927D01*
X0042489Y0223932D01*
X0042630Y0223933D01*
X0042771Y0223930D01*
X0042912Y0223923D01*
X0043052Y0223912D01*
X0043192Y0223897D01*
X0043332Y0223878D01*
X0043471Y0223856D01*
X0043609Y0223829D01*
X0043747Y0223799D01*
X0043883Y0223764D01*
X0044019Y0223726D01*
X0044153Y0223684D01*
X0044287Y0223638D01*
X0044419Y0223589D01*
X0044549Y0223535D01*
X0044678Y0223478D01*
X0044805Y0223418D01*
X0044931Y0223354D01*
X0045054Y0223286D01*
X0045176Y0223215D01*
X0045296Y0223141D01*
X0045413Y0223063D01*
X0045528Y0222982D01*
X0045641Y0222898D01*
X0045752Y0222811D01*
X0045860Y0222720D01*
X0045965Y0222627D01*
X0046068Y0222530D01*
X0046168Y0222431D01*
X0046265Y0222329D01*
X0046359Y0222224D01*
X0046450Y0222117D01*
X0046538Y0222007D01*
X0046623Y0221895D01*
X0046705Y0221780D01*
X0046784Y0221663D01*
X0046859Y0221544D01*
X0046931Y0221423D01*
X0046999Y0221300D01*
X0047064Y0221175D01*
X0047126Y0221048D01*
X0047183Y0220919D01*
X0047238Y0220789D01*
X0047288Y0220658D01*
X0047335Y0220525D01*
X0047378Y0220391D01*
X0047417Y0220255D01*
X0047452Y0220119D01*
X0047484Y0219982D01*
X0047511Y0219844D01*
X0047535Y0219705D01*
X0047555Y0219565D01*
X0047571Y0219425D01*
X0047583Y0219285D01*
X0047591Y0219144D01*
X0047595Y0219003D01*
X0047595Y0218863D01*
X0047591Y0218722D01*
X0047583Y0218581D01*
X0047571Y0218441D01*
X0047555Y0218301D01*
X0047535Y0218161D01*
X0047511Y0218022D01*
X0047484Y0217884D01*
X0047452Y0217747D01*
X0047417Y0217611D01*
X0047378Y0217475D01*
X0047335Y0217341D01*
X0047288Y0217208D01*
X0047238Y0217077D01*
X0047183Y0216947D01*
X0047126Y0216818D01*
X0047064Y0216691D01*
X0046999Y0216566D01*
X0046931Y0216443D01*
X0046859Y0216322D01*
X0046784Y0216203D01*
X0046705Y0216086D01*
X0046623Y0215971D01*
X0046538Y0215859D01*
X0046450Y0215749D01*
X0046359Y0215642D01*
X0046265Y0215537D01*
X0046168Y0215435D01*
X0046068Y0215336D01*
X0045965Y0215239D01*
X0045860Y0215146D01*
X0045752Y0215055D01*
X0045641Y0214968D01*
X0045528Y0214884D01*
X0045413Y0214803D01*
X0045296Y0214725D01*
X0045176Y0214651D01*
X0045054Y0214580D01*
X0044931Y0214512D01*
X0044805Y0214448D01*
X0044678Y0214388D01*
X0044549Y0214331D01*
X0044419Y0214277D01*
X0044287Y0214228D01*
X0044153Y0214182D01*
X0044019Y0214140D01*
X0043883Y0214102D01*
X0043747Y0214067D01*
X0043609Y0214037D01*
X0043471Y0214010D01*
X0043332Y0213988D01*
X0043192Y0213969D01*
X0043052Y0213954D01*
X0042912Y0213943D01*
X0042771Y0213936D01*
X0042630Y0213933D01*
X0042489Y0213934D01*
X0042349Y0213939D01*
X0042208Y0213948D01*
X0042068Y0213961D01*
X0041928Y0213978D01*
X0041788Y0213998D01*
X0041650Y0214023D01*
X0041512Y0214052D01*
X0041375Y0214084D01*
X0041239Y0214120D01*
X0041104Y0214161D01*
X0040970Y0214205D01*
X0040837Y0214252D01*
X0040706Y0214304D01*
X0040576Y0214359D01*
X0040448Y0214417D01*
X0040322Y0214480D01*
X0040197Y0214545D01*
X0040075Y0214615D01*
X0039954Y0214687D01*
X0039835Y0214763D01*
X0039719Y0214843D01*
X0039605Y0214926D01*
X0039493Y0215011D01*
X0039384Y0215100D01*
X0039277Y0215192D01*
X0039173Y0215287D01*
X0039072Y0215385D01*
X0038973Y0215486D01*
X0038878Y0215589D01*
X0038785Y0215695D01*
X0038695Y0215804D01*
X0038609Y0215915D01*
X0038525Y0216028D01*
X0038445Y0216144D01*
X0038368Y0216262D01*
X0038295Y0216382D01*
X0038224Y0216505D01*
X0038158Y0216629D01*
X0038095Y0216755D01*
X0038035Y0216882D01*
X0037979Y0217011D01*
X0037927Y0217142D01*
X0037878Y0217274D01*
X0037833Y0217408D01*
X0037792Y0217543D01*
X0037755Y0217679D01*
X0037721Y0217815D01*
X0037692Y0217953D01*
X0037666Y0218092D01*
X0037645Y0218231D01*
X0037627Y0218371D01*
X0037613Y0218511D01*
X0037603Y0218651D01*
X0037597Y0218792D01*
X0037595Y0218933D01*
X0107595Y0218933D02*
X0107597Y0219074D01*
X0107603Y0219215D01*
X0107613Y0219355D01*
X0107627Y0219495D01*
X0107645Y0219635D01*
X0107666Y0219774D01*
X0107692Y0219913D01*
X0107721Y0220051D01*
X0107755Y0220187D01*
X0107792Y0220323D01*
X0107833Y0220458D01*
X0107878Y0220592D01*
X0107927Y0220724D01*
X0107979Y0220855D01*
X0108035Y0220984D01*
X0108095Y0221111D01*
X0108158Y0221237D01*
X0108224Y0221361D01*
X0108295Y0221484D01*
X0108368Y0221604D01*
X0108445Y0221722D01*
X0108525Y0221838D01*
X0108609Y0221951D01*
X0108695Y0222062D01*
X0108785Y0222171D01*
X0108878Y0222277D01*
X0108973Y0222380D01*
X0109072Y0222481D01*
X0109173Y0222579D01*
X0109277Y0222674D01*
X0109384Y0222766D01*
X0109493Y0222855D01*
X0109605Y0222940D01*
X0109719Y0223023D01*
X0109835Y0223103D01*
X0109954Y0223179D01*
X0110075Y0223251D01*
X0110197Y0223321D01*
X0110322Y0223386D01*
X0110448Y0223449D01*
X0110576Y0223507D01*
X0110706Y0223562D01*
X0110837Y0223614D01*
X0110970Y0223661D01*
X0111104Y0223705D01*
X0111239Y0223746D01*
X0111375Y0223782D01*
X0111512Y0223814D01*
X0111650Y0223843D01*
X0111788Y0223868D01*
X0111928Y0223888D01*
X0112068Y0223905D01*
X0112208Y0223918D01*
X0112349Y0223927D01*
X0112489Y0223932D01*
X0112630Y0223933D01*
X0112771Y0223930D01*
X0112912Y0223923D01*
X0113052Y0223912D01*
X0113192Y0223897D01*
X0113332Y0223878D01*
X0113471Y0223856D01*
X0113609Y0223829D01*
X0113747Y0223799D01*
X0113883Y0223764D01*
X0114019Y0223726D01*
X0114153Y0223684D01*
X0114287Y0223638D01*
X0114419Y0223589D01*
X0114549Y0223535D01*
X0114678Y0223478D01*
X0114805Y0223418D01*
X0114931Y0223354D01*
X0115054Y0223286D01*
X0115176Y0223215D01*
X0115296Y0223141D01*
X0115413Y0223063D01*
X0115528Y0222982D01*
X0115641Y0222898D01*
X0115752Y0222811D01*
X0115860Y0222720D01*
X0115965Y0222627D01*
X0116068Y0222530D01*
X0116168Y0222431D01*
X0116265Y0222329D01*
X0116359Y0222224D01*
X0116450Y0222117D01*
X0116538Y0222007D01*
X0116623Y0221895D01*
X0116705Y0221780D01*
X0116784Y0221663D01*
X0116859Y0221544D01*
X0116931Y0221423D01*
X0116999Y0221300D01*
X0117064Y0221175D01*
X0117126Y0221048D01*
X0117183Y0220919D01*
X0117238Y0220789D01*
X0117288Y0220658D01*
X0117335Y0220525D01*
X0117378Y0220391D01*
X0117417Y0220255D01*
X0117452Y0220119D01*
X0117484Y0219982D01*
X0117511Y0219844D01*
X0117535Y0219705D01*
X0117555Y0219565D01*
X0117571Y0219425D01*
X0117583Y0219285D01*
X0117591Y0219144D01*
X0117595Y0219003D01*
X0117595Y0218863D01*
X0117591Y0218722D01*
X0117583Y0218581D01*
X0117571Y0218441D01*
X0117555Y0218301D01*
X0117535Y0218161D01*
X0117511Y0218022D01*
X0117484Y0217884D01*
X0117452Y0217747D01*
X0117417Y0217611D01*
X0117378Y0217475D01*
X0117335Y0217341D01*
X0117288Y0217208D01*
X0117238Y0217077D01*
X0117183Y0216947D01*
X0117126Y0216818D01*
X0117064Y0216691D01*
X0116999Y0216566D01*
X0116931Y0216443D01*
X0116859Y0216322D01*
X0116784Y0216203D01*
X0116705Y0216086D01*
X0116623Y0215971D01*
X0116538Y0215859D01*
X0116450Y0215749D01*
X0116359Y0215642D01*
X0116265Y0215537D01*
X0116168Y0215435D01*
X0116068Y0215336D01*
X0115965Y0215239D01*
X0115860Y0215146D01*
X0115752Y0215055D01*
X0115641Y0214968D01*
X0115528Y0214884D01*
X0115413Y0214803D01*
X0115296Y0214725D01*
X0115176Y0214651D01*
X0115054Y0214580D01*
X0114931Y0214512D01*
X0114805Y0214448D01*
X0114678Y0214388D01*
X0114549Y0214331D01*
X0114419Y0214277D01*
X0114287Y0214228D01*
X0114153Y0214182D01*
X0114019Y0214140D01*
X0113883Y0214102D01*
X0113747Y0214067D01*
X0113609Y0214037D01*
X0113471Y0214010D01*
X0113332Y0213988D01*
X0113192Y0213969D01*
X0113052Y0213954D01*
X0112912Y0213943D01*
X0112771Y0213936D01*
X0112630Y0213933D01*
X0112489Y0213934D01*
X0112349Y0213939D01*
X0112208Y0213948D01*
X0112068Y0213961D01*
X0111928Y0213978D01*
X0111788Y0213998D01*
X0111650Y0214023D01*
X0111512Y0214052D01*
X0111375Y0214084D01*
X0111239Y0214120D01*
X0111104Y0214161D01*
X0110970Y0214205D01*
X0110837Y0214252D01*
X0110706Y0214304D01*
X0110576Y0214359D01*
X0110448Y0214417D01*
X0110322Y0214480D01*
X0110197Y0214545D01*
X0110075Y0214615D01*
X0109954Y0214687D01*
X0109835Y0214763D01*
X0109719Y0214843D01*
X0109605Y0214926D01*
X0109493Y0215011D01*
X0109384Y0215100D01*
X0109277Y0215192D01*
X0109173Y0215287D01*
X0109072Y0215385D01*
X0108973Y0215486D01*
X0108878Y0215589D01*
X0108785Y0215695D01*
X0108695Y0215804D01*
X0108609Y0215915D01*
X0108525Y0216028D01*
X0108445Y0216144D01*
X0108368Y0216262D01*
X0108295Y0216382D01*
X0108224Y0216505D01*
X0108158Y0216629D01*
X0108095Y0216755D01*
X0108035Y0216882D01*
X0107979Y0217011D01*
X0107927Y0217142D01*
X0107878Y0217274D01*
X0107833Y0217408D01*
X0107792Y0217543D01*
X0107755Y0217679D01*
X0107721Y0217815D01*
X0107692Y0217953D01*
X0107666Y0218092D01*
X0107645Y0218231D01*
X0107627Y0218371D01*
X0107613Y0218511D01*
X0107603Y0218651D01*
X0107597Y0218792D01*
X0107595Y0218933D01*
X0107595Y0038933D02*
X0107597Y0039074D01*
X0107603Y0039215D01*
X0107613Y0039355D01*
X0107627Y0039495D01*
X0107645Y0039635D01*
X0107666Y0039774D01*
X0107692Y0039913D01*
X0107721Y0040051D01*
X0107755Y0040187D01*
X0107792Y0040323D01*
X0107833Y0040458D01*
X0107878Y0040592D01*
X0107927Y0040724D01*
X0107979Y0040855D01*
X0108035Y0040984D01*
X0108095Y0041111D01*
X0108158Y0041237D01*
X0108224Y0041361D01*
X0108295Y0041484D01*
X0108368Y0041604D01*
X0108445Y0041722D01*
X0108525Y0041838D01*
X0108609Y0041951D01*
X0108695Y0042062D01*
X0108785Y0042171D01*
X0108878Y0042277D01*
X0108973Y0042380D01*
X0109072Y0042481D01*
X0109173Y0042579D01*
X0109277Y0042674D01*
X0109384Y0042766D01*
X0109493Y0042855D01*
X0109605Y0042940D01*
X0109719Y0043023D01*
X0109835Y0043103D01*
X0109954Y0043179D01*
X0110075Y0043251D01*
X0110197Y0043321D01*
X0110322Y0043386D01*
X0110448Y0043449D01*
X0110576Y0043507D01*
X0110706Y0043562D01*
X0110837Y0043614D01*
X0110970Y0043661D01*
X0111104Y0043705D01*
X0111239Y0043746D01*
X0111375Y0043782D01*
X0111512Y0043814D01*
X0111650Y0043843D01*
X0111788Y0043868D01*
X0111928Y0043888D01*
X0112068Y0043905D01*
X0112208Y0043918D01*
X0112349Y0043927D01*
X0112489Y0043932D01*
X0112630Y0043933D01*
X0112771Y0043930D01*
X0112912Y0043923D01*
X0113052Y0043912D01*
X0113192Y0043897D01*
X0113332Y0043878D01*
X0113471Y0043856D01*
X0113609Y0043829D01*
X0113747Y0043799D01*
X0113883Y0043764D01*
X0114019Y0043726D01*
X0114153Y0043684D01*
X0114287Y0043638D01*
X0114419Y0043589D01*
X0114549Y0043535D01*
X0114678Y0043478D01*
X0114805Y0043418D01*
X0114931Y0043354D01*
X0115054Y0043286D01*
X0115176Y0043215D01*
X0115296Y0043141D01*
X0115413Y0043063D01*
X0115528Y0042982D01*
X0115641Y0042898D01*
X0115752Y0042811D01*
X0115860Y0042720D01*
X0115965Y0042627D01*
X0116068Y0042530D01*
X0116168Y0042431D01*
X0116265Y0042329D01*
X0116359Y0042224D01*
X0116450Y0042117D01*
X0116538Y0042007D01*
X0116623Y0041895D01*
X0116705Y0041780D01*
X0116784Y0041663D01*
X0116859Y0041544D01*
X0116931Y0041423D01*
X0116999Y0041300D01*
X0117064Y0041175D01*
X0117126Y0041048D01*
X0117183Y0040919D01*
X0117238Y0040789D01*
X0117288Y0040658D01*
X0117335Y0040525D01*
X0117378Y0040391D01*
X0117417Y0040255D01*
X0117452Y0040119D01*
X0117484Y0039982D01*
X0117511Y0039844D01*
X0117535Y0039705D01*
X0117555Y0039565D01*
X0117571Y0039425D01*
X0117583Y0039285D01*
X0117591Y0039144D01*
X0117595Y0039003D01*
X0117595Y0038863D01*
X0117591Y0038722D01*
X0117583Y0038581D01*
X0117571Y0038441D01*
X0117555Y0038301D01*
X0117535Y0038161D01*
X0117511Y0038022D01*
X0117484Y0037884D01*
X0117452Y0037747D01*
X0117417Y0037611D01*
X0117378Y0037475D01*
X0117335Y0037341D01*
X0117288Y0037208D01*
X0117238Y0037077D01*
X0117183Y0036947D01*
X0117126Y0036818D01*
X0117064Y0036691D01*
X0116999Y0036566D01*
X0116931Y0036443D01*
X0116859Y0036322D01*
X0116784Y0036203D01*
X0116705Y0036086D01*
X0116623Y0035971D01*
X0116538Y0035859D01*
X0116450Y0035749D01*
X0116359Y0035642D01*
X0116265Y0035537D01*
X0116168Y0035435D01*
X0116068Y0035336D01*
X0115965Y0035239D01*
X0115860Y0035146D01*
X0115752Y0035055D01*
X0115641Y0034968D01*
X0115528Y0034884D01*
X0115413Y0034803D01*
X0115296Y0034725D01*
X0115176Y0034651D01*
X0115054Y0034580D01*
X0114931Y0034512D01*
X0114805Y0034448D01*
X0114678Y0034388D01*
X0114549Y0034331D01*
X0114419Y0034277D01*
X0114287Y0034228D01*
X0114153Y0034182D01*
X0114019Y0034140D01*
X0113883Y0034102D01*
X0113747Y0034067D01*
X0113609Y0034037D01*
X0113471Y0034010D01*
X0113332Y0033988D01*
X0113192Y0033969D01*
X0113052Y0033954D01*
X0112912Y0033943D01*
X0112771Y0033936D01*
X0112630Y0033933D01*
X0112489Y0033934D01*
X0112349Y0033939D01*
X0112208Y0033948D01*
X0112068Y0033961D01*
X0111928Y0033978D01*
X0111788Y0033998D01*
X0111650Y0034023D01*
X0111512Y0034052D01*
X0111375Y0034084D01*
X0111239Y0034120D01*
X0111104Y0034161D01*
X0110970Y0034205D01*
X0110837Y0034252D01*
X0110706Y0034304D01*
X0110576Y0034359D01*
X0110448Y0034417D01*
X0110322Y0034480D01*
X0110197Y0034545D01*
X0110075Y0034615D01*
X0109954Y0034687D01*
X0109835Y0034763D01*
X0109719Y0034843D01*
X0109605Y0034926D01*
X0109493Y0035011D01*
X0109384Y0035100D01*
X0109277Y0035192D01*
X0109173Y0035287D01*
X0109072Y0035385D01*
X0108973Y0035486D01*
X0108878Y0035589D01*
X0108785Y0035695D01*
X0108695Y0035804D01*
X0108609Y0035915D01*
X0108525Y0036028D01*
X0108445Y0036144D01*
X0108368Y0036262D01*
X0108295Y0036382D01*
X0108224Y0036505D01*
X0108158Y0036629D01*
X0108095Y0036755D01*
X0108035Y0036882D01*
X0107979Y0037011D01*
X0107927Y0037142D01*
X0107878Y0037274D01*
X0107833Y0037408D01*
X0107792Y0037543D01*
X0107755Y0037679D01*
X0107721Y0037815D01*
X0107692Y0037953D01*
X0107666Y0038092D01*
X0107645Y0038231D01*
X0107627Y0038371D01*
X0107613Y0038511D01*
X0107603Y0038651D01*
X0107597Y0038792D01*
X0107595Y0038933D01*
X0037595Y0038933D02*
X0037597Y0039074D01*
X0037603Y0039215D01*
X0037613Y0039355D01*
X0037627Y0039495D01*
X0037645Y0039635D01*
X0037666Y0039774D01*
X0037692Y0039913D01*
X0037721Y0040051D01*
X0037755Y0040187D01*
X0037792Y0040323D01*
X0037833Y0040458D01*
X0037878Y0040592D01*
X0037927Y0040724D01*
X0037979Y0040855D01*
X0038035Y0040984D01*
X0038095Y0041111D01*
X0038158Y0041237D01*
X0038224Y0041361D01*
X0038295Y0041484D01*
X0038368Y0041604D01*
X0038445Y0041722D01*
X0038525Y0041838D01*
X0038609Y0041951D01*
X0038695Y0042062D01*
X0038785Y0042171D01*
X0038878Y0042277D01*
X0038973Y0042380D01*
X0039072Y0042481D01*
X0039173Y0042579D01*
X0039277Y0042674D01*
X0039384Y0042766D01*
X0039493Y0042855D01*
X0039605Y0042940D01*
X0039719Y0043023D01*
X0039835Y0043103D01*
X0039954Y0043179D01*
X0040075Y0043251D01*
X0040197Y0043321D01*
X0040322Y0043386D01*
X0040448Y0043449D01*
X0040576Y0043507D01*
X0040706Y0043562D01*
X0040837Y0043614D01*
X0040970Y0043661D01*
X0041104Y0043705D01*
X0041239Y0043746D01*
X0041375Y0043782D01*
X0041512Y0043814D01*
X0041650Y0043843D01*
X0041788Y0043868D01*
X0041928Y0043888D01*
X0042068Y0043905D01*
X0042208Y0043918D01*
X0042349Y0043927D01*
X0042489Y0043932D01*
X0042630Y0043933D01*
X0042771Y0043930D01*
X0042912Y0043923D01*
X0043052Y0043912D01*
X0043192Y0043897D01*
X0043332Y0043878D01*
X0043471Y0043856D01*
X0043609Y0043829D01*
X0043747Y0043799D01*
X0043883Y0043764D01*
X0044019Y0043726D01*
X0044153Y0043684D01*
X0044287Y0043638D01*
X0044419Y0043589D01*
X0044549Y0043535D01*
X0044678Y0043478D01*
X0044805Y0043418D01*
X0044931Y0043354D01*
X0045054Y0043286D01*
X0045176Y0043215D01*
X0045296Y0043141D01*
X0045413Y0043063D01*
X0045528Y0042982D01*
X0045641Y0042898D01*
X0045752Y0042811D01*
X0045860Y0042720D01*
X0045965Y0042627D01*
X0046068Y0042530D01*
X0046168Y0042431D01*
X0046265Y0042329D01*
X0046359Y0042224D01*
X0046450Y0042117D01*
X0046538Y0042007D01*
X0046623Y0041895D01*
X0046705Y0041780D01*
X0046784Y0041663D01*
X0046859Y0041544D01*
X0046931Y0041423D01*
X0046999Y0041300D01*
X0047064Y0041175D01*
X0047126Y0041048D01*
X0047183Y0040919D01*
X0047238Y0040789D01*
X0047288Y0040658D01*
X0047335Y0040525D01*
X0047378Y0040391D01*
X0047417Y0040255D01*
X0047452Y0040119D01*
X0047484Y0039982D01*
X0047511Y0039844D01*
X0047535Y0039705D01*
X0047555Y0039565D01*
X0047571Y0039425D01*
X0047583Y0039285D01*
X0047591Y0039144D01*
X0047595Y0039003D01*
X0047595Y0038863D01*
X0047591Y0038722D01*
X0047583Y0038581D01*
X0047571Y0038441D01*
X0047555Y0038301D01*
X0047535Y0038161D01*
X0047511Y0038022D01*
X0047484Y0037884D01*
X0047452Y0037747D01*
X0047417Y0037611D01*
X0047378Y0037475D01*
X0047335Y0037341D01*
X0047288Y0037208D01*
X0047238Y0037077D01*
X0047183Y0036947D01*
X0047126Y0036818D01*
X0047064Y0036691D01*
X0046999Y0036566D01*
X0046931Y0036443D01*
X0046859Y0036322D01*
X0046784Y0036203D01*
X0046705Y0036086D01*
X0046623Y0035971D01*
X0046538Y0035859D01*
X0046450Y0035749D01*
X0046359Y0035642D01*
X0046265Y0035537D01*
X0046168Y0035435D01*
X0046068Y0035336D01*
X0045965Y0035239D01*
X0045860Y0035146D01*
X0045752Y0035055D01*
X0045641Y0034968D01*
X0045528Y0034884D01*
X0045413Y0034803D01*
X0045296Y0034725D01*
X0045176Y0034651D01*
X0045054Y0034580D01*
X0044931Y0034512D01*
X0044805Y0034448D01*
X0044678Y0034388D01*
X0044549Y0034331D01*
X0044419Y0034277D01*
X0044287Y0034228D01*
X0044153Y0034182D01*
X0044019Y0034140D01*
X0043883Y0034102D01*
X0043747Y0034067D01*
X0043609Y0034037D01*
X0043471Y0034010D01*
X0043332Y0033988D01*
X0043192Y0033969D01*
X0043052Y0033954D01*
X0042912Y0033943D01*
X0042771Y0033936D01*
X0042630Y0033933D01*
X0042489Y0033934D01*
X0042349Y0033939D01*
X0042208Y0033948D01*
X0042068Y0033961D01*
X0041928Y0033978D01*
X0041788Y0033998D01*
X0041650Y0034023D01*
X0041512Y0034052D01*
X0041375Y0034084D01*
X0041239Y0034120D01*
X0041104Y0034161D01*
X0040970Y0034205D01*
X0040837Y0034252D01*
X0040706Y0034304D01*
X0040576Y0034359D01*
X0040448Y0034417D01*
X0040322Y0034480D01*
X0040197Y0034545D01*
X0040075Y0034615D01*
X0039954Y0034687D01*
X0039835Y0034763D01*
X0039719Y0034843D01*
X0039605Y0034926D01*
X0039493Y0035011D01*
X0039384Y0035100D01*
X0039277Y0035192D01*
X0039173Y0035287D01*
X0039072Y0035385D01*
X0038973Y0035486D01*
X0038878Y0035589D01*
X0038785Y0035695D01*
X0038695Y0035804D01*
X0038609Y0035915D01*
X0038525Y0036028D01*
X0038445Y0036144D01*
X0038368Y0036262D01*
X0038295Y0036382D01*
X0038224Y0036505D01*
X0038158Y0036629D01*
X0038095Y0036755D01*
X0038035Y0036882D01*
X0037979Y0037011D01*
X0037927Y0037142D01*
X0037878Y0037274D01*
X0037833Y0037408D01*
X0037792Y0037543D01*
X0037755Y0037679D01*
X0037721Y0037815D01*
X0037692Y0037953D01*
X0037666Y0038092D01*
X0037645Y0038231D01*
X0037627Y0038371D01*
X0037613Y0038511D01*
X0037603Y0038651D01*
X0037597Y0038792D01*
X0037595Y0038933D01*
D12*
X0032595Y0028933D02*
X0004918Y0028933D01*
X0012595Y0029189D02*
X0011338Y0039169D01*
X0013852Y0039169D01*
X0012595Y0029189D01*
X0013619Y0039169D01*
X0013107Y0039169D02*
X0012595Y0029189D01*
X0011572Y0039169D01*
X0012083Y0039169D02*
X0012595Y0029189D01*
X0012595Y0228677D01*
X0013619Y0218697D01*
X0013852Y0218697D02*
X0012595Y0228677D01*
X0011572Y0218697D01*
X0011338Y0218697D02*
X0013852Y0218697D01*
X0013107Y0218697D02*
X0012595Y0228677D01*
X0012083Y0218697D01*
X0011338Y0218697D02*
X0012595Y0228677D01*
X0004918Y0228933D02*
X0032595Y0228933D01*
X0032595Y0028933D02*
X0032595Y0001256D01*
X0032851Y0008933D02*
X0042831Y0007909D01*
X0042831Y0007676D02*
X0032851Y0008933D01*
X0042831Y0009957D01*
X0042831Y0010190D02*
X0042831Y0007676D01*
X0042831Y0008421D02*
X0032851Y0008933D01*
X0042831Y0009445D01*
X0042831Y0010190D02*
X0032851Y0008933D01*
X0122339Y0008933D01*
X0112359Y0007909D01*
X0112359Y0007676D02*
X0122339Y0008933D01*
X0112359Y0009957D01*
X0112359Y0010190D02*
X0112359Y0007676D01*
X0112359Y0008421D02*
X0122339Y0008933D01*
X0112359Y0009445D01*
X0112359Y0010190D02*
X0122339Y0008933D01*
X0122595Y0001256D02*
X0122595Y0028933D01*
D13*
X0055112Y0088096D02*
X0051409Y0088096D01*
X0052643Y0089330D01*
X0051409Y0090565D01*
X0055112Y0090565D01*
X0054495Y0091779D02*
X0055112Y0092396D01*
X0055112Y0093631D01*
X0054495Y0094248D01*
X0053261Y0094248D01*
X0052643Y0093631D01*
X0052643Y0092396D01*
X0053261Y0091779D01*
X0054495Y0091779D01*
X0052643Y0095462D02*
X0052643Y0096697D01*
X0052026Y0096079D02*
X0054495Y0096079D01*
X0055112Y0096697D01*
X0054495Y0097918D02*
X0053261Y0097918D01*
X0052643Y0098535D01*
X0052643Y0099769D01*
X0053261Y0100386D01*
X0054495Y0100386D01*
X0055112Y0099769D01*
X0055112Y0098535D01*
X0054495Y0097918D01*
X0055112Y0101601D02*
X0052643Y0101601D01*
X0052643Y0102835D02*
X0052643Y0103452D01*
X0052643Y0102835D02*
X0053878Y0101601D01*
X0053261Y0104670D02*
X0052643Y0105287D01*
X0052643Y0107139D01*
X0053878Y0106522D02*
X0053878Y0105287D01*
X0053261Y0104670D01*
X0055112Y0104670D02*
X0055112Y0106522D01*
X0054495Y0107139D01*
X0053878Y0106522D01*
X0054495Y0112036D02*
X0052026Y0112036D01*
X0051409Y0112654D01*
X0051409Y0113888D01*
X0052026Y0114505D01*
X0054495Y0112036D01*
X0055112Y0112654D01*
X0055112Y0113888D01*
X0054495Y0114505D01*
X0052026Y0114505D01*
X0053261Y0115720D02*
X0053261Y0118188D01*
X0054495Y0119403D02*
X0052026Y0121871D01*
X0051409Y0121871D01*
X0051409Y0119403D01*
X0054495Y0119403D02*
X0055112Y0119403D01*
X0054381Y0198755D02*
X0054381Y0202458D01*
X0053146Y0201224D01*
X0051912Y0202458D01*
X0051912Y0198755D01*
X0055595Y0199372D02*
X0056212Y0198755D01*
X0057446Y0198755D01*
X0058064Y0199372D01*
X0058064Y0200607D01*
X0057446Y0201224D01*
X0056212Y0201224D01*
X0055595Y0200607D01*
X0055595Y0199372D01*
X0059278Y0201224D02*
X0060512Y0201224D01*
X0059895Y0201841D02*
X0059895Y0199372D01*
X0060512Y0198755D01*
X0061733Y0199372D02*
X0061733Y0200607D01*
X0062351Y0201224D01*
X0063585Y0201224D01*
X0064202Y0200607D01*
X0064202Y0199372D01*
X0063585Y0198755D01*
X0062351Y0198755D01*
X0061733Y0199372D01*
X0065417Y0198755D02*
X0065417Y0201224D01*
X0066651Y0201224D02*
X0065417Y0199989D01*
X0066651Y0201224D02*
X0067268Y0201224D01*
X0068486Y0200607D02*
X0069103Y0199989D01*
X0070337Y0199989D01*
X0070955Y0199372D01*
X0070337Y0198755D01*
X0068486Y0198755D01*
X0068486Y0200607D02*
X0069103Y0201224D01*
X0070955Y0201224D01*
X0075852Y0201224D02*
X0075852Y0201841D01*
X0076469Y0202458D01*
X0077704Y0202458D01*
X0078321Y0201841D01*
X0078321Y0201224D01*
X0077704Y0200607D01*
X0076469Y0200607D01*
X0075852Y0201224D01*
X0076469Y0200607D02*
X0075852Y0199989D01*
X0075852Y0199372D01*
X0076469Y0198755D01*
X0077704Y0198755D01*
X0078321Y0199372D01*
X0078321Y0199989D01*
X0077704Y0200607D01*
X0079535Y0200607D02*
X0082004Y0200607D01*
X0083218Y0201224D02*
X0084453Y0202458D01*
X0084453Y0198755D01*
X0085687Y0198755D02*
X0083218Y0198755D01*
X0086902Y0199372D02*
X0087519Y0198755D01*
X0088753Y0198755D01*
X0089370Y0199372D01*
X0089370Y0200607D01*
X0088753Y0201224D01*
X0088136Y0201224D01*
X0086902Y0200607D01*
X0086902Y0202458D01*
X0089370Y0202458D01*
D14*
X0084678Y0170930D02*
X0082409Y0170930D01*
X0081275Y0169795D01*
X0081275Y0167527D01*
X0082409Y0166392D01*
X0084678Y0166392D01*
X0085812Y0168661D02*
X0081275Y0168661D01*
X0078539Y0170930D02*
X0077405Y0170930D01*
X0075136Y0168661D01*
X0075136Y0166392D02*
X0075136Y0170930D01*
X0072307Y0170930D02*
X0068904Y0170930D01*
X0067770Y0169795D01*
X0067770Y0167527D01*
X0068904Y0166392D01*
X0072307Y0166392D01*
X0072307Y0173198D01*
X0067770Y0163198D02*
X0067770Y0156392D01*
X0071173Y0156392D01*
X0072307Y0157527D01*
X0072307Y0159795D01*
X0071173Y0160930D01*
X0067770Y0160930D01*
X0064941Y0160930D02*
X0064941Y0156392D01*
X0061538Y0156392D01*
X0060404Y0157527D01*
X0060404Y0160930D01*
X0057575Y0162064D02*
X0057575Y0157527D01*
X0056440Y0156392D01*
X0053037Y0156392D01*
X0053037Y0163198D01*
X0056440Y0163198D01*
X0057575Y0162064D01*
X0057575Y0166392D02*
X0057575Y0170930D01*
X0055306Y0173198D01*
X0053037Y0170930D01*
X0053037Y0166392D01*
X0053037Y0169795D02*
X0057575Y0169795D01*
X0060404Y0170930D02*
X0060404Y0166392D01*
X0060404Y0170930D02*
X0063807Y0170930D01*
X0064941Y0169795D01*
X0064941Y0166392D01*
X0075136Y0159795D02*
X0075136Y0157527D01*
X0076270Y0156392D01*
X0078539Y0156392D01*
X0079673Y0157527D01*
X0079673Y0159795D01*
X0078539Y0160930D01*
X0076270Y0160930D01*
X0075136Y0159795D01*
X0082502Y0160930D02*
X0084771Y0156392D01*
X0087040Y0160930D01*
X0089869Y0159795D02*
X0091003Y0160930D01*
X0094406Y0160930D01*
X0093272Y0158661D02*
X0091003Y0158661D01*
X0089869Y0159795D01*
X0089869Y0156392D02*
X0093272Y0156392D01*
X0094406Y0157527D01*
X0093272Y0158661D01*
X0097235Y0158661D02*
X0100638Y0160930D01*
X0103374Y0160930D02*
X0104508Y0160930D01*
X0104508Y0156392D01*
X0103374Y0156392D02*
X0105642Y0156392D01*
X0108284Y0157527D02*
X0108284Y0160930D01*
X0108284Y0157527D02*
X0109419Y0156392D01*
X0112822Y0156392D01*
X0112822Y0155258D02*
X0111687Y0154124D01*
X0110553Y0154124D01*
X0112822Y0155258D02*
X0112822Y0160930D01*
X0104508Y0163198D02*
X0104508Y0164332D01*
X0100638Y0156392D02*
X0097235Y0158661D01*
X0097235Y0156392D02*
X0097235Y0163198D01*
X0085812Y0168661D02*
X0085812Y0169795D01*
X0084678Y0170930D01*
D15*
X0083306Y0099869D02*
X0080471Y0099869D01*
X0079053Y0098451D01*
X0079053Y0092780D01*
X0080471Y0091362D01*
X0083306Y0091362D01*
X0084724Y0092780D01*
X0084724Y0095616D01*
X0081889Y0095616D01*
X0084724Y0098451D02*
X0083306Y0099869D01*
X0088261Y0099869D02*
X0088261Y0091362D01*
X0088261Y0094198D02*
X0092514Y0094198D01*
X0093932Y0095616D01*
X0093932Y0098451D01*
X0092514Y0099869D01*
X0088261Y0099869D01*
X0097469Y0098451D02*
X0097469Y0097033D01*
X0098886Y0095616D01*
X0101722Y0095616D01*
X0103140Y0094198D01*
X0103140Y0092780D01*
X0101722Y0091362D01*
X0098886Y0091362D01*
X0097469Y0092780D01*
X0097469Y0098451D02*
X0098886Y0099869D01*
X0101722Y0099869D01*
X0103140Y0098451D01*
X0075516Y0099869D02*
X0075516Y0091362D01*
X0072681Y0094198D01*
X0069845Y0091362D01*
X0069845Y0099869D01*
D16*
X0083345Y0131683D02*
X0084846Y0131683D01*
X0084096Y0131683D02*
X0084096Y0136187D01*
X0084846Y0136187D02*
X0083345Y0136187D01*
X0086414Y0135436D02*
X0086414Y0132434D01*
X0087165Y0131683D01*
X0088666Y0131683D01*
X0089417Y0132434D01*
X0091018Y0131683D02*
X0094021Y0131683D01*
X0092520Y0131683D02*
X0092520Y0136187D01*
X0091018Y0134686D01*
X0089417Y0135436D02*
X0088666Y0136187D01*
X0087165Y0136187D01*
X0086414Y0135436D01*
X0083293Y0175983D02*
X0081792Y0175983D01*
X0081041Y0176734D01*
X0081041Y0179736D01*
X0081792Y0180487D01*
X0083293Y0180487D01*
X0084044Y0179736D01*
X0084044Y0178235D02*
X0082542Y0178235D01*
X0084044Y0178235D02*
X0084044Y0176734D01*
X0083293Y0175983D01*
X0078899Y0205050D02*
X0078899Y0209554D01*
X0081901Y0209554D01*
X0080400Y0207302D02*
X0078899Y0207302D01*
X0077297Y0209554D02*
X0074295Y0209554D01*
X0074295Y0205050D01*
X0072693Y0205800D02*
X0072693Y0208803D01*
X0071943Y0209554D01*
X0070442Y0209554D01*
X0069691Y0208803D01*
X0069691Y0205800D01*
X0070442Y0205050D01*
X0071943Y0205050D01*
X0072693Y0205800D01*
X0074295Y0207302D02*
X0075796Y0207302D01*
X0068090Y0207302D02*
X0065087Y0207302D01*
X0063486Y0205050D02*
X0063486Y0209554D01*
X0060483Y0209554D02*
X0063486Y0205050D01*
X0060483Y0205050D02*
X0060483Y0209554D01*
X0058882Y0208803D02*
X0058131Y0209554D01*
X0056630Y0209554D01*
X0055879Y0208803D01*
X0055879Y0205800D01*
X0056630Y0205050D01*
X0058131Y0205050D01*
X0058882Y0205800D01*
X0058882Y0208803D01*
X0053347Y0211559D02*
X0053347Y0227307D01*
X0084843Y0227307D01*
X0084843Y0211559D01*
X0053347Y0211559D01*
X0042595Y0208933D02*
X0032595Y0208933D01*
X0032595Y0088933D01*
X0042595Y0088933D01*
X0042595Y0208933D01*
X0035095Y0219933D02*
X0035095Y0129933D01*
X0030095Y0129933D01*
X0030095Y0127933D02*
X0035095Y0127933D01*
X0035095Y0037933D01*
X0030095Y0037933D01*
X0112595Y0048933D02*
X0122595Y0048933D01*
X0122595Y0208933D01*
X0112595Y0208933D01*
X0112595Y0048933D01*
X0035095Y0219933D02*
X0030095Y0219933D01*
D17*
X0033597Y0219933D02*
X0040159Y0219933D01*
X0040095Y0219783D02*
X0040095Y0225170D01*
X0039847Y0225071D02*
X0039147Y0224671D01*
X0037147Y0226121D01*
X0036697Y0225771D01*
X0036197Y0225271D01*
X0035797Y0224821D01*
X0035547Y0224571D01*
X0036947Y0222521D01*
X0036647Y0222021D01*
X0036347Y0221371D01*
X0036197Y0220821D01*
X0036047Y0220471D01*
X0033597Y0220071D01*
X0033597Y0217871D01*
X0036047Y0217471D01*
X0036247Y0216771D01*
X0036397Y0216271D01*
X0036597Y0215871D01*
X0036947Y0215271D01*
X0035497Y0213271D01*
X0035897Y0212821D01*
X0036247Y0212471D01*
X0036697Y0212071D01*
X0037047Y0211771D01*
X0039097Y0213171D01*
X0040247Y0212571D01*
X0041647Y0216571D01*
X0041150Y0216820D01*
X0040718Y0217169D01*
X0040370Y0217603D01*
X0040124Y0218101D01*
X0039989Y0218641D01*
X0039974Y0219196D01*
X0040078Y0219742D01*
X0040296Y0220254D01*
X0040619Y0220706D01*
X0041031Y0221079D01*
X0041513Y0221356D01*
X0042043Y0221522D01*
X0042597Y0221571D01*
X0043133Y0221505D01*
X0043644Y0221332D01*
X0044109Y0221058D01*
X0044508Y0220694D01*
X0044825Y0220257D01*
X0045046Y0219765D01*
X0045162Y0219238D01*
X0045168Y0218698D01*
X0045063Y0218169D01*
X0044854Y0217672D01*
X0044547Y0217228D01*
X0044156Y0216856D01*
X0043697Y0216571D01*
X0045247Y0212671D01*
X0045847Y0212921D01*
X0046447Y0213321D01*
X0048447Y0211921D01*
X0048847Y0212271D01*
X0049197Y0212621D01*
X0049597Y0213071D01*
X0049947Y0213521D01*
X0048497Y0215621D01*
X0048847Y0216221D01*
X0049047Y0216821D01*
X0049247Y0217621D01*
X0051697Y0218071D01*
X0051697Y0219221D01*
X0051647Y0219771D01*
X0051597Y0220271D01*
X0049147Y0220721D01*
X0048947Y0221371D01*
X0048697Y0221921D01*
X0048347Y0222521D01*
X0048297Y0222621D01*
X0049697Y0224571D01*
X0049297Y0225071D01*
X0048797Y0225571D01*
X0048397Y0225921D01*
X0048047Y0226171D01*
X0045997Y0224721D01*
X0045547Y0224971D01*
X0045097Y0225171D01*
X0044647Y0225371D01*
X0044197Y0225471D01*
X0043747Y0227921D01*
X0043147Y0227971D01*
X0041997Y0227971D01*
X0041497Y0227921D01*
X0041097Y0225521D01*
X0040347Y0225271D01*
X0039847Y0225071D01*
X0039606Y0224933D02*
X0045616Y0224933D01*
X0045595Y0224944D02*
X0045595Y0212816D01*
X0045865Y0212933D02*
X0045143Y0212933D01*
X0045095Y0213054D02*
X0045095Y0218330D01*
X0045115Y0218433D02*
X0051697Y0218433D01*
X0051595Y0218052D02*
X0051595Y0220271D01*
X0051631Y0219933D02*
X0044970Y0219933D01*
X0045095Y0219540D02*
X0045095Y0225172D01*
X0044595Y0225383D02*
X0044595Y0220574D01*
X0044697Y0220433D02*
X0050715Y0220433D01*
X0050595Y0220455D02*
X0050595Y0217869D01*
X0050946Y0217933D02*
X0044964Y0217933D01*
X0044689Y0217433D02*
X0049200Y0217433D01*
X0049095Y0217013D02*
X0049095Y0220890D01*
X0049082Y0220933D02*
X0044245Y0220933D01*
X0044095Y0221066D02*
X0044095Y0226026D01*
X0044112Y0225933D02*
X0041166Y0225933D01*
X0041095Y0225520D02*
X0041095Y0221116D01*
X0040869Y0220933D02*
X0036228Y0220933D01*
X0036095Y0220583D02*
X0036095Y0217303D01*
X0036058Y0217433D02*
X0040506Y0217433D01*
X0040595Y0217322D02*
X0040595Y0213565D01*
X0040549Y0213433D02*
X0035615Y0213433D01*
X0035595Y0213406D02*
X0035595Y0213161D01*
X0035798Y0212933D02*
X0038749Y0212933D01*
X0038595Y0212828D02*
X0038595Y0225071D01*
X0038786Y0224933D02*
X0035897Y0224933D01*
X0036095Y0225156D02*
X0036095Y0223769D01*
X0035983Y0223933D02*
X0049239Y0223933D01*
X0049095Y0223733D02*
X0049095Y0225273D01*
X0048935Y0225433D02*
X0047004Y0225433D01*
X0047095Y0225498D02*
X0047095Y0212867D01*
X0047001Y0212933D02*
X0049474Y0212933D01*
X0049595Y0213069D02*
X0049595Y0214031D01*
X0049663Y0213933D02*
X0044746Y0213933D01*
X0044595Y0214312D02*
X0044595Y0217298D01*
X0044237Y0216933D02*
X0049075Y0216933D01*
X0048918Y0216433D02*
X0043752Y0216433D01*
X0044095Y0216818D02*
X0044095Y0215570D01*
X0044149Y0215433D02*
X0048627Y0215433D01*
X0048595Y0215479D02*
X0048595Y0212051D01*
X0048461Y0211933D02*
X0048430Y0211933D01*
X0048095Y0212167D02*
X0048095Y0226137D01*
X0048380Y0225933D02*
X0047711Y0225933D01*
X0047595Y0225851D02*
X0047595Y0212517D01*
X0047716Y0212433D02*
X0049009Y0212433D01*
X0049095Y0212519D02*
X0049095Y0214755D01*
X0048972Y0214933D02*
X0044348Y0214933D01*
X0044547Y0214433D02*
X0049317Y0214433D01*
X0049879Y0213433D02*
X0044944Y0213433D01*
X0046095Y0213086D02*
X0046095Y0224790D01*
X0046297Y0224933D02*
X0049408Y0224933D01*
X0049595Y0224699D02*
X0049595Y0224429D01*
X0049598Y0224433D02*
X0035641Y0224433D01*
X0035595Y0224501D02*
X0035595Y0224619D01*
X0036359Y0225433D02*
X0038096Y0225433D01*
X0038095Y0225434D02*
X0038095Y0212487D01*
X0038016Y0212433D02*
X0036290Y0212433D01*
X0036095Y0212623D02*
X0036095Y0214096D01*
X0035977Y0213933D02*
X0040724Y0213933D01*
X0040899Y0214433D02*
X0036340Y0214433D01*
X0036595Y0214786D02*
X0036595Y0212162D01*
X0036858Y0211933D02*
X0037284Y0211933D01*
X0037095Y0211804D02*
X0037095Y0226081D01*
X0036905Y0225933D02*
X0037406Y0225933D01*
X0037595Y0225796D02*
X0037595Y0212145D01*
X0039095Y0213170D02*
X0039095Y0224709D01*
X0039595Y0224927D02*
X0039595Y0212911D01*
X0039553Y0212933D02*
X0040374Y0212933D01*
X0040095Y0212650D02*
X0040095Y0218216D01*
X0040041Y0218433D02*
X0033597Y0218433D01*
X0033597Y0217933D02*
X0040207Y0217933D01*
X0039981Y0218933D02*
X0033597Y0218933D01*
X0033597Y0219433D02*
X0040019Y0219433D01*
X0040424Y0220433D02*
X0035814Y0220433D01*
X0035595Y0220397D02*
X0035595Y0217545D01*
X0035095Y0217627D02*
X0035095Y0220316D01*
X0034595Y0220234D02*
X0034595Y0217708D01*
X0034095Y0217790D02*
X0034095Y0220152D01*
X0036376Y0221433D02*
X0041760Y0221433D01*
X0041595Y0221381D02*
X0041595Y0227931D01*
X0041617Y0227933D02*
X0043603Y0227933D01*
X0043595Y0227934D02*
X0043595Y0221348D01*
X0043345Y0221433D02*
X0048919Y0221433D01*
X0048690Y0221933D02*
X0036607Y0221933D01*
X0036595Y0221908D02*
X0036595Y0215875D01*
X0036566Y0215933D02*
X0041424Y0215933D01*
X0041595Y0216422D02*
X0041595Y0216597D01*
X0041599Y0216433D02*
X0036349Y0216433D01*
X0036201Y0216933D02*
X0041010Y0216933D01*
X0041095Y0216864D02*
X0041095Y0214994D01*
X0041074Y0214933D02*
X0036702Y0214933D01*
X0036853Y0215433D02*
X0041249Y0215433D01*
X0043951Y0215933D02*
X0048679Y0215933D01*
X0048595Y0215789D02*
X0048595Y0222096D01*
X0048398Y0222433D02*
X0036894Y0222433D01*
X0036666Y0222933D02*
X0048521Y0222933D01*
X0048595Y0223036D02*
X0048595Y0225748D01*
X0048880Y0223433D02*
X0036324Y0223433D01*
X0036595Y0223037D02*
X0036595Y0225669D01*
X0040595Y0225354D02*
X0040595Y0220673D01*
X0042095Y0221527D02*
X0042095Y0227971D01*
X0042595Y0227971D02*
X0042595Y0221571D01*
X0043095Y0221510D02*
X0043095Y0227971D01*
X0043837Y0227433D02*
X0041416Y0227433D01*
X0041332Y0226933D02*
X0043929Y0226933D01*
X0044020Y0226433D02*
X0041249Y0226433D01*
X0040833Y0225433D02*
X0044368Y0225433D01*
X0046595Y0225144D02*
X0046595Y0213217D01*
X0049595Y0217685D02*
X0049595Y0220639D01*
X0050095Y0220547D02*
X0050095Y0217777D01*
X0051095Y0217960D02*
X0051095Y0220363D01*
X0051678Y0219433D02*
X0045119Y0219433D01*
X0045165Y0218933D02*
X0051697Y0218933D01*
X0057095Y0115633D02*
X0118095Y0115633D01*
D18*
X0115095Y0113983D03*
X0110095Y0113983D03*
X0105095Y0113983D03*
X0100095Y0113983D03*
X0095095Y0113983D03*
X0090095Y0113983D03*
X0085095Y0113983D03*
X0080095Y0113983D03*
X0075095Y0113983D03*
X0070095Y0113983D03*
X0065095Y0113983D03*
X0060095Y0113983D03*
X0060095Y0143883D03*
X0065095Y0143883D03*
X0070095Y0143883D03*
X0075095Y0143883D03*
X0080095Y0143883D03*
X0085095Y0143883D03*
X0090095Y0143883D03*
X0095095Y0143883D03*
X0100095Y0143883D03*
X0105095Y0143883D03*
X0110095Y0143883D03*
X0115095Y0143883D03*
D19*
X0093869Y0081884D02*
X0093369Y0081884D01*
X0093118Y0081634D01*
X0092646Y0081634D02*
X0092646Y0081134D01*
X0092396Y0080883D01*
X0091645Y0080883D01*
X0091645Y0080383D02*
X0091645Y0081884D01*
X0092396Y0081884D01*
X0092646Y0081634D01*
X0092146Y0080883D02*
X0092646Y0080383D01*
X0093118Y0080633D02*
X0093369Y0080383D01*
X0093869Y0080383D01*
X0094119Y0080633D01*
X0094119Y0080883D01*
X0093869Y0081134D01*
X0093619Y0081134D01*
X0093869Y0081134D02*
X0094119Y0081384D01*
X0094119Y0081634D01*
X0093869Y0081884D01*
X0093273Y0078384D02*
X0092272Y0078384D01*
X0092272Y0077634D01*
X0092772Y0077884D01*
X0093023Y0077884D01*
X0093273Y0077634D01*
X0093273Y0077133D01*
X0093023Y0076883D01*
X0092522Y0076883D01*
X0092272Y0077133D01*
X0091799Y0076883D02*
X0091299Y0077383D01*
X0091549Y0077383D02*
X0090799Y0077383D01*
X0090799Y0076883D02*
X0090799Y0078384D01*
X0091549Y0078384D01*
X0091799Y0078134D01*
X0091799Y0077634D01*
X0091549Y0077383D01*
X0082073Y0073134D02*
X0081823Y0073384D01*
X0081322Y0073384D01*
X0081072Y0073134D01*
X0080599Y0073384D02*
X0080099Y0073384D01*
X0080349Y0073384D02*
X0080349Y0072133D01*
X0080099Y0071883D01*
X0079849Y0071883D01*
X0079599Y0072133D01*
X0079126Y0072133D02*
X0078876Y0071883D01*
X0078376Y0071883D01*
X0078125Y0072133D01*
X0078376Y0072634D02*
X0078876Y0072634D01*
X0079126Y0072383D01*
X0079126Y0072133D01*
X0078376Y0072634D02*
X0078125Y0072884D01*
X0078125Y0073134D01*
X0078376Y0073384D01*
X0078876Y0073384D01*
X0079126Y0073134D01*
X0081072Y0071883D02*
X0082073Y0072884D01*
X0082073Y0073134D01*
X0082073Y0071883D02*
X0081072Y0071883D01*
X0080969Y0055684D02*
X0081219Y0055434D01*
X0081219Y0055184D01*
X0080969Y0054934D01*
X0080469Y0054934D01*
X0080218Y0055184D01*
X0080218Y0055434D01*
X0080469Y0055684D01*
X0080969Y0055684D01*
X0080969Y0054934D02*
X0081219Y0054683D01*
X0081219Y0054433D01*
X0080969Y0054183D01*
X0080469Y0054183D01*
X0080218Y0054433D01*
X0080218Y0054683D01*
X0080469Y0054934D01*
X0079746Y0054934D02*
X0079746Y0055434D01*
X0079496Y0055684D01*
X0078745Y0055684D01*
X0078745Y0054183D01*
X0078745Y0054683D02*
X0079496Y0054683D01*
X0079746Y0054934D01*
X0079246Y0054683D02*
X0079746Y0054183D01*
X0080072Y0046084D02*
X0081073Y0046084D01*
X0081073Y0045834D01*
X0080072Y0044833D01*
X0080072Y0044583D01*
X0079599Y0044833D02*
X0079349Y0044583D01*
X0078849Y0044583D01*
X0078599Y0044833D01*
X0078599Y0045834D01*
X0078849Y0046084D01*
X0079349Y0046084D01*
X0079599Y0045834D01*
X0079449Y0038934D02*
X0078949Y0038934D01*
X0078699Y0038684D01*
X0078699Y0037683D01*
X0078949Y0037433D01*
X0079449Y0037433D01*
X0079699Y0037683D01*
X0080172Y0037683D02*
X0080422Y0037433D01*
X0080923Y0037433D01*
X0081173Y0037683D01*
X0081173Y0038184D01*
X0080923Y0038434D01*
X0080672Y0038434D01*
X0080172Y0038184D01*
X0080172Y0038934D01*
X0081173Y0038934D01*
X0079699Y0038684D02*
X0079449Y0038934D01*
X0078896Y0031684D02*
X0078145Y0031684D01*
X0078145Y0030183D01*
X0078145Y0030683D02*
X0078896Y0030683D01*
X0079146Y0030934D01*
X0079146Y0031434D01*
X0078896Y0031684D01*
X0079618Y0031184D02*
X0080119Y0031684D01*
X0080119Y0030183D01*
X0080619Y0030183D02*
X0079618Y0030183D01*
X0079146Y0030183D02*
X0078646Y0030683D01*
X0081092Y0030433D02*
X0082092Y0031434D01*
X0082092Y0030433D01*
X0081842Y0030183D01*
X0081342Y0030183D01*
X0081092Y0030433D01*
X0081092Y0031434D01*
X0081342Y0031684D01*
X0081842Y0031684D01*
X0082092Y0031434D01*
X0102900Y0040486D02*
X0104401Y0040486D01*
X0104401Y0041487D01*
X0117244Y0052533D02*
X0117494Y0052283D01*
X0118495Y0052283D01*
X0118745Y0052533D01*
X0118745Y0053034D01*
X0118495Y0053284D01*
X0118495Y0053756D02*
X0118245Y0053756D01*
X0117995Y0054007D01*
X0117995Y0054507D01*
X0118245Y0054757D01*
X0118495Y0054757D01*
X0118745Y0054507D01*
X0118745Y0054007D01*
X0118495Y0053756D01*
X0117995Y0054007D02*
X0117744Y0053756D01*
X0117494Y0053756D01*
X0117244Y0054007D01*
X0117244Y0054507D01*
X0117494Y0054757D01*
X0117744Y0054757D01*
X0117995Y0054507D01*
X0117494Y0053284D02*
X0117244Y0053034D01*
X0117244Y0052533D01*
X0119844Y0069937D02*
X0119844Y0070687D01*
X0120094Y0070937D01*
X0120595Y0070937D01*
X0120845Y0070687D01*
X0120845Y0069937D01*
X0120845Y0070437D02*
X0121345Y0070937D01*
X0120595Y0071410D02*
X0119844Y0072160D01*
X0121345Y0072160D01*
X0120595Y0072411D02*
X0120595Y0071410D01*
X0121345Y0069937D02*
X0119844Y0069937D01*
X0111945Y0070134D02*
X0111695Y0070384D01*
X0111945Y0070134D02*
X0111945Y0069633D01*
X0111695Y0069383D01*
X0110694Y0069383D01*
X0110444Y0069633D01*
X0110444Y0070134D01*
X0110694Y0070384D01*
X0111195Y0070856D02*
X0111195Y0071607D01*
X0111445Y0071857D01*
X0111695Y0071857D01*
X0111945Y0071607D01*
X0111945Y0071107D01*
X0111695Y0070856D01*
X0111195Y0070856D01*
X0110694Y0071357D01*
X0110444Y0071857D01*
D20*
X0105595Y0064633D02*
X0105595Y0062033D01*
X0105595Y0055533D02*
X0105595Y0052933D01*
X0109195Y0057933D02*
X0116395Y0057933D01*
X0116395Y0059533D01*
X0109195Y0059533D01*
X0109195Y0057933D01*
X0099638Y0045657D02*
X0102001Y0043295D01*
X0102001Y0038571D01*
X0099638Y0036209D01*
X0092552Y0036209D02*
X0090686Y0038263D01*
X0090603Y0038356D01*
X0090523Y0038451D01*
X0090445Y0038550D01*
X0090371Y0038650D01*
X0090301Y0038753D01*
X0090233Y0038858D01*
X0090169Y0038965D01*
X0090108Y0039074D01*
X0090051Y0039185D01*
X0089998Y0039298D01*
X0089947Y0039413D01*
X0089901Y0039528D01*
X0089858Y0039646D01*
X0089819Y0039764D01*
X0089784Y0039884D01*
X0089753Y0040005D01*
X0089725Y0040127D01*
X0089702Y0040250D01*
X0089682Y0040373D01*
X0089666Y0040497D01*
X0089654Y0040621D01*
X0089646Y0040746D01*
X0089642Y0040871D01*
X0089642Y0040995D01*
X0089646Y0041120D01*
X0089654Y0041245D01*
X0089666Y0041369D01*
X0089682Y0041493D01*
X0089702Y0041616D01*
X0089725Y0041739D01*
X0089753Y0041861D01*
X0089784Y0041982D01*
X0089819Y0042102D01*
X0089858Y0042220D01*
X0089901Y0042338D01*
X0089947Y0042453D01*
X0089998Y0042568D01*
X0090051Y0042681D01*
X0090108Y0042792D01*
X0090169Y0042901D01*
X0090233Y0043008D01*
X0090301Y0043113D01*
X0090371Y0043216D01*
X0090445Y0043316D01*
X0090523Y0043415D01*
X0090603Y0043510D01*
X0090686Y0043603D01*
X0090686Y0043604D02*
X0092552Y0045657D01*
X0092205Y0051843D02*
X0093190Y0052828D01*
X0092595Y0062033D02*
X0092595Y0064633D01*
X0095095Y0169433D02*
X0088095Y0169433D01*
X0088095Y0184433D01*
X0095095Y0184433D01*
X0095095Y0169433D01*
X0096595Y0169433D02*
X0103595Y0169433D01*
X0103595Y0184433D01*
X0096595Y0184433D01*
X0096595Y0169433D01*
X0105095Y0169433D02*
X0105095Y0184433D01*
X0112095Y0184433D01*
X0112095Y0169433D01*
X0105095Y0169433D01*
X0113595Y0169433D02*
X0113595Y0184433D01*
X0120595Y0184433D01*
X0120595Y0169433D01*
X0113595Y0169433D01*
X0118438Y0193028D02*
X0118438Y0196177D01*
X0118438Y0201689D02*
X0118438Y0204839D01*
X0106595Y0207933D02*
X0106595Y0214933D01*
X0091595Y0214933D01*
X0091595Y0207933D01*
X0106595Y0207933D01*
X0098753Y0204839D02*
X0098753Y0201689D01*
X0098753Y0196177D02*
X0098753Y0193028D01*
X0094595Y0191433D02*
X0087595Y0191433D01*
X0087595Y0206433D01*
X0094595Y0206433D01*
X0094595Y0191433D01*
D21*
X0107875Y0074833D02*
X0108115Y0074833D01*
X0083995Y0048753D02*
X0083995Y0048513D01*
D22*
X0117295Y0074833D03*
D23*
X0096595Y0084333D03*
X0096195Y0074433D03*
X0084195Y0058133D03*
X0083095Y0034133D03*
D24*
X0096193Y0194996D02*
X0096195Y0195044D01*
X0096201Y0195092D01*
X0096211Y0195139D01*
X0096224Y0195185D01*
X0096242Y0195230D01*
X0096262Y0195274D01*
X0096287Y0195316D01*
X0096315Y0195355D01*
X0096345Y0195392D01*
X0096379Y0195426D01*
X0096416Y0195458D01*
X0096454Y0195487D01*
X0096495Y0195512D01*
X0096538Y0195534D01*
X0096583Y0195552D01*
X0096629Y0195566D01*
X0096676Y0195577D01*
X0096724Y0195584D01*
X0096772Y0195587D01*
X0096820Y0195586D01*
X0096868Y0195581D01*
X0096916Y0195572D01*
X0096962Y0195560D01*
X0097007Y0195543D01*
X0097051Y0195523D01*
X0097093Y0195500D01*
X0097133Y0195473D01*
X0097171Y0195443D01*
X0097206Y0195410D01*
X0097238Y0195374D01*
X0097268Y0195336D01*
X0097294Y0195295D01*
X0097316Y0195252D01*
X0097336Y0195208D01*
X0097351Y0195163D01*
X0097363Y0195116D01*
X0097371Y0195068D01*
X0097375Y0195020D01*
X0097375Y0194972D01*
X0097371Y0194924D01*
X0097363Y0194876D01*
X0097351Y0194829D01*
X0097336Y0194784D01*
X0097316Y0194740D01*
X0097294Y0194697D01*
X0097268Y0194656D01*
X0097238Y0194618D01*
X0097206Y0194582D01*
X0097171Y0194549D01*
X0097133Y0194519D01*
X0097093Y0194492D01*
X0097051Y0194469D01*
X0097007Y0194449D01*
X0096962Y0194432D01*
X0096916Y0194420D01*
X0096868Y0194411D01*
X0096820Y0194406D01*
X0096772Y0194405D01*
X0096724Y0194408D01*
X0096676Y0194415D01*
X0096629Y0194426D01*
X0096583Y0194440D01*
X0096538Y0194458D01*
X0096495Y0194480D01*
X0096454Y0194505D01*
X0096416Y0194534D01*
X0096379Y0194566D01*
X0096345Y0194600D01*
X0096315Y0194637D01*
X0096287Y0194676D01*
X0096262Y0194718D01*
X0096242Y0194762D01*
X0096224Y0194807D01*
X0096211Y0194853D01*
X0096201Y0194900D01*
X0096195Y0194948D01*
X0096193Y0194996D01*
D25*
X0061709Y0175704D03*
X0057959Y0188204D03*
D26*
X0054959Y0190954D03*
X0058209Y0194204D03*
X0061709Y0175787D03*
D27*
X0061709Y0175870D03*
X0065789Y0177870D03*
X0055379Y0180370D03*
D28*
X0055209Y0181287D03*
X0061709Y0175954D03*
D29*
X0061709Y0176037D03*
D30*
X0061754Y0176120D03*
X0055084Y0183120D03*
D31*
X0061879Y0176204D03*
D32*
X0062004Y0176287D03*
D33*
X0062084Y0176370D03*
D34*
X0062209Y0176454D03*
D35*
X0062294Y0176537D03*
D36*
X0062419Y0176620D03*
D37*
X0062499Y0176704D03*
D38*
X0062584Y0176787D03*
D39*
X0062669Y0176870D03*
D40*
X0056794Y0176954D03*
D41*
X0062749Y0176954D03*
D42*
X0056709Y0177037D03*
D43*
X0062834Y0177037D03*
D44*
X0056629Y0177120D03*
X0054459Y0185870D03*
D45*
X0062914Y0177120D03*
D46*
X0056584Y0177204D03*
D47*
X0062954Y0177204D03*
D48*
X0056544Y0177287D03*
X0054544Y0185787D03*
D49*
X0063039Y0177287D03*
D50*
X0056499Y0177370D03*
D51*
X0063124Y0177370D03*
D52*
X0056419Y0177454D03*
X0059169Y0190204D03*
D53*
X0063209Y0177454D03*
D54*
X0056374Y0177537D03*
X0054624Y0185704D03*
X0052374Y0187204D03*
X0063374Y0195454D03*
D55*
X0063254Y0177537D03*
D56*
X0056329Y0177620D03*
D57*
X0063294Y0177620D03*
D58*
X0056289Y0177704D03*
X0058879Y0189704D03*
D59*
X0061959Y0186787D03*
X0061709Y0185704D03*
X0061459Y0184537D03*
X0062209Y0187954D03*
X0062709Y0190287D03*
X0063209Y0192537D03*
X0070209Y0188704D03*
X0070459Y0183537D03*
X0070459Y0183454D03*
X0070209Y0182704D03*
X0060209Y0178787D03*
X0059959Y0177704D03*
D60*
X0065209Y0177704D03*
X0055209Y0181454D03*
X0055209Y0181537D03*
D61*
X0056249Y0177787D03*
D62*
X0059999Y0177787D03*
X0059999Y0177954D03*
X0060249Y0178954D03*
X0060249Y0179037D03*
X0060499Y0180037D03*
X0060499Y0180204D03*
X0060499Y0180287D03*
X0060749Y0181204D03*
X0060749Y0181287D03*
X0060999Y0182287D03*
X0060999Y0182454D03*
X0060999Y0182537D03*
X0061249Y0183454D03*
X0061249Y0183537D03*
X0061249Y0183704D03*
X0061499Y0184704D03*
X0061499Y0184787D03*
X0061749Y0185787D03*
X0061749Y0185954D03*
X0061999Y0186954D03*
X0061999Y0187037D03*
X0062249Y0188037D03*
X0062249Y0188204D03*
X0062249Y0188287D03*
X0062499Y0189204D03*
X0062499Y0189287D03*
X0062499Y0189454D03*
X0062749Y0190454D03*
X0062749Y0190537D03*
X0062999Y0191454D03*
X0062999Y0191537D03*
X0062999Y0191704D03*
X0063249Y0192704D03*
X0063249Y0192787D03*
X0070499Y0187787D03*
X0070499Y0187704D03*
X0070499Y0187537D03*
X0070499Y0183787D03*
X0070499Y0183704D03*
D63*
X0065544Y0177787D03*
X0055294Y0180787D03*
D64*
X0056209Y0177870D03*
D65*
X0059999Y0177870D03*
X0060249Y0178870D03*
X0060249Y0179120D03*
X0060499Y0180120D03*
X0060749Y0181370D03*
X0060999Y0182370D03*
X0061249Y0183620D03*
X0061499Y0184620D03*
X0061499Y0184870D03*
X0061749Y0185870D03*
X0061999Y0186870D03*
X0061999Y0187120D03*
X0062249Y0188120D03*
X0062499Y0189370D03*
X0062749Y0190370D03*
X0062999Y0191620D03*
X0063249Y0192620D03*
X0063249Y0192870D03*
X0070499Y0187620D03*
X0070499Y0183620D03*
D66*
X0058624Y0189287D03*
X0052874Y0188037D03*
X0056124Y0177954D03*
D67*
X0066044Y0177954D03*
D68*
X0070629Y0184287D03*
X0070709Y0184954D03*
X0070709Y0185037D03*
X0070709Y0185204D03*
X0070709Y0185287D03*
X0070709Y0185454D03*
X0070709Y0185537D03*
X0070709Y0185704D03*
X0070709Y0185787D03*
X0070709Y0185954D03*
X0070709Y0186037D03*
X0070709Y0186204D03*
X0070709Y0186287D03*
X0070709Y0186454D03*
X0070629Y0187037D03*
X0058459Y0189037D03*
X0058039Y0187037D03*
X0053039Y0188287D03*
X0052959Y0188204D03*
X0056129Y0178037D03*
D69*
X0056044Y0178204D03*
X0060044Y0178037D03*
X0060294Y0179204D03*
X0060454Y0179954D03*
X0060794Y0181454D03*
X0061294Y0183787D03*
X0061544Y0184954D03*
X0061794Y0186037D03*
X0062044Y0187204D03*
X0062544Y0189537D03*
X0063044Y0191787D03*
X0063294Y0192954D03*
X0063794Y0195204D03*
X0070294Y0188537D03*
X0070294Y0188454D03*
X0070294Y0182954D03*
D70*
X0066209Y0178037D03*
X0055459Y0180037D03*
D71*
X0056084Y0178120D03*
X0060084Y0178120D03*
X0060084Y0178370D03*
X0060334Y0179370D03*
X0060414Y0179620D03*
X0060414Y0179870D03*
X0060584Y0180620D03*
X0060834Y0181620D03*
X0061084Y0182870D03*
X0061334Y0183870D03*
X0061584Y0185120D03*
X0061834Y0186120D03*
X0061834Y0186370D03*
X0062084Y0187370D03*
X0062334Y0188620D03*
X0062584Y0189620D03*
X0062834Y0190870D03*
X0063084Y0191870D03*
X0063084Y0192120D03*
X0063334Y0193120D03*
X0070584Y0187370D03*
X0070584Y0187120D03*
X0070584Y0184120D03*
X0070584Y0183870D03*
X0053084Y0188370D03*
D72*
X0055959Y0192120D03*
X0056209Y0192370D03*
X0056459Y0192620D03*
X0056709Y0192870D03*
X0056959Y0193120D03*
X0057209Y0193370D03*
X0055459Y0179870D03*
X0066379Y0178120D03*
D73*
X0070334Y0183037D03*
X0070584Y0183954D03*
X0070584Y0184037D03*
X0070584Y0184204D03*
X0070584Y0187204D03*
X0070584Y0187287D03*
X0070584Y0187454D03*
X0070334Y0188287D03*
X0063334Y0193037D03*
X0063084Y0192037D03*
X0063084Y0191954D03*
X0062834Y0190954D03*
X0062834Y0190787D03*
X0062834Y0190704D03*
X0062584Y0189787D03*
X0062584Y0189704D03*
X0062334Y0188537D03*
X0062334Y0188454D03*
X0062084Y0187537D03*
X0062084Y0187454D03*
X0062084Y0187287D03*
X0061834Y0186287D03*
X0061834Y0186204D03*
X0061584Y0185204D03*
X0061584Y0185037D03*
X0061334Y0184037D03*
X0061334Y0183954D03*
X0061084Y0182954D03*
X0061084Y0182787D03*
X0061084Y0182704D03*
X0060834Y0181787D03*
X0060834Y0181704D03*
X0060834Y0181537D03*
X0060584Y0180537D03*
X0060584Y0180454D03*
X0060414Y0179787D03*
X0060414Y0179704D03*
X0060334Y0179454D03*
X0060334Y0179287D03*
X0060084Y0178287D03*
X0060084Y0178204D03*
D74*
X0055499Y0179787D03*
X0066499Y0178204D03*
D75*
X0055999Y0178287D03*
D76*
X0055584Y0179537D03*
X0055164Y0191204D03*
X0055254Y0191287D03*
X0057914Y0193954D03*
X0058004Y0194037D03*
X0066664Y0193037D03*
X0066664Y0178287D03*
D77*
X0069709Y0189870D03*
X0055959Y0178370D03*
D78*
X0066794Y0178370D03*
D79*
X0069039Y0180454D03*
X0069209Y0180704D03*
X0069289Y0180787D03*
X0069379Y0180954D03*
X0069289Y0190537D03*
X0059789Y0195204D03*
X0053459Y0188954D03*
X0055959Y0178454D03*
D80*
X0060124Y0178454D03*
X0060374Y0179537D03*
X0060624Y0180704D03*
X0061124Y0183037D03*
X0061624Y0185287D03*
X0061874Y0186454D03*
X0062374Y0188704D03*
X0062874Y0191037D03*
X0063124Y0192204D03*
X0070374Y0188204D03*
X0070374Y0183204D03*
X0070124Y0182454D03*
X0054874Y0185454D03*
X0053124Y0188454D03*
D81*
X0066919Y0178454D03*
D82*
X0068919Y0180287D03*
X0069079Y0180537D03*
X0068919Y0191037D03*
X0055919Y0178537D03*
D83*
X0060169Y0178537D03*
X0060169Y0178704D03*
X0060669Y0180787D03*
X0060669Y0180954D03*
X0060669Y0181037D03*
X0060919Y0181954D03*
X0060919Y0182037D03*
X0060919Y0182204D03*
X0061169Y0183204D03*
X0061169Y0183287D03*
X0061419Y0184204D03*
X0061419Y0184287D03*
X0061419Y0184454D03*
X0061669Y0185454D03*
X0061669Y0185537D03*
X0061919Y0186537D03*
X0061919Y0186704D03*
X0062169Y0187704D03*
X0062169Y0187787D03*
X0062419Y0188787D03*
X0062419Y0188954D03*
X0062419Y0189037D03*
X0062669Y0189954D03*
X0062669Y0190037D03*
X0062669Y0190204D03*
X0062919Y0191204D03*
X0062919Y0191287D03*
X0063169Y0192287D03*
X0063169Y0192454D03*
X0058419Y0188954D03*
X0070419Y0188037D03*
X0070419Y0187954D03*
X0070669Y0186954D03*
X0070669Y0186787D03*
X0070669Y0186704D03*
X0070669Y0186537D03*
X0070669Y0184787D03*
X0070669Y0184704D03*
X0070669Y0184537D03*
X0070669Y0184454D03*
X0070419Y0183287D03*
D84*
X0067039Y0178537D03*
X0064379Y0194704D03*
X0058539Y0194454D03*
D85*
X0059624Y0195120D03*
X0068624Y0191370D03*
X0055874Y0178620D03*
D86*
X0060169Y0178620D03*
X0060669Y0180870D03*
X0060919Y0182120D03*
X0061169Y0183120D03*
X0061419Y0184370D03*
X0061669Y0185370D03*
X0061669Y0185620D03*
X0061919Y0186620D03*
X0062169Y0187870D03*
X0062419Y0188870D03*
X0062669Y0190120D03*
X0062919Y0191120D03*
X0063169Y0192370D03*
X0070669Y0186870D03*
X0070669Y0186620D03*
X0070669Y0184620D03*
X0070669Y0184370D03*
X0070419Y0183370D03*
D87*
X0067169Y0178620D03*
X0054669Y0190620D03*
D88*
X0053664Y0189287D03*
X0055834Y0178704D03*
X0068414Y0179704D03*
X0068584Y0191454D03*
D89*
X0064294Y0194787D03*
X0054544Y0190454D03*
X0067294Y0178704D03*
D90*
X0068084Y0191954D03*
X0059334Y0194954D03*
X0057834Y0188037D03*
X0055834Y0178787D03*
D91*
X0057504Y0187454D03*
X0057504Y0187537D03*
X0054414Y0190287D03*
X0054334Y0190204D03*
X0058914Y0194704D03*
X0067414Y0192537D03*
X0067414Y0178787D03*
D92*
X0067959Y0192120D03*
X0057709Y0187870D03*
X0055789Y0178870D03*
D93*
X0055664Y0179120D03*
X0057584Y0187620D03*
X0067504Y0178870D03*
D94*
X0067749Y0179037D03*
X0067749Y0192287D03*
X0055749Y0178954D03*
D95*
X0055124Y0185204D03*
X0057624Y0187704D03*
X0067624Y0178954D03*
D96*
X0055709Y0179037D03*
X0054209Y0190037D03*
D97*
X0057584Y0187370D03*
X0067834Y0179120D03*
D98*
X0058669Y0194537D03*
X0055669Y0179287D03*
X0055669Y0179204D03*
D99*
X0057669Y0187787D03*
X0054169Y0189954D03*
X0067919Y0179204D03*
D100*
X0067999Y0179287D03*
X0068249Y0179537D03*
X0067999Y0192037D03*
D101*
X0066959Y0192870D03*
X0058459Y0194370D03*
X0055209Y0185120D03*
X0055629Y0179370D03*
D102*
X0068084Y0179370D03*
D103*
X0058334Y0194287D03*
X0054834Y0190787D03*
X0055584Y0179454D03*
D104*
X0068169Y0179454D03*
D105*
X0066544Y0193120D03*
X0057794Y0193870D03*
X0055544Y0191620D03*
X0055544Y0179620D03*
D106*
X0057914Y0188120D03*
X0053754Y0189370D03*
X0068334Y0179620D03*
X0068584Y0179870D03*
X0068414Y0191620D03*
D107*
X0064544Y0194537D03*
X0055294Y0185037D03*
X0055544Y0179704D03*
D108*
X0068499Y0179787D03*
X0068499Y0191537D03*
D109*
X0055499Y0179954D03*
D110*
X0053624Y0189204D03*
X0068624Y0179954D03*
D111*
X0068704Y0180037D03*
X0068794Y0191204D03*
X0068704Y0191287D03*
X0064044Y0195037D03*
D112*
X0055414Y0180120D03*
D113*
X0068794Y0180120D03*
D114*
X0055414Y0180204D03*
D115*
X0057834Y0187204D03*
X0068834Y0180204D03*
D116*
X0055374Y0180287D03*
D117*
X0060544Y0180370D03*
X0061044Y0182620D03*
X0062294Y0188370D03*
X0062794Y0190620D03*
X0070294Y0188370D03*
X0070294Y0182870D03*
D118*
X0068999Y0180370D03*
D119*
X0064789Y0194204D03*
X0055379Y0180454D03*
D120*
X0055334Y0180537D03*
D121*
X0055334Y0180620D03*
D122*
X0069124Y0180620D03*
D123*
X0055334Y0180704D03*
X0055504Y0184787D03*
D124*
X0055294Y0180870D03*
D125*
X0069334Y0180870D03*
D126*
X0055249Y0180954D03*
X0055249Y0181037D03*
D127*
X0069419Y0181037D03*
X0069669Y0181454D03*
X0069419Y0190287D03*
D128*
X0064999Y0193870D03*
X0055249Y0181120D03*
D129*
X0060709Y0181120D03*
X0061209Y0183370D03*
X0062459Y0189120D03*
X0062959Y0191370D03*
X0070209Y0188620D03*
X0070459Y0187870D03*
X0070209Y0182620D03*
D130*
X0069499Y0181120D03*
D131*
X0055249Y0181204D03*
D132*
X0053294Y0188704D03*
X0058294Y0188704D03*
X0069544Y0181204D03*
X0069794Y0181704D03*
X0069794Y0189704D03*
D133*
X0069584Y0190037D03*
X0069334Y0190454D03*
X0069584Y0181287D03*
X0058164Y0188537D03*
X0053334Y0188787D03*
D134*
X0055209Y0181370D03*
D135*
X0069624Y0181370D03*
X0069874Y0181870D03*
D136*
X0069959Y0182037D03*
X0069709Y0181537D03*
X0069709Y0189787D03*
X0059959Y0195287D03*
D137*
X0055669Y0184620D03*
X0055169Y0181620D03*
D138*
X0058204Y0188620D03*
X0069544Y0190120D03*
X0069794Y0189620D03*
X0069794Y0181620D03*
D139*
X0055169Y0181704D03*
X0055169Y0181787D03*
D140*
X0053164Y0188537D03*
X0058334Y0188787D03*
X0069834Y0189537D03*
X0070004Y0189287D03*
X0070004Y0189204D03*
X0070084Y0189037D03*
X0070084Y0188954D03*
X0070164Y0188787D03*
X0070254Y0182787D03*
X0070164Y0182537D03*
X0070084Y0182287D03*
X0070004Y0182204D03*
X0069914Y0181954D03*
X0069834Y0181787D03*
D141*
X0055169Y0181870D03*
D142*
X0058374Y0188870D03*
X0060124Y0195370D03*
X0062624Y0189870D03*
X0062124Y0187620D03*
X0061374Y0184120D03*
X0060874Y0181870D03*
X0070374Y0183120D03*
X0070374Y0188120D03*
X0070124Y0188870D03*
D143*
X0065169Y0193537D03*
X0055169Y0181954D03*
D144*
X0055124Y0182037D03*
X0055624Y0184454D03*
D145*
X0055124Y0182120D03*
D146*
X0057914Y0187120D03*
X0053254Y0188620D03*
X0069914Y0189370D03*
X0070004Y0189120D03*
X0070084Y0182370D03*
X0070004Y0182120D03*
D147*
X0055164Y0182204D03*
D148*
X0055124Y0182287D03*
X0055124Y0182454D03*
D149*
X0055124Y0182370D03*
D150*
X0055084Y0182537D03*
D151*
X0055129Y0182620D03*
X0055459Y0184120D03*
D152*
X0055379Y0184037D03*
X0055129Y0182704D03*
X0065289Y0193287D03*
D153*
X0065334Y0193204D03*
X0055334Y0183954D03*
X0055084Y0182954D03*
X0055084Y0182787D03*
D154*
X0055084Y0182870D03*
D155*
X0055124Y0183037D03*
D156*
X0055084Y0183204D03*
X0055084Y0183287D03*
X0055164Y0183704D03*
X0055254Y0183787D03*
D157*
X0055124Y0183620D03*
X0055124Y0183370D03*
D158*
X0055084Y0183454D03*
X0055084Y0183537D03*
D159*
X0055294Y0183870D03*
D160*
X0055499Y0184204D03*
D161*
X0055544Y0184287D03*
D162*
X0055584Y0184370D03*
D163*
X0055709Y0184537D03*
X0065209Y0193454D03*
D164*
X0055584Y0184704D03*
D165*
X0055419Y0184870D03*
D166*
X0058539Y0189120D03*
X0070709Y0186370D03*
X0070709Y0186120D03*
X0070709Y0185870D03*
X0070709Y0185620D03*
X0070709Y0185370D03*
X0070709Y0185120D03*
X0070709Y0184870D03*
D167*
X0064584Y0194454D03*
X0055334Y0184954D03*
D168*
X0055044Y0185287D03*
X0053794Y0189454D03*
X0068294Y0191787D03*
D169*
X0069039Y0190870D03*
X0069209Y0190620D03*
X0054959Y0185370D03*
D170*
X0054794Y0185537D03*
D171*
X0054709Y0185620D03*
X0052629Y0187620D03*
X0058289Y0186870D03*
D172*
X0058834Y0186454D03*
X0059834Y0191287D03*
X0054414Y0185954D03*
X0051834Y0186204D03*
D173*
X0051749Y0186037D03*
D174*
X0051794Y0186120D03*
D175*
X0051874Y0186287D03*
D176*
X0051919Y0186370D03*
D177*
X0051959Y0186454D03*
X0058709Y0186537D03*
X0059709Y0191037D03*
D178*
X0051999Y0186537D03*
D179*
X0052044Y0186620D03*
D180*
X0058624Y0186620D03*
D181*
X0059504Y0190704D03*
X0052084Y0186704D03*
D182*
X0058499Y0186704D03*
D183*
X0059374Y0190537D03*
X0052124Y0186787D03*
D184*
X0052414Y0187287D03*
X0058414Y0186787D03*
X0059084Y0190037D03*
D185*
X0052169Y0186870D03*
D186*
X0052209Y0186954D03*
X0052289Y0187037D03*
D187*
X0052834Y0187954D03*
X0058164Y0186954D03*
X0058754Y0189454D03*
D188*
X0052334Y0187120D03*
D189*
X0057709Y0187287D03*
X0059459Y0195037D03*
D190*
X0052459Y0187370D03*
D191*
X0052499Y0187454D03*
D192*
X0052584Y0187537D03*
D193*
X0052669Y0187704D03*
D194*
X0052709Y0187787D03*
D195*
X0052754Y0187870D03*
X0058664Y0189370D03*
D196*
X0057789Y0187954D03*
X0054039Y0189787D03*
X0053959Y0189704D03*
D197*
X0052919Y0188120D03*
D198*
X0053499Y0189037D03*
X0057999Y0188287D03*
X0068999Y0190954D03*
D199*
X0058079Y0188370D03*
X0053579Y0189120D03*
D200*
X0058124Y0188454D03*
X0069124Y0190704D03*
X0069124Y0190787D03*
D201*
X0069419Y0190370D03*
X0063919Y0195120D03*
X0053419Y0188870D03*
D202*
X0058584Y0189204D03*
D203*
X0069624Y0189954D03*
X0069874Y0189454D03*
D204*
X0068374Y0191704D03*
X0064124Y0194954D03*
X0053874Y0189537D03*
D205*
X0058794Y0189537D03*
D206*
X0053919Y0189620D03*
X0068169Y0191870D03*
D207*
X0063584Y0195370D03*
X0058834Y0189620D03*
D208*
X0058919Y0189787D03*
D209*
X0059169Y0194870D03*
X0054079Y0189870D03*
D210*
X0058999Y0189870D03*
D211*
X0059044Y0189954D03*
D212*
X0054294Y0190120D03*
D213*
X0059124Y0190120D03*
D214*
X0069499Y0190204D03*
D215*
X0059249Y0190287D03*
D216*
X0054459Y0190370D03*
D217*
X0059289Y0190370D03*
D218*
X0059334Y0190454D03*
D219*
X0054584Y0190537D03*
X0067084Y0192787D03*
D220*
X0059459Y0190620D03*
D221*
X0054749Y0190704D03*
D222*
X0059544Y0190787D03*
D223*
X0054919Y0190870D03*
D224*
X0059584Y0190870D03*
D225*
X0059624Y0190954D03*
D226*
X0055044Y0191037D03*
X0066794Y0192954D03*
D227*
X0058124Y0194120D03*
X0055124Y0191120D03*
D228*
X0059749Y0191120D03*
D229*
X0068834Y0191120D03*
D230*
X0059794Y0191204D03*
D231*
X0055334Y0191370D03*
D232*
X0059914Y0191370D03*
X0062914Y0195620D03*
D233*
X0055374Y0191454D03*
D234*
X0059959Y0191454D03*
D235*
X0057709Y0193787D03*
X0055459Y0191537D03*
D236*
X0055584Y0191704D03*
X0055834Y0191954D03*
X0057334Y0193454D03*
X0057414Y0193537D03*
D237*
X0057579Y0193704D03*
X0055919Y0192037D03*
X0055669Y0191787D03*
D238*
X0055749Y0191870D03*
X0057499Y0193620D03*
D239*
X0057129Y0193287D03*
X0057039Y0193204D03*
X0056789Y0192954D03*
X0056629Y0192787D03*
X0056539Y0192704D03*
X0056379Y0192537D03*
X0056289Y0192454D03*
X0056129Y0192287D03*
X0056039Y0192204D03*
D240*
X0067834Y0192204D03*
D241*
X0067624Y0192370D03*
D242*
X0067544Y0192454D03*
X0059044Y0194787D03*
D243*
X0058794Y0194620D03*
X0067294Y0192620D03*
D244*
X0067209Y0192704D03*
D245*
X0056874Y0193037D03*
D246*
X0065294Y0193370D03*
D247*
X0065129Y0193620D03*
D248*
X0065084Y0193704D03*
D249*
X0065044Y0193787D03*
D250*
X0064914Y0193954D03*
D251*
X0064874Y0194037D03*
D252*
X0064829Y0194120D03*
D253*
X0064709Y0194287D03*
D254*
X0064624Y0194370D03*
D255*
X0064459Y0194620D03*
D256*
X0064209Y0194870D03*
D257*
X0063709Y0195287D03*
D258*
X0060329Y0195454D03*
D259*
X0060584Y0195537D03*
D260*
X0063209Y0195537D03*
D261*
X0060919Y0195620D03*
D262*
G36*
X0062553Y0091206D02*
X0061892Y0091307D01*
X0061917Y0091470D01*
X0062578Y0091369D01*
X0062553Y0091206D01*
G37*
G36*
X0071592Y0054416D02*
X0070931Y0054517D01*
X0070956Y0054680D01*
X0071617Y0054579D01*
X0071592Y0054416D01*
G37*
G36*
X0055565Y0035624D02*
X0054904Y0035725D01*
X0054929Y0035888D01*
X0055590Y0035787D01*
X0055565Y0035624D01*
G37*
D263*
G36*
X0055590Y0035788D02*
X0054267Y0035990D01*
X0054292Y0036154D01*
X0055615Y0035952D01*
X0055590Y0035788D01*
G37*
D264*
G36*
X0055774Y0035929D02*
X0053798Y0036231D01*
X0053824Y0036395D01*
X0055800Y0036093D01*
X0055774Y0035929D01*
G37*
G36*
X0062946Y0090471D02*
X0060970Y0090773D01*
X0060996Y0090937D01*
X0062972Y0090635D01*
X0062946Y0090471D01*
G37*
D265*
G36*
X0055800Y0036093D02*
X0053171Y0036495D01*
X0053196Y0036659D01*
X0055825Y0036257D01*
X0055800Y0036093D01*
G37*
D266*
G36*
X0068649Y0034128D02*
X0067998Y0034227D01*
X0068023Y0034390D01*
X0068674Y0034291D01*
X0068649Y0034128D01*
G37*
D267*
G36*
X0069330Y0038575D02*
X0066207Y0039052D01*
X0066232Y0039217D01*
X0069355Y0038740D01*
X0069330Y0038575D01*
G37*
G36*
X0069356Y0038740D02*
X0066233Y0039217D01*
X0066258Y0039382D01*
X0069381Y0038905D01*
X0069356Y0038740D01*
G37*
G36*
X0069406Y0039069D02*
X0066283Y0039546D01*
X0066308Y0039711D01*
X0069431Y0039234D01*
X0069406Y0039069D01*
G37*
G36*
X0069214Y0041122D02*
X0066091Y0041599D01*
X0066116Y0041764D01*
X0069239Y0041287D01*
X0069214Y0041122D01*
G37*
G36*
X0069240Y0041287D02*
X0066117Y0041764D01*
X0066142Y0041929D01*
X0069265Y0041452D01*
X0069240Y0041287D01*
G37*
G36*
X0069290Y0041616D02*
X0066167Y0042093D01*
X0066192Y0042258D01*
X0069315Y0041781D01*
X0069290Y0041616D01*
G37*
G36*
X0069315Y0041781D02*
X0066192Y0042258D01*
X0066217Y0042423D01*
X0069340Y0041946D01*
X0069315Y0041781D01*
G37*
G36*
X0069174Y0044163D02*
X0066051Y0044640D01*
X0066076Y0044805D01*
X0069199Y0044328D01*
X0069174Y0044163D01*
G37*
G36*
X0069199Y0044328D02*
X0066076Y0044805D01*
X0066101Y0044970D01*
X0069224Y0044493D01*
X0069199Y0044328D01*
G37*
G36*
X0069250Y0044657D02*
X0066127Y0045134D01*
X0066152Y0045299D01*
X0069275Y0044822D01*
X0069250Y0044657D01*
G37*
G36*
X0069275Y0044822D02*
X0066152Y0045299D01*
X0066177Y0045464D01*
X0069300Y0044987D01*
X0069275Y0044822D01*
G37*
G36*
X0069058Y0046710D02*
X0065935Y0047187D01*
X0065960Y0047352D01*
X0069083Y0046875D01*
X0069058Y0046710D01*
G37*
G36*
X0073410Y0055318D02*
X0070287Y0055795D01*
X0070312Y0055960D01*
X0073435Y0055483D01*
X0073410Y0055318D01*
G37*
G36*
X0066157Y0060811D02*
X0063034Y0061288D01*
X0063059Y0061453D01*
X0066182Y0060976D01*
X0066157Y0060811D01*
G37*
G36*
X0066183Y0060976D02*
X0063060Y0061453D01*
X0063085Y0061618D01*
X0066208Y0061141D01*
X0066183Y0060976D01*
G37*
G36*
X0066233Y0061305D02*
X0063110Y0061782D01*
X0063135Y0061947D01*
X0066258Y0061470D01*
X0066233Y0061305D01*
G37*
G36*
X0066258Y0061470D02*
X0063135Y0061947D01*
X0063160Y0062112D01*
X0066283Y0061635D01*
X0066258Y0061470D01*
G37*
G36*
X0066107Y0060482D02*
X0062984Y0060959D01*
X0063009Y0061124D01*
X0066132Y0060647D01*
X0066107Y0060482D01*
G37*
G36*
X0066082Y0060316D02*
X0062959Y0060793D01*
X0062984Y0060958D01*
X0066107Y0060481D01*
X0066082Y0060316D01*
G37*
G36*
X0066031Y0059987D02*
X0062908Y0060464D01*
X0062933Y0060629D01*
X0066056Y0060152D01*
X0066031Y0059987D01*
G37*
G36*
X0066006Y0059822D02*
X0062883Y0060299D01*
X0062908Y0060464D01*
X0066031Y0059987D01*
X0066006Y0059822D01*
G37*
G36*
X0065956Y0059493D02*
X0062833Y0059970D01*
X0062858Y0060135D01*
X0065981Y0059658D01*
X0065956Y0059493D01*
G37*
G36*
X0065930Y0059328D02*
X0062807Y0059805D01*
X0062832Y0059970D01*
X0065955Y0059493D01*
X0065930Y0059328D01*
G37*
G36*
X0065880Y0058999D02*
X0062757Y0059476D01*
X0062782Y0059641D01*
X0065905Y0059164D01*
X0065880Y0058999D01*
G37*
G36*
X0065855Y0058834D02*
X0062732Y0059311D01*
X0062757Y0059476D01*
X0065880Y0058999D01*
X0065855Y0058834D01*
G37*
G36*
X0063682Y0051242D02*
X0060559Y0051719D01*
X0060584Y0051884D01*
X0063707Y0051407D01*
X0063682Y0051242D01*
G37*
G36*
X0063656Y0051077D02*
X0060533Y0051554D01*
X0060558Y0051719D01*
X0063681Y0051242D01*
X0063656Y0051077D01*
G37*
G36*
X0063606Y0050748D02*
X0060483Y0051225D01*
X0060508Y0051390D01*
X0063631Y0050913D01*
X0063606Y0050748D01*
G37*
G36*
X0062809Y0048847D02*
X0059686Y0049324D01*
X0059711Y0049489D01*
X0062834Y0049012D01*
X0062809Y0048847D01*
G37*
G36*
X0062784Y0048681D02*
X0059661Y0049158D01*
X0059686Y0049323D01*
X0062809Y0048846D01*
X0062784Y0048681D01*
G37*
G36*
X0062733Y0048352D02*
X0059610Y0048829D01*
X0059635Y0048994D01*
X0062758Y0048517D01*
X0062733Y0048352D01*
G37*
G36*
X0059051Y0057346D02*
X0055928Y0057823D01*
X0055953Y0057988D01*
X0059076Y0057511D01*
X0059051Y0057346D01*
G37*
G36*
X0059077Y0057511D02*
X0055954Y0057988D01*
X0055979Y0058153D01*
X0059102Y0057676D01*
X0059077Y0057511D01*
G37*
G36*
X0058935Y0059893D02*
X0055812Y0060370D01*
X0055837Y0060535D01*
X0058960Y0060058D01*
X0058935Y0059893D01*
G37*
G36*
X0058961Y0060058D02*
X0055838Y0060535D01*
X0055863Y0060700D01*
X0058986Y0060223D01*
X0058961Y0060058D01*
G37*
G36*
X0059011Y0060387D02*
X0055888Y0060864D01*
X0055913Y0061029D01*
X0059036Y0060552D01*
X0059011Y0060387D01*
G37*
G36*
X0059036Y0060552D02*
X0055913Y0061029D01*
X0055938Y0061194D01*
X0059061Y0060717D01*
X0059036Y0060552D01*
G37*
G36*
X0059087Y0060881D02*
X0055964Y0061358D01*
X0055989Y0061523D01*
X0059112Y0061046D01*
X0059087Y0060881D01*
G37*
G36*
X0059112Y0061046D02*
X0055989Y0061523D01*
X0056014Y0061688D01*
X0059137Y0061211D01*
X0059112Y0061046D01*
G37*
G36*
X0059162Y0061375D02*
X0056039Y0061852D01*
X0056064Y0062017D01*
X0059187Y0061540D01*
X0059162Y0061375D01*
G37*
G36*
X0059188Y0061540D02*
X0056065Y0062017D01*
X0056090Y0062182D01*
X0059213Y0061705D01*
X0059188Y0061540D01*
G37*
G36*
X0059238Y0061870D02*
X0056115Y0062347D01*
X0056140Y0062512D01*
X0059263Y0062035D01*
X0059238Y0061870D01*
G37*
G36*
X0059263Y0062035D02*
X0056140Y0062512D01*
X0056165Y0062677D01*
X0059288Y0062200D01*
X0059263Y0062035D01*
G37*
G36*
X0059314Y0062364D02*
X0056191Y0062841D01*
X0056216Y0063006D01*
X0059339Y0062529D01*
X0059314Y0062364D01*
G37*
G36*
X0059339Y0062529D02*
X0056216Y0063006D01*
X0056241Y0063171D01*
X0059364Y0062694D01*
X0059339Y0062529D01*
G37*
G36*
X0067277Y0071431D02*
X0064154Y0071908D01*
X0064179Y0072073D01*
X0067302Y0071596D01*
X0067277Y0071431D01*
G37*
G36*
X0063595Y0080424D02*
X0060472Y0080901D01*
X0060497Y0081066D01*
X0063620Y0080589D01*
X0063595Y0080424D01*
G37*
G36*
X0063620Y0080589D02*
X0060497Y0081066D01*
X0060522Y0081231D01*
X0063645Y0080754D01*
X0063620Y0080589D01*
G37*
G36*
X0063670Y0080918D02*
X0060547Y0081395D01*
X0060572Y0081560D01*
X0063695Y0081083D01*
X0063670Y0080918D01*
G37*
G36*
X0063695Y0081083D02*
X0060572Y0081560D01*
X0060597Y0081725D01*
X0063720Y0081248D01*
X0063695Y0081083D01*
G37*
G36*
X0063544Y0080095D02*
X0060421Y0080572D01*
X0060446Y0080737D01*
X0063569Y0080260D01*
X0063544Y0080095D01*
G37*
G36*
X0063519Y0079930D02*
X0060396Y0080407D01*
X0060421Y0080572D01*
X0063544Y0080095D01*
X0063519Y0079930D01*
G37*
G36*
X0063469Y0079601D02*
X0060346Y0080078D01*
X0060371Y0080243D01*
X0063494Y0079766D01*
X0063469Y0079601D01*
G37*
G36*
X0063443Y0079436D02*
X0060320Y0079913D01*
X0060345Y0080078D01*
X0063468Y0079601D01*
X0063443Y0079436D01*
G37*
G36*
X0063393Y0079106D02*
X0060270Y0079583D01*
X0060295Y0079748D01*
X0063418Y0079271D01*
X0063393Y0079106D01*
G37*
G36*
X0061062Y0093626D02*
X0057939Y0094103D01*
X0057964Y0094268D01*
X0061087Y0093791D01*
X0061062Y0093626D01*
G37*
G36*
X0080021Y0075381D02*
X0076898Y0075858D01*
X0076923Y0076023D01*
X0080046Y0075546D01*
X0080021Y0075381D01*
G37*
G36*
X0080046Y0075546D02*
X0076923Y0076023D01*
X0076948Y0076188D01*
X0080071Y0075711D01*
X0080046Y0075546D01*
G37*
G36*
X0084494Y0074866D02*
X0081371Y0075343D01*
X0081396Y0075508D01*
X0084519Y0075031D01*
X0084494Y0074866D01*
G37*
G36*
X0084469Y0074701D02*
X0081346Y0075178D01*
X0081371Y0075343D01*
X0084494Y0074866D01*
X0084469Y0074701D01*
G37*
G36*
X0084545Y0075195D02*
X0081422Y0075672D01*
X0081447Y0075837D01*
X0084570Y0075360D01*
X0084545Y0075195D01*
G37*
G36*
X0084570Y0075360D02*
X0081447Y0075837D01*
X0081472Y0076002D01*
X0084595Y0075525D01*
X0084570Y0075360D01*
G37*
G36*
X0084620Y0075689D02*
X0081497Y0076166D01*
X0081522Y0076331D01*
X0084645Y0075854D01*
X0084620Y0075689D01*
G37*
G36*
X0084646Y0075854D02*
X0081523Y0076331D01*
X0081548Y0076496D01*
X0084671Y0076019D01*
X0084646Y0075854D01*
G37*
G36*
X0084948Y0077831D02*
X0081825Y0078308D01*
X0081850Y0078473D01*
X0084973Y0077996D01*
X0084948Y0077831D01*
G37*
G36*
X0084998Y0078160D02*
X0081875Y0078637D01*
X0081900Y0078802D01*
X0085023Y0078325D01*
X0084998Y0078160D01*
G37*
G36*
X0085024Y0078326D02*
X0081901Y0078803D01*
X0081926Y0078968D01*
X0085049Y0078491D01*
X0085024Y0078326D01*
G37*
G36*
X0085074Y0078655D02*
X0081951Y0079132D01*
X0081976Y0079297D01*
X0085099Y0078820D01*
X0085074Y0078655D01*
G37*
G36*
X0085099Y0078820D02*
X0081976Y0079297D01*
X0082001Y0079462D01*
X0085124Y0078985D01*
X0085099Y0078820D01*
G37*
G36*
X0084958Y0081202D02*
X0081835Y0081679D01*
X0081860Y0081844D01*
X0084983Y0081367D01*
X0084958Y0081202D01*
G37*
G36*
X0083687Y0086117D02*
X0080564Y0086594D01*
X0080589Y0086759D01*
X0083712Y0086282D01*
X0083687Y0086117D01*
G37*
G36*
X0080727Y0079995D02*
X0077604Y0080472D01*
X0077629Y0080637D01*
X0080752Y0080160D01*
X0080727Y0079995D01*
G37*
G36*
X0080702Y0079830D02*
X0077579Y0080307D01*
X0077604Y0080472D01*
X0080727Y0079995D01*
X0080702Y0079830D01*
G37*
G36*
X0080651Y0079500D02*
X0077528Y0079977D01*
X0077553Y0080142D01*
X0080676Y0079665D01*
X0080651Y0079500D01*
G37*
G36*
X0055825Y0036258D02*
X0052702Y0036735D01*
X0052727Y0036900D01*
X0055850Y0036423D01*
X0055825Y0036258D01*
G37*
D268*
G36*
X0069169Y0034217D02*
X0067856Y0034417D01*
X0067881Y0034581D01*
X0069194Y0034381D01*
X0069169Y0034217D01*
G37*
G36*
X0058536Y0083728D02*
X0057223Y0083928D01*
X0057248Y0084092D01*
X0058561Y0083892D01*
X0058536Y0083728D01*
G37*
G36*
X0062661Y0090853D02*
X0061348Y0091053D01*
X0061373Y0091217D01*
X0062686Y0091017D01*
X0062661Y0090853D01*
G37*
G36*
X0054834Y0085981D02*
X0053521Y0086181D01*
X0053546Y0086345D01*
X0054859Y0086145D01*
X0054834Y0085981D01*
G37*
G36*
X0083318Y0087017D02*
X0082005Y0087217D01*
X0082030Y0087381D01*
X0083343Y0087181D01*
X0083318Y0087017D01*
G37*
D269*
G36*
X0074570Y0081612D02*
X0070785Y0082190D01*
X0070810Y0082354D01*
X0074595Y0081776D01*
X0074570Y0081612D01*
G37*
G36*
X0062364Y0065776D02*
X0058579Y0066354D01*
X0058604Y0066518D01*
X0062389Y0065940D01*
X0062364Y0065776D01*
G37*
G36*
X0061963Y0065331D02*
X0058178Y0065909D01*
X0058203Y0066073D01*
X0061988Y0065495D01*
X0061963Y0065331D01*
G37*
G36*
X0068933Y0048079D02*
X0065148Y0048657D01*
X0065173Y0048821D01*
X0068958Y0048243D01*
X0068933Y0048079D01*
G37*
G36*
X0073679Y0055951D02*
X0069894Y0056529D01*
X0069919Y0056693D01*
X0073704Y0056115D01*
X0073679Y0055951D01*
G37*
G36*
X0061261Y0087189D02*
X0057476Y0087767D01*
X0057501Y0087931D01*
X0061286Y0087353D01*
X0061261Y0087189D01*
G37*
G36*
X0058011Y0090215D02*
X0054226Y0090793D01*
X0054251Y0090957D01*
X0058036Y0090379D01*
X0058011Y0090215D01*
G37*
G36*
X0057609Y0089771D02*
X0053824Y0090349D01*
X0053849Y0090513D01*
X0057634Y0089935D01*
X0057609Y0089771D01*
G37*
G36*
X0055850Y0036423D02*
X0052065Y0037001D01*
X0052090Y0037165D01*
X0055875Y0036587D01*
X0055850Y0036423D01*
G37*
D270*
G36*
X0069857Y0034280D02*
X0067554Y0034632D01*
X0067579Y0034796D01*
X0069882Y0034444D01*
X0069857Y0034280D01*
G37*
G36*
X0079624Y0084885D02*
X0077321Y0085237D01*
X0077346Y0085401D01*
X0079649Y0085049D01*
X0079624Y0084885D01*
G37*
D271*
G36*
X0065892Y0083277D02*
X0061771Y0083907D01*
X0061796Y0084071D01*
X0065917Y0083441D01*
X0065892Y0083277D01*
G37*
G36*
X0064833Y0076357D02*
X0060712Y0076987D01*
X0060737Y0077151D01*
X0064858Y0076521D01*
X0064833Y0076357D01*
G37*
G36*
X0059537Y0091331D02*
X0055416Y0091961D01*
X0055441Y0092125D01*
X0059562Y0091495D01*
X0059537Y0091331D01*
G37*
G36*
X0066105Y0054918D02*
X0061984Y0055548D01*
X0062009Y0055712D01*
X0066130Y0055082D01*
X0066105Y0054918D01*
G37*
G36*
X0066080Y0054753D02*
X0061959Y0055383D01*
X0061984Y0055547D01*
X0066105Y0054917D01*
X0066080Y0054753D01*
G37*
G36*
X0056068Y0036727D02*
X0051947Y0037357D01*
X0051972Y0037521D01*
X0056093Y0036891D01*
X0056068Y0036727D01*
G37*
G36*
X0056043Y0036562D02*
X0051922Y0037192D01*
X0051947Y0037356D01*
X0056068Y0036726D01*
X0056043Y0036562D01*
G37*
D272*
G36*
X0062231Y0047249D02*
X0059098Y0047727D01*
X0059123Y0047891D01*
X0062256Y0047413D01*
X0062231Y0047249D01*
G37*
G36*
X0062475Y0047718D02*
X0059342Y0048196D01*
X0059367Y0048360D01*
X0062500Y0047882D01*
X0062475Y0047718D01*
G37*
G36*
X0062500Y0047883D02*
X0059367Y0048361D01*
X0059392Y0048525D01*
X0062525Y0048047D01*
X0062500Y0047883D01*
G37*
G36*
X0062550Y0048212D02*
X0059417Y0048690D01*
X0059442Y0048854D01*
X0062575Y0048376D01*
X0062550Y0048212D01*
G37*
G36*
X0063028Y0049151D02*
X0059895Y0049629D01*
X0059920Y0049793D01*
X0063053Y0049315D01*
X0063028Y0049151D01*
G37*
G36*
X0063053Y0049316D02*
X0059920Y0049794D01*
X0059945Y0049958D01*
X0063078Y0049480D01*
X0063053Y0049316D01*
G37*
G36*
X0063103Y0049645D02*
X0059970Y0050123D01*
X0059995Y0050287D01*
X0063128Y0049809D01*
X0063103Y0049645D01*
G37*
G36*
X0063347Y0050114D02*
X0060214Y0050592D01*
X0060239Y0050756D01*
X0063372Y0050278D01*
X0063347Y0050114D01*
G37*
G36*
X0063372Y0050279D02*
X0060239Y0050757D01*
X0060264Y0050921D01*
X0063397Y0050443D01*
X0063372Y0050279D01*
G37*
G36*
X0063423Y0050608D02*
X0060290Y0051086D01*
X0060315Y0051250D01*
X0063448Y0050772D01*
X0063423Y0050608D01*
G37*
G36*
X0063128Y0049810D02*
X0059995Y0050288D01*
X0060020Y0050452D01*
X0063153Y0049974D01*
X0063128Y0049810D01*
G37*
G36*
X0062256Y0047414D02*
X0059123Y0047892D01*
X0059148Y0048056D01*
X0062281Y0047578D01*
X0062256Y0047414D01*
G37*
G36*
X0069176Y0046356D02*
X0066043Y0046834D01*
X0066068Y0046998D01*
X0069201Y0046520D01*
X0069176Y0046356D01*
G37*
G36*
X0069268Y0045836D02*
X0066135Y0046314D01*
X0066160Y0046478D01*
X0069293Y0046000D01*
X0069268Y0045836D01*
G37*
G36*
X0069243Y0045671D02*
X0066110Y0046149D01*
X0066135Y0046313D01*
X0069268Y0045835D01*
X0069243Y0045671D01*
G37*
G36*
X0069192Y0045341D02*
X0066059Y0045819D01*
X0066084Y0045983D01*
X0069217Y0045505D01*
X0069192Y0045341D01*
G37*
G36*
X0069167Y0045176D02*
X0066034Y0045654D01*
X0066059Y0045818D01*
X0069192Y0045340D01*
X0069167Y0045176D01*
G37*
G36*
X0069292Y0043809D02*
X0066159Y0044287D01*
X0066184Y0044451D01*
X0069317Y0043973D01*
X0069292Y0043809D01*
G37*
G36*
X0069266Y0043644D02*
X0066133Y0044122D01*
X0066158Y0044286D01*
X0069291Y0043808D01*
X0069266Y0043644D01*
G37*
G36*
X0069308Y0042795D02*
X0066175Y0043273D01*
X0066200Y0043437D01*
X0069333Y0042959D01*
X0069308Y0042795D01*
G37*
G36*
X0069283Y0042629D02*
X0066150Y0043107D01*
X0066175Y0043271D01*
X0069308Y0042793D01*
X0069283Y0042629D01*
G37*
G36*
X0069233Y0042300D02*
X0066100Y0042778D01*
X0066125Y0042942D01*
X0069258Y0042464D01*
X0069233Y0042300D01*
G37*
G36*
X0069208Y0042135D02*
X0066075Y0042613D01*
X0066100Y0042777D01*
X0069233Y0042299D01*
X0069208Y0042135D01*
G37*
G36*
X0069332Y0040768D02*
X0066199Y0041246D01*
X0066224Y0041410D01*
X0069357Y0040932D01*
X0069332Y0040768D01*
G37*
G36*
X0069307Y0040603D02*
X0066174Y0041081D01*
X0066199Y0041245D01*
X0069332Y0040767D01*
X0069307Y0040603D01*
G37*
G36*
X0069349Y0039753D02*
X0066216Y0040231D01*
X0066241Y0040395D01*
X0069374Y0039917D01*
X0069349Y0039753D01*
G37*
G36*
X0069324Y0039588D02*
X0066191Y0040066D01*
X0066216Y0040230D01*
X0069349Y0039752D01*
X0069324Y0039588D01*
G37*
G36*
X0069273Y0039259D02*
X0066140Y0039737D01*
X0066165Y0039901D01*
X0069298Y0039423D01*
X0069273Y0039259D01*
G37*
G36*
X0069448Y0038221D02*
X0066315Y0038699D01*
X0066340Y0038863D01*
X0069473Y0038385D01*
X0069448Y0038221D01*
G37*
G36*
X0069515Y0037536D02*
X0066382Y0038014D01*
X0066407Y0038178D01*
X0069540Y0037700D01*
X0069515Y0037536D01*
G37*
G36*
X0069423Y0038056D02*
X0066290Y0038534D01*
X0066315Y0038698D01*
X0069448Y0038220D01*
X0069423Y0038056D01*
G37*
G36*
X0069231Y0040108D02*
X0066098Y0040586D01*
X0066123Y0040750D01*
X0069256Y0040272D01*
X0069231Y0040108D01*
G37*
G36*
X0069256Y0040273D02*
X0066123Y0040751D01*
X0066148Y0040915D01*
X0069281Y0040437D01*
X0069256Y0040273D01*
G37*
G36*
X0069191Y0043149D02*
X0066058Y0043627D01*
X0066083Y0043791D01*
X0069216Y0043313D01*
X0069191Y0043149D01*
G37*
G36*
X0069216Y0043315D02*
X0066083Y0043793D01*
X0066108Y0043957D01*
X0069241Y0043479D01*
X0069216Y0043315D01*
G37*
G36*
X0069150Y0046191D02*
X0066017Y0046669D01*
X0066042Y0046833D01*
X0069175Y0046355D01*
X0069150Y0046191D01*
G37*
G36*
X0065670Y0056503D02*
X0062537Y0056981D01*
X0062562Y0057145D01*
X0065695Y0056667D01*
X0065670Y0056503D01*
G37*
G36*
X0065720Y0056832D02*
X0062587Y0057310D01*
X0062612Y0057474D01*
X0065745Y0056996D01*
X0065720Y0056832D01*
G37*
G36*
X0065746Y0056997D02*
X0062613Y0057475D01*
X0062638Y0057639D01*
X0065771Y0057161D01*
X0065746Y0056997D01*
G37*
G36*
X0065796Y0057326D02*
X0062663Y0057804D01*
X0062688Y0057968D01*
X0065821Y0057490D01*
X0065796Y0057326D01*
G37*
G36*
X0065821Y0057491D02*
X0062688Y0057969D01*
X0062713Y0058133D01*
X0065846Y0057655D01*
X0065821Y0057491D01*
G37*
G36*
X0066302Y0062813D02*
X0063169Y0063291D01*
X0063194Y0063455D01*
X0066327Y0062977D01*
X0066302Y0062813D01*
G37*
G36*
X0066327Y0062978D02*
X0063194Y0063456D01*
X0063219Y0063620D01*
X0066352Y0063142D01*
X0066327Y0062978D01*
G37*
G36*
X0066377Y0063307D02*
X0063244Y0063785D01*
X0063269Y0063949D01*
X0066402Y0063471D01*
X0066377Y0063307D01*
G37*
G36*
X0066403Y0063472D02*
X0063270Y0063950D01*
X0063295Y0064114D01*
X0066428Y0063636D01*
X0066403Y0063472D01*
G37*
G36*
X0066453Y0063801D02*
X0063320Y0064279D01*
X0063345Y0064443D01*
X0066478Y0063965D01*
X0066453Y0063801D01*
G37*
G36*
X0066478Y0063966D02*
X0063345Y0064444D01*
X0063370Y0064608D01*
X0066503Y0064130D01*
X0066478Y0063966D01*
G37*
G36*
X0074359Y0076923D02*
X0071226Y0077401D01*
X0071251Y0077565D01*
X0074384Y0077087D01*
X0074359Y0076923D01*
G37*
G36*
X0074603Y0077392D02*
X0071470Y0077870D01*
X0071495Y0078034D01*
X0074628Y0077556D01*
X0074603Y0077392D01*
G37*
G36*
X0074653Y0077721D02*
X0071520Y0078199D01*
X0071545Y0078363D01*
X0074678Y0077885D01*
X0074653Y0077721D01*
G37*
G36*
X0074678Y0077886D02*
X0071545Y0078364D01*
X0071570Y0078528D01*
X0074703Y0078050D01*
X0074678Y0077886D01*
G37*
G36*
X0074729Y0078215D02*
X0071596Y0078693D01*
X0071621Y0078857D01*
X0074754Y0078379D01*
X0074729Y0078215D01*
G37*
G36*
X0074754Y0078380D02*
X0071621Y0078858D01*
X0071646Y0079022D01*
X0074779Y0078544D01*
X0074754Y0078380D01*
G37*
G36*
X0074804Y0078710D02*
X0071671Y0079188D01*
X0071696Y0079352D01*
X0074829Y0078874D01*
X0074804Y0078710D01*
G37*
G36*
X0074829Y0078875D02*
X0071696Y0079353D01*
X0071721Y0079517D01*
X0074854Y0079039D01*
X0074829Y0078875D01*
G37*
G36*
X0074880Y0079204D02*
X0071747Y0079682D01*
X0071772Y0079846D01*
X0074905Y0079368D01*
X0074880Y0079204D01*
G37*
G36*
X0074905Y0079369D02*
X0071772Y0079847D01*
X0071797Y0080011D01*
X0074930Y0079533D01*
X0074905Y0079369D01*
G37*
G36*
X0074787Y0079724D02*
X0071654Y0080202D01*
X0071679Y0080366D01*
X0074812Y0079888D01*
X0074787Y0079724D01*
G37*
G36*
X0074813Y0079889D02*
X0071680Y0080367D01*
X0071705Y0080531D01*
X0074838Y0080053D01*
X0074813Y0079889D01*
G37*
G36*
X0080619Y0080349D02*
X0077486Y0080827D01*
X0077511Y0080991D01*
X0080644Y0080513D01*
X0080619Y0080349D01*
G37*
G36*
X0080794Y0079310D02*
X0077661Y0079788D01*
X0077686Y0079952D01*
X0080819Y0079474D01*
X0080794Y0079310D01*
G37*
G36*
X0080744Y0078981D02*
X0077611Y0079459D01*
X0077636Y0079623D01*
X0080769Y0079145D01*
X0080744Y0078981D01*
G37*
G36*
X0080718Y0078816D02*
X0077585Y0079294D01*
X0077610Y0079458D01*
X0080743Y0078980D01*
X0080718Y0078816D01*
G37*
G36*
X0080668Y0078487D02*
X0077535Y0078965D01*
X0077560Y0079129D01*
X0080693Y0078651D01*
X0080668Y0078487D01*
G37*
G36*
X0080643Y0078322D02*
X0077510Y0078800D01*
X0077535Y0078964D01*
X0080668Y0078486D01*
X0080643Y0078322D01*
G37*
G36*
X0080441Y0077004D02*
X0077308Y0077482D01*
X0077333Y0077646D01*
X0080466Y0077168D01*
X0080441Y0077004D01*
G37*
G36*
X0080416Y0076839D02*
X0077283Y0077317D01*
X0077308Y0077481D01*
X0080441Y0077003D01*
X0080416Y0076839D01*
G37*
G36*
X0080365Y0076510D02*
X0077232Y0076988D01*
X0077257Y0077152D01*
X0080390Y0076674D01*
X0080365Y0076510D01*
G37*
G36*
X0080340Y0076345D02*
X0077207Y0076823D01*
X0077232Y0076987D01*
X0080365Y0076509D01*
X0080340Y0076345D01*
G37*
G36*
X0080290Y0076016D02*
X0077157Y0076494D01*
X0077182Y0076658D01*
X0080315Y0076180D01*
X0080290Y0076016D01*
G37*
G36*
X0080265Y0075851D02*
X0077132Y0076329D01*
X0077157Y0076493D01*
X0080290Y0076015D01*
X0080265Y0075851D01*
G37*
G36*
X0085017Y0079339D02*
X0081884Y0079817D01*
X0081909Y0079981D01*
X0085042Y0079503D01*
X0085017Y0079339D01*
G37*
G36*
X0085067Y0079668D02*
X0081934Y0080146D01*
X0081959Y0080310D01*
X0085092Y0079832D01*
X0085067Y0079668D01*
G37*
G36*
X0085093Y0079833D02*
X0081960Y0080311D01*
X0081985Y0080475D01*
X0085118Y0079997D01*
X0085093Y0079833D01*
G37*
G36*
X0084975Y0080188D02*
X0081842Y0080666D01*
X0081867Y0080830D01*
X0085000Y0080352D01*
X0084975Y0080188D01*
G37*
G36*
X0085000Y0080353D02*
X0081867Y0080831D01*
X0081892Y0080995D01*
X0085025Y0080517D01*
X0085000Y0080353D01*
G37*
G36*
X0085050Y0080682D02*
X0081917Y0081160D01*
X0081942Y0081324D01*
X0085075Y0080846D01*
X0085050Y0080682D01*
G37*
G36*
X0084876Y0081721D02*
X0081743Y0082199D01*
X0081768Y0082363D01*
X0084901Y0081885D01*
X0084876Y0081721D01*
G37*
G36*
X0084783Y0082241D02*
X0081650Y0082719D01*
X0081675Y0082883D01*
X0084808Y0082405D01*
X0084783Y0082241D01*
G37*
G36*
X0080552Y0081034D02*
X0077419Y0081512D01*
X0077444Y0081676D01*
X0080577Y0081198D01*
X0080552Y0081034D01*
G37*
G36*
X0080644Y0080514D02*
X0077511Y0080992D01*
X0077536Y0081156D01*
X0080669Y0080678D01*
X0080644Y0080514D01*
G37*
G36*
X0063939Y0081553D02*
X0060806Y0082031D01*
X0060831Y0082195D01*
X0063964Y0081717D01*
X0063939Y0081553D01*
G37*
G36*
X0063914Y0081388D02*
X0060781Y0081866D01*
X0060806Y0082030D01*
X0063939Y0081552D01*
X0063914Y0081388D01*
G37*
G36*
X0063485Y0078587D02*
X0060352Y0079065D01*
X0060377Y0079229D01*
X0063510Y0078751D01*
X0063485Y0078587D01*
G37*
G36*
X0058805Y0084362D02*
X0055672Y0084840D01*
X0055697Y0085004D01*
X0058830Y0084526D01*
X0058805Y0084362D01*
G37*
G36*
X0055128Y0086779D02*
X0051995Y0087257D01*
X0052020Y0087421D01*
X0055153Y0086943D01*
X0055128Y0086779D01*
G37*
G36*
X0059583Y0062998D02*
X0056450Y0063476D01*
X0056475Y0063640D01*
X0059608Y0063162D01*
X0059583Y0062998D01*
G37*
G36*
X0059557Y0062833D02*
X0056424Y0063311D01*
X0056449Y0063475D01*
X0059582Y0062997D01*
X0059557Y0062833D01*
G37*
G36*
X0059053Y0059538D02*
X0055920Y0060016D01*
X0055945Y0060180D01*
X0059078Y0059702D01*
X0059053Y0059538D01*
G37*
G36*
X0059028Y0059373D02*
X0055895Y0059851D01*
X0055920Y0060015D01*
X0059053Y0059537D01*
X0059028Y0059373D01*
G37*
G36*
X0059070Y0058524D02*
X0055937Y0059002D01*
X0055962Y0059166D01*
X0059095Y0058688D01*
X0059070Y0058524D01*
G37*
G36*
X0059045Y0058359D02*
X0055912Y0058837D01*
X0055937Y0059001D01*
X0059070Y0058523D01*
X0059045Y0058359D01*
G37*
G36*
X0058994Y0058030D02*
X0055861Y0058508D01*
X0055886Y0058672D01*
X0059019Y0058194D01*
X0058994Y0058030D01*
G37*
G36*
X0058969Y0057865D02*
X0055836Y0058343D01*
X0055861Y0058507D01*
X0058994Y0058029D01*
X0058969Y0057865D01*
G37*
G36*
X0059144Y0056827D02*
X0056011Y0057305D01*
X0056036Y0057469D01*
X0059169Y0056991D01*
X0059144Y0056827D01*
G37*
G36*
X0058952Y0058879D02*
X0055819Y0059357D01*
X0055844Y0059521D01*
X0058977Y0059043D01*
X0058952Y0058879D01*
G37*
G36*
X0058977Y0059044D02*
X0055844Y0059522D01*
X0055869Y0059686D01*
X0059002Y0059208D01*
X0058977Y0059044D01*
G37*
G36*
X0070544Y0034343D02*
X0067411Y0034821D01*
X0067436Y0034985D01*
X0070569Y0034507D01*
X0070544Y0034343D01*
G37*
D273*
G36*
X0071064Y0034433D02*
X0067269Y0035013D01*
X0067294Y0035177D01*
X0071089Y0034597D01*
X0071064Y0034433D01*
G37*
G36*
X0069051Y0047723D02*
X0065256Y0048303D01*
X0065281Y0048467D01*
X0069076Y0047887D01*
X0069051Y0047723D01*
G37*
G36*
X0068289Y0049357D02*
X0064494Y0049937D01*
X0064519Y0050101D01*
X0068314Y0049521D01*
X0068289Y0049357D01*
G37*
G36*
X0073796Y0055596D02*
X0070001Y0056176D01*
X0070026Y0056340D01*
X0073821Y0055760D01*
X0073796Y0055596D01*
G37*
G36*
X0073035Y0057230D02*
X0069240Y0057810D01*
X0069265Y0057974D01*
X0073060Y0057394D01*
X0073035Y0057230D01*
G37*
G36*
X0072641Y0057965D02*
X0068846Y0058545D01*
X0068871Y0058709D01*
X0072666Y0058129D01*
X0072641Y0057965D01*
G37*
G36*
X0071880Y0059599D02*
X0068085Y0060179D01*
X0068110Y0060343D01*
X0071905Y0059763D01*
X0071880Y0059599D01*
G37*
G36*
X0067512Y0070720D02*
X0063717Y0071300D01*
X0063742Y0071464D01*
X0067537Y0070884D01*
X0067512Y0070720D01*
G37*
G36*
X0067537Y0070885D02*
X0063742Y0071465D01*
X0063767Y0071629D01*
X0067562Y0071049D01*
X0067537Y0070885D01*
G37*
G36*
X0064390Y0076762D02*
X0060595Y0077342D01*
X0060620Y0077506D01*
X0064415Y0076926D01*
X0064390Y0076762D01*
G37*
G36*
X0063371Y0066801D02*
X0059576Y0067381D01*
X0059601Y0067545D01*
X0063396Y0066965D01*
X0063371Y0066801D01*
G37*
G36*
X0062181Y0065635D02*
X0058386Y0066215D01*
X0058411Y0066379D01*
X0062206Y0065799D01*
X0062181Y0065635D01*
G37*
G36*
X0061586Y0065051D02*
X0057791Y0065631D01*
X0057816Y0065795D01*
X0061611Y0065215D01*
X0061586Y0065051D01*
G37*
G36*
X0060884Y0086909D02*
X0057089Y0087489D01*
X0057114Y0087653D01*
X0060909Y0087073D01*
X0060884Y0086909D01*
G37*
G36*
X0061479Y0087493D02*
X0057684Y0088073D01*
X0057709Y0088237D01*
X0061504Y0087657D01*
X0061479Y0087493D01*
G37*
D274*
G36*
X0062400Y0088026D02*
X0058279Y0088656D01*
X0058304Y0088820D01*
X0062425Y0088190D01*
X0062400Y0088026D01*
G37*
G36*
X0066055Y0054589D02*
X0061934Y0055219D01*
X0061959Y0055383D01*
X0066080Y0054753D01*
X0066055Y0054589D01*
G37*
G36*
X0056093Y0036892D02*
X0051972Y0037522D01*
X0051997Y0037686D01*
X0056118Y0037056D01*
X0056093Y0036892D01*
G37*
D275*
G36*
X0056571Y0037830D02*
X0052124Y0038510D01*
X0052149Y0038674D01*
X0056596Y0037994D01*
X0056571Y0037830D01*
G37*
G36*
X0056646Y0038324D02*
X0052199Y0039004D01*
X0052224Y0039168D01*
X0056671Y0038488D01*
X0056646Y0038324D01*
G37*
G36*
X0071583Y0034521D02*
X0067136Y0035201D01*
X0067161Y0035365D01*
X0071608Y0034685D01*
X0071583Y0034521D01*
G37*
G36*
X0073017Y0074768D02*
X0068570Y0075448D01*
X0068595Y0075612D01*
X0073042Y0074932D01*
X0073017Y0074768D01*
G37*
G36*
X0065435Y0075928D02*
X0060988Y0076608D01*
X0061013Y0076772D01*
X0065460Y0076092D01*
X0065435Y0075928D01*
G37*
D276*
G36*
X0073210Y0074906D02*
X0068921Y0075562D01*
X0068946Y0075726D01*
X0073235Y0075070D01*
X0073210Y0074906D01*
G37*
G36*
X0063759Y0089167D02*
X0059470Y0089823D01*
X0059495Y0089987D01*
X0063784Y0089331D01*
X0063759Y0089167D01*
G37*
G36*
X0062594Y0088165D02*
X0058305Y0088821D01*
X0058330Y0088985D01*
X0062619Y0088329D01*
X0062594Y0088165D01*
G37*
G36*
X0060107Y0091749D02*
X0055818Y0092405D01*
X0055843Y0092569D01*
X0060132Y0091913D01*
X0060107Y0091749D01*
G37*
G36*
X0056362Y0037525D02*
X0052073Y0038181D01*
X0052098Y0038345D01*
X0056387Y0037689D01*
X0056362Y0037525D01*
G37*
G36*
X0056312Y0037195D02*
X0052023Y0037851D01*
X0052048Y0038015D01*
X0056337Y0037359D01*
X0056312Y0037195D01*
G37*
G36*
X0056287Y0037030D02*
X0051998Y0037686D01*
X0052023Y0037850D01*
X0056312Y0037194D01*
X0056287Y0037030D01*
G37*
D277*
G36*
X0056545Y0037666D02*
X0052098Y0038346D01*
X0052123Y0038510D01*
X0056570Y0037830D01*
X0056545Y0037666D01*
G37*
G36*
X0056596Y0037995D02*
X0052149Y0038675D01*
X0052174Y0038839D01*
X0056621Y0038159D01*
X0056596Y0037995D01*
G37*
G36*
X0066162Y0054235D02*
X0061715Y0054915D01*
X0061740Y0055079D01*
X0066187Y0054399D01*
X0066162Y0054235D01*
G37*
G36*
X0066188Y0054400D02*
X0061741Y0055080D01*
X0061766Y0055244D01*
X0066213Y0054564D01*
X0066188Y0054400D01*
G37*
G36*
X0071465Y0034877D02*
X0067018Y0035557D01*
X0067043Y0035721D01*
X0071490Y0035041D01*
X0071465Y0034877D01*
G37*
G36*
X0071440Y0034712D02*
X0066993Y0035392D01*
X0067018Y0035556D01*
X0071465Y0034876D01*
X0071440Y0034712D01*
G37*
G36*
X0063322Y0088559D02*
X0058875Y0089239D01*
X0058900Y0089403D01*
X0063347Y0088723D01*
X0063322Y0088559D01*
G37*
G36*
X0061624Y0092866D02*
X0057177Y0093546D01*
X0057202Y0093710D01*
X0061649Y0093030D01*
X0061624Y0092866D01*
G37*
G36*
X0060835Y0092144D02*
X0056388Y0092824D01*
X0056413Y0092988D01*
X0060860Y0092308D01*
X0060835Y0092144D01*
G37*
D278*
G36*
X0074320Y0082155D02*
X0070031Y0082811D01*
X0070056Y0082975D01*
X0074345Y0082319D01*
X0074320Y0082155D01*
G37*
G36*
X0056337Y0037360D02*
X0052048Y0038016D01*
X0052073Y0038180D01*
X0056362Y0037524D01*
X0056337Y0037360D01*
G37*
D279*
G36*
X0066305Y0054044D02*
X0061690Y0054750D01*
X0061715Y0054914D01*
X0066330Y0054208D01*
X0066305Y0054044D01*
G37*
G36*
X0067737Y0070011D02*
X0063122Y0070717D01*
X0063147Y0070881D01*
X0067762Y0070175D01*
X0067737Y0070011D01*
G37*
G36*
X0061028Y0092282D02*
X0056413Y0092988D01*
X0056438Y0093152D01*
X0061053Y0092446D01*
X0061028Y0092282D01*
G37*
G36*
X0061598Y0092701D02*
X0056983Y0093407D01*
X0057008Y0093571D01*
X0061623Y0092865D01*
X0061598Y0092701D01*
G37*
G36*
X0071490Y0035041D02*
X0066875Y0035747D01*
X0066900Y0035911D01*
X0071515Y0035205D01*
X0071490Y0035041D01*
G37*
D280*
G36*
X0071516Y0035206D02*
X0066743Y0035936D01*
X0066768Y0036100D01*
X0071541Y0035370D01*
X0071516Y0035206D01*
G37*
G36*
X0071423Y0035726D02*
X0066650Y0036456D01*
X0066675Y0036620D01*
X0071448Y0035890D01*
X0071423Y0035726D01*
G37*
G36*
X0071248Y0036764D02*
X0066475Y0037494D01*
X0066500Y0037658D01*
X0071273Y0036928D01*
X0071248Y0036764D01*
G37*
G36*
X0074202Y0082511D02*
X0069429Y0083241D01*
X0069454Y0083405D01*
X0074227Y0082675D01*
X0074202Y0082511D01*
G37*
G36*
X0071003Y0085866D02*
X0066230Y0086596D01*
X0066255Y0086760D01*
X0071028Y0086030D01*
X0071003Y0085866D01*
G37*
G36*
X0061573Y0092536D02*
X0056800Y0093266D01*
X0056825Y0093430D01*
X0061598Y0092700D01*
X0061573Y0092536D01*
G37*
D281*
G36*
X0063891Y0088978D02*
X0059286Y0089682D01*
X0059311Y0089846D01*
X0063916Y0089142D01*
X0063891Y0088978D01*
G37*
G36*
X0066595Y0083506D02*
X0061990Y0084210D01*
X0062015Y0084374D01*
X0066620Y0083670D01*
X0066595Y0083506D01*
G37*
G36*
X0071373Y0035397D02*
X0066768Y0036101D01*
X0066793Y0036265D01*
X0071398Y0035561D01*
X0071373Y0035397D01*
G37*
D282*
G36*
X0071398Y0035561D02*
X0066625Y0036291D01*
X0066650Y0036455D01*
X0071423Y0035725D01*
X0071398Y0035561D01*
G37*
G36*
X0071223Y0036600D02*
X0066450Y0037330D01*
X0066475Y0037494D01*
X0071248Y0036764D01*
X0071223Y0036600D01*
G37*
G36*
X0068935Y0072357D02*
X0064162Y0073087D01*
X0064187Y0073251D01*
X0068960Y0072521D01*
X0068935Y0072357D01*
G37*
G36*
X0063866Y0088813D02*
X0059093Y0089543D01*
X0059118Y0089707D01*
X0063891Y0088977D01*
X0063866Y0088813D01*
G37*
D283*
G36*
X0063515Y0088698D02*
X0058900Y0089404D01*
X0058925Y0089568D01*
X0063540Y0088862D01*
X0063515Y0088698D01*
G37*
G36*
X0061222Y0092421D02*
X0056607Y0093127D01*
X0056632Y0093291D01*
X0061247Y0092585D01*
X0061222Y0092421D01*
G37*
G36*
X0074345Y0082320D02*
X0069730Y0083026D01*
X0069755Y0083190D01*
X0074370Y0082484D01*
X0074345Y0082320D01*
G37*
G36*
X0067762Y0070176D02*
X0063147Y0070882D01*
X0063172Y0071046D01*
X0067787Y0070340D01*
X0067762Y0070176D01*
G37*
G36*
X0066280Y0053880D02*
X0061665Y0054586D01*
X0061690Y0054750D01*
X0066305Y0054044D01*
X0066280Y0053880D01*
G37*
G36*
X0056789Y0038134D02*
X0052174Y0038840D01*
X0052199Y0039004D01*
X0056814Y0038298D01*
X0056789Y0038134D01*
G37*
D284*
G36*
X0066423Y0053689D02*
X0061640Y0054421D01*
X0061665Y0054585D01*
X0066448Y0053853D01*
X0066423Y0053689D01*
G37*
G36*
X0071341Y0036244D02*
X0066558Y0036976D01*
X0066583Y0037140D01*
X0071366Y0036408D01*
X0071341Y0036244D01*
G37*
G36*
X0071290Y0035915D02*
X0066507Y0036647D01*
X0066532Y0036811D01*
X0071315Y0036079D01*
X0071290Y0035915D01*
G37*
G36*
X0066956Y0083619D02*
X0062173Y0084351D01*
X0062198Y0084515D01*
X0066981Y0083783D01*
X0066956Y0083619D01*
G37*
D285*
G36*
X0071316Y0036079D02*
X0066533Y0036811D01*
X0066558Y0036975D01*
X0071341Y0036243D01*
X0071316Y0036079D01*
G37*
D286*
G36*
X0068816Y0048434D02*
X0064863Y0049038D01*
X0064888Y0049202D01*
X0068841Y0048598D01*
X0068816Y0048434D01*
G37*
G36*
X0065988Y0055273D02*
X0062035Y0055877D01*
X0062060Y0056041D01*
X0066013Y0055437D01*
X0065988Y0055273D01*
G37*
G36*
X0062558Y0065914D02*
X0058605Y0066518D01*
X0058630Y0066682D01*
X0062583Y0066078D01*
X0062558Y0065914D01*
G37*
G36*
X0063153Y0066498D02*
X0059200Y0067102D01*
X0059225Y0067266D01*
X0063178Y0066662D01*
X0063153Y0066498D01*
G37*
G36*
X0061856Y0087772D02*
X0057903Y0088376D01*
X0057928Y0088540D01*
X0061881Y0087936D01*
X0061856Y0087772D01*
G37*
G36*
X0062049Y0087911D02*
X0058096Y0088515D01*
X0058121Y0088679D01*
X0062074Y0088075D01*
X0062049Y0087911D01*
G37*
G36*
X0059176Y0091217D02*
X0055223Y0091821D01*
X0055248Y0091985D01*
X0059201Y0091381D01*
X0059176Y0091217D01*
G37*
G36*
X0058800Y0090938D02*
X0054847Y0091542D01*
X0054872Y0091706D01*
X0058825Y0091102D01*
X0058800Y0090938D01*
G37*
G36*
X0058774Y0090773D02*
X0054821Y0091377D01*
X0054846Y0091541D01*
X0058799Y0090937D01*
X0058774Y0090773D01*
G37*
G36*
X0058398Y0090494D02*
X0054445Y0091098D01*
X0054470Y0091262D01*
X0058423Y0090658D01*
X0058398Y0090494D01*
G37*
G36*
X0056177Y0038565D02*
X0052224Y0039169D01*
X0052249Y0039333D01*
X0056202Y0038729D01*
X0056177Y0038565D01*
G37*
D287*
G36*
X0055709Y0038806D02*
X0052418Y0039308D01*
X0052443Y0039472D01*
X0055734Y0038970D01*
X0055709Y0038806D01*
G37*
G36*
X0062155Y0046755D02*
X0058864Y0047257D01*
X0058889Y0047421D01*
X0062180Y0046919D01*
X0062155Y0046755D01*
G37*
G36*
X0062180Y0046920D02*
X0058889Y0047422D01*
X0058914Y0047586D01*
X0062205Y0047084D01*
X0062180Y0046920D01*
G37*
G36*
X0069083Y0046876D02*
X0065792Y0047378D01*
X0065817Y0047542D01*
X0069108Y0047040D01*
X0069083Y0046876D01*
G37*
G36*
X0059984Y0063443D02*
X0056693Y0063945D01*
X0056718Y0064109D01*
X0060009Y0063607D01*
X0059984Y0063443D01*
G37*
G36*
X0059169Y0056992D02*
X0055878Y0057494D01*
X0055903Y0057658D01*
X0059194Y0057156D01*
X0059169Y0056992D01*
G37*
G36*
X0067419Y0071241D02*
X0064128Y0071743D01*
X0064153Y0071907D01*
X0067444Y0071405D01*
X0067419Y0071241D01*
G37*
G36*
X0074090Y0076290D02*
X0070799Y0076792D01*
X0070824Y0076956D01*
X0074115Y0076454D01*
X0074090Y0076290D01*
G37*
G36*
X0074334Y0076758D02*
X0071043Y0077260D01*
X0071068Y0077424D01*
X0074359Y0076922D01*
X0074334Y0076758D01*
G37*
G36*
X0074115Y0076455D02*
X0070824Y0076957D01*
X0070849Y0077121D01*
X0074140Y0076619D01*
X0074115Y0076455D01*
G37*
G36*
X0074863Y0080218D02*
X0071572Y0080720D01*
X0071597Y0080884D01*
X0074888Y0080382D01*
X0074863Y0080218D01*
G37*
G36*
X0074720Y0080409D02*
X0071429Y0080911D01*
X0071454Y0081075D01*
X0074745Y0080573D01*
X0074720Y0080409D01*
G37*
G36*
X0080602Y0081363D02*
X0077311Y0081865D01*
X0077336Y0082029D01*
X0080627Y0081527D01*
X0080602Y0081363D01*
G37*
G36*
X0080627Y0081528D02*
X0077336Y0082030D01*
X0077361Y0082194D01*
X0080652Y0081692D01*
X0080627Y0081528D01*
G37*
G36*
X0080510Y0081883D02*
X0077219Y0082385D01*
X0077244Y0082549D01*
X0080535Y0082047D01*
X0080510Y0081883D01*
G37*
G36*
X0080284Y0082592D02*
X0076993Y0083094D01*
X0077018Y0083258D01*
X0080309Y0082756D01*
X0080284Y0082592D01*
G37*
G36*
X0084691Y0082761D02*
X0081400Y0083263D01*
X0081425Y0083427D01*
X0084716Y0082925D01*
X0084691Y0082761D01*
G37*
G36*
X0084808Y0082406D02*
X0081517Y0082908D01*
X0081542Y0083072D01*
X0084833Y0082570D01*
X0084808Y0082406D01*
G37*
G36*
X0084983Y0081367D02*
X0081692Y0081869D01*
X0081717Y0082033D01*
X0085008Y0081531D01*
X0084983Y0081367D01*
G37*
G36*
X0085076Y0080848D02*
X0081785Y0081350D01*
X0081810Y0081514D01*
X0085101Y0081012D01*
X0085076Y0080848D01*
G37*
G36*
X0084716Y0082926D02*
X0081425Y0083428D01*
X0081450Y0083592D01*
X0084741Y0083090D01*
X0084716Y0082926D01*
G37*
G36*
X0064585Y0082466D02*
X0061294Y0082968D01*
X0061319Y0083132D01*
X0064610Y0082630D01*
X0064585Y0082466D01*
G37*
G36*
X0064341Y0081997D02*
X0061050Y0082499D01*
X0061075Y0082663D01*
X0064366Y0082161D01*
X0064341Y0081997D01*
G37*
G36*
X0063736Y0078043D02*
X0060445Y0078545D01*
X0060470Y0078709D01*
X0063761Y0078207D01*
X0063736Y0078043D01*
G37*
G36*
X0063711Y0077878D02*
X0060420Y0078380D01*
X0060445Y0078544D01*
X0063736Y0078042D01*
X0063711Y0077878D01*
G37*
G36*
X0063536Y0078916D02*
X0060245Y0079418D01*
X0060270Y0079582D01*
X0063561Y0079080D01*
X0063536Y0078916D01*
G37*
G36*
X0059257Y0085135D02*
X0055966Y0085637D01*
X0055991Y0085801D01*
X0059282Y0085299D01*
X0059257Y0085135D01*
G37*
G36*
X0055774Y0087692D02*
X0052483Y0088194D01*
X0052508Y0088358D01*
X0055799Y0087856D01*
X0055774Y0087692D01*
G37*
G36*
X0055555Y0087388D02*
X0052264Y0087890D01*
X0052289Y0088054D01*
X0055580Y0087552D01*
X0055555Y0087388D01*
G37*
G36*
X0055530Y0087223D02*
X0052239Y0087725D01*
X0052264Y0087889D01*
X0055555Y0087387D01*
X0055530Y0087223D01*
G37*
D288*
G36*
X0065904Y0075687D02*
X0060963Y0076443D01*
X0060988Y0076607D01*
X0065929Y0075851D01*
X0065904Y0075687D01*
G37*
G36*
X0067880Y0069821D02*
X0062939Y0070577D01*
X0062964Y0070741D01*
X0067905Y0069985D01*
X0067880Y0069821D01*
G37*
G36*
X0072992Y0074603D02*
X0068051Y0075359D01*
X0068076Y0075523D01*
X0073017Y0074767D01*
X0072992Y0074603D01*
G37*
G36*
X0071273Y0036929D02*
X0066332Y0037685D01*
X0066357Y0037849D01*
X0071298Y0037093D01*
X0071273Y0036929D01*
G37*
G36*
X0071366Y0036409D02*
X0066425Y0037165D01*
X0066450Y0037329D01*
X0071391Y0036573D01*
X0071366Y0036409D01*
G37*
D289*
G36*
X0069108Y0047040D02*
X0065649Y0047568D01*
X0065674Y0047732D01*
X0069133Y0047204D01*
X0069108Y0047040D01*
G37*
G36*
X0073603Y0055457D02*
X0070144Y0055985D01*
X0070169Y0056149D01*
X0073628Y0055621D01*
X0073603Y0055457D01*
G37*
G36*
X0070464Y0062513D02*
X0067005Y0063041D01*
X0067030Y0063205D01*
X0070489Y0062677D01*
X0070464Y0062513D01*
G37*
G36*
X0070214Y0063057D02*
X0066755Y0063585D01*
X0066780Y0063749D01*
X0070239Y0063221D01*
X0070214Y0063057D01*
G37*
G36*
X0070121Y0063577D02*
X0066662Y0064105D01*
X0066687Y0064269D01*
X0070146Y0063741D01*
X0070121Y0063577D01*
G37*
G36*
X0067394Y0071076D02*
X0063935Y0071604D01*
X0063960Y0071768D01*
X0067419Y0071240D01*
X0067394Y0071076D01*
G37*
G36*
X0074065Y0076125D02*
X0070606Y0076653D01*
X0070631Y0076817D01*
X0074090Y0076289D01*
X0074065Y0076125D01*
G37*
G36*
X0074663Y0081092D02*
X0071204Y0081620D01*
X0071229Y0081784D01*
X0074688Y0081256D01*
X0074663Y0081092D01*
G37*
G36*
X0080310Y0082757D02*
X0076851Y0083285D01*
X0076876Y0083449D01*
X0080335Y0082921D01*
X0080310Y0082757D01*
G37*
G36*
X0084741Y0083090D02*
X0081282Y0083618D01*
X0081307Y0083782D01*
X0084766Y0083254D01*
X0084741Y0083090D01*
G37*
G36*
X0084398Y0084154D02*
X0080939Y0084682D01*
X0080964Y0084846D01*
X0084423Y0084318D01*
X0084398Y0084154D01*
G37*
G36*
X0084055Y0085219D02*
X0080596Y0085747D01*
X0080621Y0085911D01*
X0084080Y0085383D01*
X0084055Y0085219D01*
G37*
G36*
X0065788Y0056147D02*
X0062329Y0056675D01*
X0062354Y0056839D01*
X0065813Y0056311D01*
X0065788Y0056147D01*
G37*
G36*
X0061728Y0046146D02*
X0058269Y0046674D01*
X0058294Y0046838D01*
X0061753Y0046310D01*
X0061728Y0046146D01*
G37*
G36*
X0061484Y0045678D02*
X0058025Y0046206D01*
X0058050Y0046370D01*
X0061509Y0045842D01*
X0061484Y0045678D01*
G37*
G36*
X0061083Y0045233D02*
X0057624Y0045761D01*
X0057649Y0045925D01*
X0061108Y0045397D01*
X0061083Y0045233D01*
G37*
G36*
X0058006Y0041657D02*
X0054547Y0042185D01*
X0054572Y0042349D01*
X0058031Y0041821D01*
X0058006Y0041657D01*
G37*
G36*
X0056547Y0039857D02*
X0053088Y0040385D01*
X0053113Y0040549D01*
X0056572Y0040021D01*
X0056547Y0039857D01*
G37*
G36*
X0056145Y0039413D02*
X0052686Y0039941D01*
X0052711Y0040105D01*
X0056170Y0039577D01*
X0056145Y0039413D01*
G37*
G36*
X0055902Y0038945D02*
X0052443Y0039473D01*
X0052468Y0039637D01*
X0055927Y0039109D01*
X0055902Y0038945D01*
G37*
G36*
X0060177Y0063581D02*
X0056718Y0064109D01*
X0056743Y0064273D01*
X0060202Y0063745D01*
X0060177Y0063581D01*
G37*
G36*
X0063854Y0077688D02*
X0060395Y0078216D01*
X0060420Y0078380D01*
X0063879Y0077852D01*
X0063854Y0077688D01*
G37*
G36*
X0064778Y0082604D02*
X0061319Y0083132D01*
X0061344Y0083296D01*
X0064803Y0082768D01*
X0064778Y0082604D01*
G37*
G36*
X0059877Y0085883D02*
X0056418Y0086411D01*
X0056443Y0086575D01*
X0059902Y0086047D01*
X0059877Y0085883D01*
G37*
G36*
X0057040Y0089353D02*
X0053581Y0089881D01*
X0053606Y0090045D01*
X0057065Y0089517D01*
X0057040Y0089353D01*
G37*
G36*
X0056394Y0088440D02*
X0052935Y0088968D01*
X0052960Y0089132D01*
X0056419Y0088604D01*
X0056394Y0088440D01*
G37*
G36*
X0055749Y0087527D02*
X0052290Y0088055D01*
X0052315Y0088219D01*
X0055774Y0087691D01*
X0055749Y0087527D01*
G37*
D290*
G36*
X0056176Y0088136D02*
X0052717Y0088664D01*
X0052742Y0088828D01*
X0056201Y0088300D01*
X0056176Y0088136D01*
G37*
G36*
X0056613Y0088744D02*
X0053154Y0089272D01*
X0053179Y0089436D01*
X0056638Y0088908D01*
X0056613Y0088744D01*
G37*
G36*
X0056821Y0089049D02*
X0053362Y0089577D01*
X0053387Y0089741D01*
X0056846Y0089213D01*
X0056821Y0089049D01*
G37*
G36*
X0056419Y0088604D02*
X0052960Y0089132D01*
X0052985Y0089296D01*
X0056444Y0088768D01*
X0056419Y0088604D01*
G37*
G36*
X0056201Y0088301D02*
X0052742Y0088829D01*
X0052767Y0088993D01*
X0056226Y0088465D01*
X0056201Y0088301D01*
G37*
G36*
X0059669Y0085578D02*
X0056210Y0086106D01*
X0056235Y0086270D01*
X0059694Y0085742D01*
X0059669Y0085578D01*
G37*
G36*
X0060096Y0086187D02*
X0056637Y0086715D01*
X0056662Y0086879D01*
X0060121Y0086351D01*
X0060096Y0086187D01*
G37*
G36*
X0059450Y0085274D02*
X0055991Y0085802D01*
X0056016Y0085966D01*
X0059475Y0085438D01*
X0059450Y0085274D01*
G37*
G36*
X0064559Y0082300D02*
X0061100Y0082828D01*
X0061125Y0082992D01*
X0064584Y0082464D01*
X0064559Y0082300D01*
G37*
G36*
X0063996Y0077497D02*
X0060537Y0078025D01*
X0060562Y0078189D01*
X0064021Y0077661D01*
X0063996Y0077497D01*
G37*
G36*
X0063971Y0077332D02*
X0060512Y0077860D01*
X0060537Y0078024D01*
X0063996Y0077496D01*
X0063971Y0077332D01*
G37*
G36*
X0073856Y0075820D02*
X0070397Y0076348D01*
X0070422Y0076512D01*
X0073881Y0075984D01*
X0073856Y0075820D01*
G37*
G36*
X0073881Y0075985D02*
X0070422Y0076513D01*
X0070447Y0076677D01*
X0073906Y0076149D01*
X0073881Y0075985D01*
G37*
G36*
X0074771Y0080738D02*
X0071312Y0081266D01*
X0071337Y0081430D01*
X0074796Y0080902D01*
X0074771Y0080738D01*
G37*
G36*
X0074638Y0080927D02*
X0071179Y0081455D01*
X0071204Y0081619D01*
X0074663Y0081091D01*
X0074638Y0080927D01*
G37*
G36*
X0080167Y0082947D02*
X0076708Y0083475D01*
X0076733Y0083639D01*
X0080192Y0083111D01*
X0080167Y0082947D01*
G37*
G36*
X0080535Y0082048D02*
X0077076Y0082576D01*
X0077101Y0082740D01*
X0080560Y0082212D01*
X0080535Y0082048D01*
G37*
G36*
X0080427Y0082401D02*
X0076968Y0082929D01*
X0076993Y0083093D01*
X0080452Y0082565D01*
X0080427Y0082401D01*
G37*
G36*
X0080192Y0083112D02*
X0076733Y0083640D01*
X0076758Y0083804D01*
X0080217Y0083276D01*
X0080192Y0083112D01*
G37*
G36*
X0084516Y0083799D02*
X0081057Y0084327D01*
X0081082Y0084491D01*
X0084541Y0083963D01*
X0084516Y0083799D01*
G37*
G36*
X0084633Y0083444D02*
X0081174Y0083972D01*
X0081199Y0084136D01*
X0084658Y0083608D01*
X0084633Y0083444D01*
G37*
G36*
X0084541Y0083964D02*
X0081082Y0084492D01*
X0081107Y0084656D01*
X0084566Y0084128D01*
X0084541Y0083964D01*
G37*
G36*
X0084423Y0084319D02*
X0080964Y0084847D01*
X0080989Y0085011D01*
X0084448Y0084483D01*
X0084423Y0084319D01*
G37*
G36*
X0084290Y0084508D02*
X0080831Y0085036D01*
X0080856Y0085200D01*
X0084315Y0084672D01*
X0084290Y0084508D01*
G37*
G36*
X0084173Y0084863D02*
X0080714Y0085391D01*
X0080739Y0085555D01*
X0084198Y0085027D01*
X0084173Y0084863D01*
G37*
G36*
X0070096Y0063413D02*
X0066637Y0063941D01*
X0066662Y0064105D01*
X0070121Y0063577D01*
X0070096Y0063413D01*
G37*
G36*
X0070357Y0062867D02*
X0066898Y0063395D01*
X0066923Y0063559D01*
X0070382Y0063031D01*
X0070357Y0062867D01*
G37*
G36*
X0070582Y0062158D02*
X0067123Y0062686D01*
X0067148Y0062850D01*
X0070607Y0062322D01*
X0070582Y0062158D01*
G37*
G36*
X0070331Y0062702D02*
X0066872Y0063230D01*
X0066897Y0063394D01*
X0070356Y0062866D01*
X0070331Y0062702D01*
G37*
G36*
X0070239Y0063222D02*
X0066780Y0063750D01*
X0066805Y0063914D01*
X0070264Y0063386D01*
X0070239Y0063222D01*
G37*
G36*
X0065762Y0055983D02*
X0062303Y0056511D01*
X0062328Y0056675D01*
X0065787Y0056147D01*
X0065762Y0055983D01*
G37*
G36*
X0069001Y0047394D02*
X0065542Y0047922D01*
X0065567Y0048086D01*
X0069026Y0047558D01*
X0069001Y0047394D01*
G37*
G36*
X0069133Y0047205D02*
X0065674Y0047733D01*
X0065699Y0047897D01*
X0069158Y0047369D01*
X0069133Y0047205D01*
G37*
G36*
X0061937Y0046452D02*
X0058478Y0046980D01*
X0058503Y0047144D01*
X0061962Y0046616D01*
X0061937Y0046452D01*
G37*
G36*
X0061911Y0046287D02*
X0058452Y0046815D01*
X0058477Y0046979D01*
X0061936Y0046451D01*
X0061911Y0046287D01*
G37*
G36*
X0061703Y0045982D02*
X0058244Y0046510D01*
X0058269Y0046674D01*
X0061728Y0046146D01*
X0061703Y0045982D01*
G37*
G36*
X0061510Y0045842D02*
X0058051Y0046370D01*
X0058076Y0046534D01*
X0061535Y0046006D01*
X0061510Y0045842D01*
G37*
G36*
X0061291Y0045539D02*
X0057832Y0046067D01*
X0057857Y0046231D01*
X0061316Y0045703D01*
X0061291Y0045539D01*
G37*
G36*
X0060462Y0044485D02*
X0057003Y0045013D01*
X0057028Y0045177D01*
X0060487Y0044649D01*
X0060462Y0044485D01*
G37*
G36*
X0057386Y0040909D02*
X0053927Y0041437D01*
X0053952Y0041601D01*
X0057411Y0041073D01*
X0057386Y0040909D01*
G37*
G36*
X0056974Y0040466D02*
X0053515Y0040994D01*
X0053540Y0041158D01*
X0056999Y0040630D01*
X0056974Y0040466D01*
G37*
G36*
X0056766Y0040161D02*
X0053307Y0040689D01*
X0053332Y0040853D01*
X0056791Y0040325D01*
X0056766Y0040161D01*
G37*
G36*
X0056354Y0039719D02*
X0052895Y0040247D01*
X0052920Y0040411D01*
X0056379Y0039883D01*
X0056354Y0039719D01*
G37*
G36*
X0056329Y0039554D02*
X0052870Y0040082D01*
X0052895Y0040246D01*
X0056354Y0039718D01*
X0056329Y0039554D01*
G37*
G36*
X0056120Y0039249D02*
X0052661Y0039777D01*
X0052686Y0039941D01*
X0056145Y0039413D01*
X0056120Y0039249D01*
G37*
G36*
X0055927Y0039109D02*
X0052468Y0039637D01*
X0052493Y0039801D01*
X0055952Y0039273D01*
X0055927Y0039109D01*
G37*
G36*
X0059959Y0063277D02*
X0056500Y0063805D01*
X0056525Y0063969D01*
X0059984Y0063441D01*
X0059959Y0063277D01*
G37*
G36*
X0060396Y0063885D02*
X0056937Y0064413D01*
X0056962Y0064577D01*
X0060421Y0064049D01*
X0060396Y0063885D01*
G37*
G36*
X0055967Y0087831D02*
X0052508Y0088359D01*
X0052533Y0088523D01*
X0055992Y0087995D01*
X0055967Y0087831D01*
G37*
G36*
X0061205Y0093436D02*
X0057746Y0093964D01*
X0057771Y0094128D01*
X0061230Y0093600D01*
X0061205Y0093436D01*
G37*
D291*
G36*
X0066398Y0053524D02*
X0061457Y0054280D01*
X0061482Y0054444D01*
X0066423Y0053688D01*
X0066398Y0053524D01*
G37*
G36*
X0071299Y0037094D02*
X0066358Y0037850D01*
X0066383Y0038014D01*
X0071324Y0037258D01*
X0071299Y0037094D01*
G37*
D292*
G36*
X0071156Y0037285D02*
X0070169Y0037436D01*
X0070194Y0037599D01*
X0071181Y0037448D01*
X0071156Y0037285D01*
G37*
G36*
X0057133Y0055786D02*
X0056146Y0055937D01*
X0056171Y0056100D01*
X0057158Y0055949D01*
X0057133Y0055786D01*
G37*
G36*
X0060393Y0094741D02*
X0059406Y0094892D01*
X0059431Y0095055D01*
X0060418Y0094904D01*
X0060393Y0094741D01*
G37*
D293*
G36*
X0063340Y0089737D02*
X0060039Y0090241D01*
X0060064Y0090405D01*
X0063365Y0089901D01*
X0063340Y0089737D01*
G37*
G36*
X0064158Y0081856D02*
X0060857Y0082360D01*
X0060882Y0082524D01*
X0064183Y0082020D01*
X0064158Y0081856D01*
G37*
G36*
X0063628Y0078396D02*
X0060327Y0078900D01*
X0060352Y0079064D01*
X0063653Y0078560D01*
X0063628Y0078396D01*
G37*
G36*
X0059023Y0084665D02*
X0055722Y0085169D01*
X0055747Y0085333D01*
X0059048Y0084829D01*
X0059023Y0084665D01*
G37*
G36*
X0059049Y0084830D02*
X0055748Y0085334D01*
X0055773Y0085498D01*
X0059074Y0084994D01*
X0059049Y0084830D01*
G37*
G36*
X0059694Y0085743D02*
X0056393Y0086247D01*
X0056418Y0086411D01*
X0059719Y0085907D01*
X0059694Y0085743D01*
G37*
G36*
X0055322Y0086918D02*
X0052021Y0087422D01*
X0052046Y0087586D01*
X0055347Y0087082D01*
X0055322Y0086918D01*
G37*
G36*
X0059262Y0056471D02*
X0055961Y0056975D01*
X0055986Y0057139D01*
X0059287Y0056635D01*
X0059262Y0056471D01*
G37*
G36*
X0059236Y0056306D02*
X0055935Y0056810D01*
X0055960Y0056974D01*
X0059261Y0056470D01*
X0059236Y0056306D01*
G37*
G36*
X0065813Y0056312D02*
X0062512Y0056816D01*
X0062537Y0056980D01*
X0065838Y0056476D01*
X0065813Y0056312D01*
G37*
G36*
X0069541Y0037701D02*
X0066240Y0038205D01*
X0066265Y0038369D01*
X0069566Y0037865D01*
X0069541Y0037701D01*
G37*
G36*
X0074577Y0077227D02*
X0071276Y0077731D01*
X0071301Y0077895D01*
X0074602Y0077391D01*
X0074577Y0077227D01*
G37*
G36*
X0080695Y0080843D02*
X0077394Y0081347D01*
X0077419Y0081511D01*
X0080720Y0081007D01*
X0080695Y0080843D01*
G37*
G36*
X0084901Y0081886D02*
X0081600Y0082390D01*
X0081625Y0082554D01*
X0084926Y0082050D01*
X0084901Y0081886D01*
G37*
G36*
X0084608Y0083279D02*
X0081307Y0083783D01*
X0081332Y0083947D01*
X0084633Y0083443D01*
X0084608Y0083279D01*
G37*
D294*
G36*
X0060275Y0095096D02*
X0059782Y0095171D01*
X0059807Y0095334D01*
X0060300Y0095259D01*
X0060275Y0095096D01*
G37*
G36*
X0056614Y0055696D02*
X0056121Y0055771D01*
X0056146Y0055934D01*
X0056639Y0055859D01*
X0056614Y0055696D01*
G37*
G36*
X0071181Y0037450D02*
X0070688Y0037525D01*
X0070713Y0037688D01*
X0071206Y0037613D01*
X0071181Y0037450D01*
G37*
D295*
G36*
X0069566Y0037865D02*
X0066265Y0038369D01*
X0066290Y0038533D01*
X0069591Y0038029D01*
X0069566Y0037865D01*
G37*
G36*
X0059776Y0063137D02*
X0056475Y0063641D01*
X0056500Y0063805D01*
X0059801Y0063301D01*
X0059776Y0063137D01*
G37*
G36*
X0063603Y0078232D02*
X0060302Y0078736D01*
X0060327Y0078900D01*
X0063628Y0078396D01*
X0063603Y0078232D01*
G37*
G36*
X0064132Y0081691D02*
X0060831Y0082195D01*
X0060856Y0082359D01*
X0064157Y0081855D01*
X0064132Y0081691D01*
G37*
G36*
X0074930Y0079533D02*
X0071629Y0080037D01*
X0071654Y0080201D01*
X0074955Y0079697D01*
X0074930Y0079533D01*
G37*
G36*
X0079716Y0084365D02*
X0076415Y0084869D01*
X0076440Y0085033D01*
X0079741Y0084529D01*
X0079716Y0084365D01*
G37*
G36*
X0080402Y0082237D02*
X0077101Y0082741D01*
X0077126Y0082905D01*
X0080427Y0082401D01*
X0080402Y0082237D01*
G37*
G36*
X0084926Y0082050D02*
X0081625Y0082554D01*
X0081650Y0082718D01*
X0084951Y0082214D01*
X0084926Y0082050D01*
G37*
G36*
X0055992Y0087995D02*
X0052691Y0088499D01*
X0052716Y0088663D01*
X0056017Y0088159D01*
X0055992Y0087995D01*
G37*
G36*
X0055347Y0087082D02*
X0052046Y0087586D01*
X0052071Y0087750D01*
X0055372Y0087246D01*
X0055347Y0087082D01*
G37*
D296*
G36*
X0057014Y0089188D02*
X0053387Y0089742D01*
X0053412Y0089906D01*
X0057039Y0089352D01*
X0057014Y0089188D01*
G37*
G36*
X0057828Y0090075D02*
X0054201Y0090629D01*
X0054226Y0090793D01*
X0057853Y0090239D01*
X0057828Y0090075D01*
G37*
G36*
X0057635Y0089936D02*
X0054008Y0090490D01*
X0054033Y0090654D01*
X0057660Y0090100D01*
X0057635Y0089936D01*
G37*
G36*
X0057233Y0089491D02*
X0053606Y0090045D01*
X0053631Y0090209D01*
X0057258Y0089655D01*
X0057233Y0089491D01*
G37*
G36*
X0060071Y0086022D02*
X0056444Y0086576D01*
X0056469Y0086740D01*
X0060096Y0086186D01*
X0060071Y0086022D01*
G37*
G36*
X0065154Y0082884D02*
X0061527Y0083438D01*
X0061552Y0083602D01*
X0065179Y0083048D01*
X0065154Y0082884D01*
G37*
G36*
X0064247Y0076953D02*
X0060620Y0077507D01*
X0060645Y0077671D01*
X0064272Y0077117D01*
X0064247Y0076953D01*
G37*
G36*
X0060798Y0064329D02*
X0057171Y0064883D01*
X0057196Y0065047D01*
X0060823Y0064493D01*
X0060798Y0064329D01*
G37*
G36*
X0060773Y0064164D02*
X0057146Y0064718D01*
X0057171Y0064882D01*
X0060798Y0064328D01*
X0060773Y0064164D01*
G37*
G36*
X0060371Y0063720D02*
X0056744Y0064274D01*
X0056769Y0064438D01*
X0060396Y0063884D01*
X0060371Y0063720D01*
G37*
G36*
X0067896Y0050092D02*
X0064269Y0050646D01*
X0064294Y0050810D01*
X0067921Y0050256D01*
X0067896Y0050092D01*
G37*
G36*
X0067871Y0049927D02*
X0064244Y0050481D01*
X0064269Y0050645D01*
X0067896Y0050091D01*
X0067871Y0049927D01*
G37*
G36*
X0068908Y0047914D02*
X0065281Y0048468D01*
X0065306Y0048632D01*
X0068933Y0048078D01*
X0068908Y0047914D01*
G37*
G36*
X0073654Y0055787D02*
X0070027Y0056341D01*
X0070052Y0056505D01*
X0073679Y0055951D01*
X0073654Y0055787D01*
G37*
G36*
X0073403Y0056331D02*
X0069776Y0056885D01*
X0069801Y0057049D01*
X0073428Y0056495D01*
X0073403Y0056331D01*
G37*
G36*
X0072105Y0058890D02*
X0068478Y0059444D01*
X0068503Y0059608D01*
X0072130Y0059054D01*
X0072105Y0058890D01*
G37*
G36*
X0071854Y0059434D02*
X0068227Y0059988D01*
X0068252Y0060152D01*
X0071879Y0059598D01*
X0071854Y0059434D01*
G37*
G36*
X0071343Y0060524D02*
X0067716Y0061078D01*
X0067741Y0061242D01*
X0071368Y0060688D01*
X0071343Y0060524D01*
G37*
G36*
X0071093Y0061068D02*
X0067466Y0061622D01*
X0067491Y0061786D01*
X0071118Y0061232D01*
X0071093Y0061068D01*
G37*
G36*
X0071118Y0061233D02*
X0067491Y0061787D01*
X0067516Y0061951D01*
X0071143Y0061397D01*
X0071118Y0061233D01*
G37*
G36*
X0070607Y0062323D02*
X0066980Y0062877D01*
X0067005Y0063041D01*
X0070632Y0062487D01*
X0070607Y0062323D01*
G37*
G36*
X0073638Y0075516D02*
X0070011Y0076070D01*
X0070036Y0076234D01*
X0073663Y0075680D01*
X0073638Y0075516D01*
G37*
G36*
X0074688Y0081256D02*
X0071061Y0081810D01*
X0071086Y0081974D01*
X0074713Y0081420D01*
X0074688Y0081256D01*
G37*
G36*
X0074545Y0081447D02*
X0070918Y0082001D01*
X0070943Y0082165D01*
X0074570Y0081611D01*
X0074545Y0081447D01*
G37*
G36*
X0080084Y0083465D02*
X0076457Y0084019D01*
X0076482Y0084183D01*
X0080109Y0083629D01*
X0080084Y0083465D01*
G37*
G36*
X0083947Y0085572D02*
X0080320Y0086126D01*
X0080345Y0086290D01*
X0083972Y0085736D01*
X0083947Y0085572D01*
G37*
G36*
X0084198Y0085028D02*
X0080571Y0085582D01*
X0080596Y0085746D01*
X0084223Y0085192D01*
X0084198Y0085028D01*
G37*
G36*
X0083830Y0085927D02*
X0080203Y0086481D01*
X0080228Y0086645D01*
X0083855Y0086091D01*
X0083830Y0085927D01*
G37*
G36*
X0080109Y0083630D02*
X0076482Y0084184D01*
X0076507Y0084348D01*
X0080134Y0083794D01*
X0080109Y0083630D01*
G37*
G36*
X0061057Y0045069D02*
X0057430Y0045623D01*
X0057455Y0045787D01*
X0061082Y0045233D01*
X0061057Y0045069D01*
G37*
G36*
X0060864Y0044929D02*
X0057237Y0045483D01*
X0057262Y0045647D01*
X0060889Y0045093D01*
X0060864Y0044929D01*
G37*
G36*
X0060244Y0044181D02*
X0056617Y0044735D01*
X0056642Y0044899D01*
X0060269Y0044345D01*
X0060244Y0044181D01*
G37*
G36*
X0060219Y0044016D02*
X0056592Y0044570D01*
X0056617Y0044734D01*
X0060244Y0044180D01*
X0060219Y0044016D01*
G37*
G36*
X0059842Y0043737D02*
X0056215Y0044291D01*
X0056240Y0044455D01*
X0059867Y0043901D01*
X0059842Y0043737D01*
G37*
G36*
X0059817Y0043572D02*
X0056190Y0044126D01*
X0056215Y0044290D01*
X0059842Y0043736D01*
X0059817Y0043572D01*
G37*
G36*
X0059196Y0042824D02*
X0055569Y0043378D01*
X0055594Y0043542D01*
X0059221Y0042988D01*
X0059196Y0042824D01*
G37*
G36*
X0059003Y0042685D02*
X0055376Y0043239D01*
X0055401Y0043403D01*
X0059028Y0042849D01*
X0059003Y0042685D01*
G37*
G36*
X0058601Y0042241D02*
X0054974Y0042795D01*
X0054999Y0042959D01*
X0058626Y0042405D01*
X0058601Y0042241D01*
G37*
G36*
X0058383Y0041937D02*
X0054756Y0042491D01*
X0054781Y0042655D01*
X0058408Y0042101D01*
X0058383Y0041937D01*
G37*
G36*
X0057981Y0041493D02*
X0054354Y0042047D01*
X0054379Y0042211D01*
X0058006Y0041657D01*
X0057981Y0041493D01*
G37*
G36*
X0057788Y0041353D02*
X0054161Y0041907D01*
X0054186Y0042071D01*
X0057813Y0041517D01*
X0057788Y0041353D01*
G37*
G36*
X0057168Y0040606D02*
X0053541Y0041160D01*
X0053566Y0041324D01*
X0057193Y0040770D01*
X0057168Y0040606D01*
G37*
G36*
X0056740Y0039996D02*
X0053113Y0040550D01*
X0053138Y0040714D01*
X0056765Y0040160D01*
X0056740Y0039996D01*
G37*
D297*
G36*
X0056949Y0040302D02*
X0053332Y0040854D01*
X0053357Y0041018D01*
X0056974Y0040466D01*
X0056949Y0040302D01*
G37*
G36*
X0058810Y0042546D02*
X0055193Y0043098D01*
X0055218Y0043262D01*
X0058835Y0042710D01*
X0058810Y0042546D01*
G37*
G36*
X0060025Y0043878D02*
X0056408Y0044430D01*
X0056433Y0044594D01*
X0060050Y0044042D01*
X0060025Y0043878D01*
G37*
G36*
X0068004Y0049738D02*
X0064387Y0050290D01*
X0064412Y0050454D01*
X0068029Y0049902D01*
X0068004Y0049738D01*
G37*
G36*
X0065870Y0055629D02*
X0062253Y0056181D01*
X0062278Y0056345D01*
X0065895Y0055793D01*
X0065870Y0055629D01*
G37*
G36*
X0071226Y0060879D02*
X0067609Y0061431D01*
X0067634Y0061595D01*
X0071251Y0061043D01*
X0071226Y0060879D01*
G37*
G36*
X0071987Y0059245D02*
X0068370Y0059797D01*
X0068395Y0059961D01*
X0072012Y0059409D01*
X0071987Y0059245D01*
G37*
G36*
X0072749Y0057611D02*
X0069132Y0058163D01*
X0069157Y0058327D01*
X0072774Y0057775D01*
X0072749Y0057611D01*
G37*
G36*
X0064104Y0077144D02*
X0060487Y0077696D01*
X0060512Y0077860D01*
X0064129Y0077308D01*
X0064104Y0077144D01*
G37*
G36*
X0060579Y0064026D02*
X0056962Y0064578D01*
X0056987Y0064742D01*
X0060604Y0064190D01*
X0060579Y0064026D01*
G37*
G36*
X0056796Y0088884D02*
X0053179Y0089436D01*
X0053204Y0089600D01*
X0056821Y0089048D01*
X0056796Y0088884D01*
G37*
G36*
X0080217Y0083277D02*
X0076600Y0083829D01*
X0076625Y0083993D01*
X0080242Y0083441D01*
X0080217Y0083277D01*
G37*
D298*
G36*
X0080485Y0081719D02*
X0077194Y0082221D01*
X0077219Y0082385D01*
X0080510Y0081883D01*
X0080485Y0081719D01*
G37*
G36*
X0080577Y0081199D02*
X0077286Y0081701D01*
X0077311Y0081865D01*
X0080602Y0081363D01*
X0080577Y0081199D01*
G37*
G36*
X0080752Y0080160D02*
X0077461Y0080662D01*
X0077486Y0080826D01*
X0080777Y0080324D01*
X0080752Y0080160D01*
G37*
G36*
X0085008Y0081532D02*
X0081717Y0082034D01*
X0081742Y0082198D01*
X0085033Y0081696D01*
X0085008Y0081532D01*
G37*
G36*
X0084834Y0082570D02*
X0081543Y0083072D01*
X0081568Y0083236D01*
X0084859Y0082734D01*
X0084834Y0082570D01*
G37*
G36*
X0084491Y0083635D02*
X0081200Y0084137D01*
X0081225Y0084301D01*
X0084516Y0083799D01*
X0084491Y0083635D01*
G37*
G36*
X0074745Y0080573D02*
X0071454Y0081075D01*
X0071479Y0081239D01*
X0074770Y0080737D01*
X0074745Y0080573D01*
G37*
G36*
X0074838Y0080053D02*
X0071547Y0080555D01*
X0071572Y0080719D01*
X0074863Y0080217D01*
X0074838Y0080053D01*
G37*
G36*
X0074308Y0076594D02*
X0071017Y0077096D01*
X0071042Y0077260D01*
X0074333Y0076758D01*
X0074308Y0076594D01*
G37*
G36*
X0064366Y0082162D02*
X0061075Y0082664D01*
X0061100Y0082828D01*
X0064391Y0082326D01*
X0064366Y0082162D01*
G37*
G36*
X0063889Y0081223D02*
X0060598Y0081725D01*
X0060623Y0081889D01*
X0063914Y0081387D01*
X0063889Y0081223D01*
G37*
G36*
X0059232Y0084971D02*
X0055941Y0085473D01*
X0055966Y0085637D01*
X0059257Y0085135D01*
X0059232Y0084971D01*
G37*
G36*
X0059476Y0085439D02*
X0056185Y0085941D01*
X0056210Y0086105D01*
X0059501Y0085603D01*
X0059476Y0085439D01*
G37*
G36*
X0059532Y0062669D02*
X0056241Y0063171D01*
X0056266Y0063335D01*
X0059557Y0062833D01*
X0059532Y0062669D01*
G37*
G36*
X0059102Y0057676D02*
X0055811Y0058178D01*
X0055836Y0058342D01*
X0059127Y0057840D01*
X0059102Y0057676D01*
G37*
G36*
X0062206Y0047085D02*
X0058915Y0047587D01*
X0058940Y0047751D01*
X0062231Y0047249D01*
X0062206Y0047085D01*
G37*
G36*
X0061962Y0046616D02*
X0058671Y0047118D01*
X0058696Y0047282D01*
X0061987Y0046780D01*
X0061962Y0046616D01*
G37*
G36*
X0069201Y0046520D02*
X0065910Y0047022D01*
X0065935Y0047186D01*
X0069226Y0046684D01*
X0069201Y0046520D01*
G37*
G36*
X0069473Y0038385D02*
X0066182Y0038887D01*
X0066207Y0039051D01*
X0069498Y0038549D01*
X0069473Y0038385D01*
G37*
D299*
G36*
X0069026Y0047558D02*
X0065399Y0048112D01*
X0065424Y0048276D01*
X0069051Y0047722D01*
X0069026Y0047558D01*
G37*
G36*
X0068264Y0049192D02*
X0064637Y0049746D01*
X0064662Y0049910D01*
X0068289Y0049356D01*
X0068264Y0049192D01*
G37*
G36*
X0067753Y0050282D02*
X0064126Y0050836D01*
X0064151Y0051000D01*
X0067778Y0050446D01*
X0067753Y0050282D01*
G37*
G36*
X0073010Y0057065D02*
X0069383Y0057619D01*
X0069408Y0057783D01*
X0073035Y0057229D01*
X0073010Y0057065D01*
G37*
G36*
X0072498Y0058155D02*
X0068871Y0058709D01*
X0068896Y0058873D01*
X0072523Y0058319D01*
X0072498Y0058155D01*
G37*
G36*
X0072248Y0058699D02*
X0068621Y0059253D01*
X0068646Y0059417D01*
X0072273Y0058863D01*
X0072248Y0058699D01*
G37*
G36*
X0071737Y0059789D02*
X0068110Y0060343D01*
X0068135Y0060507D01*
X0071762Y0059953D01*
X0071737Y0059789D01*
G37*
G36*
X0071486Y0060333D02*
X0067859Y0060887D01*
X0067884Y0061051D01*
X0071511Y0060497D01*
X0071486Y0060333D01*
G37*
G36*
X0070975Y0061423D02*
X0067348Y0061977D01*
X0067373Y0062141D01*
X0071000Y0061587D01*
X0070975Y0061423D01*
G37*
G36*
X0070725Y0061967D02*
X0067098Y0062521D01*
X0067123Y0062685D01*
X0070750Y0062131D01*
X0070725Y0061967D01*
G37*
G36*
X0073831Y0075655D02*
X0070204Y0076209D01*
X0070229Y0076373D01*
X0073856Y0075819D01*
X0073831Y0075655D01*
G37*
G36*
X0079967Y0083821D02*
X0076340Y0084375D01*
X0076365Y0084539D01*
X0079992Y0083985D01*
X0079967Y0083821D01*
G37*
G36*
X0084316Y0084673D02*
X0080689Y0085227D01*
X0080714Y0085391D01*
X0084341Y0084837D01*
X0084316Y0084673D01*
G37*
G36*
X0061393Y0064913D02*
X0057766Y0065467D01*
X0057791Y0065631D01*
X0061418Y0065077D01*
X0061393Y0064913D01*
G37*
G36*
X0060991Y0064468D02*
X0057364Y0065022D01*
X0057389Y0065186D01*
X0061016Y0064632D01*
X0060991Y0064468D01*
G37*
G36*
X0060839Y0044765D02*
X0057212Y0045319D01*
X0057237Y0045483D01*
X0060864Y0044929D01*
X0060839Y0044765D01*
G37*
G36*
X0060437Y0044320D02*
X0056810Y0044874D01*
X0056835Y0045038D01*
X0060462Y0044484D01*
X0060437Y0044320D01*
G37*
G36*
X0059623Y0043433D02*
X0055996Y0043987D01*
X0056021Y0044151D01*
X0059648Y0043597D01*
X0059623Y0043433D01*
G37*
G36*
X0059222Y0042989D02*
X0055595Y0043543D01*
X0055620Y0043707D01*
X0059247Y0043153D01*
X0059222Y0042989D01*
G37*
G36*
X0058408Y0042102D02*
X0054781Y0042656D01*
X0054806Y0042820D01*
X0058433Y0042266D01*
X0058408Y0042102D01*
G37*
G36*
X0057763Y0041189D02*
X0054136Y0041743D01*
X0054161Y0041907D01*
X0057788Y0041353D01*
X0057763Y0041189D01*
G37*
G36*
X0057361Y0040744D02*
X0053734Y0041298D01*
X0053759Y0041462D01*
X0057386Y0040908D01*
X0057361Y0040744D01*
G37*
G36*
X0060289Y0086326D02*
X0056662Y0086880D01*
X0056687Y0087044D01*
X0060314Y0086490D01*
X0060289Y0086326D01*
G37*
G36*
X0060691Y0086770D02*
X0057064Y0087324D01*
X0057089Y0087488D01*
X0060716Y0086934D01*
X0060691Y0086770D01*
G37*
D300*
G36*
X0063645Y0080754D02*
X0060522Y0081231D01*
X0060547Y0081396D01*
X0063670Y0080919D01*
X0063645Y0080754D01*
G37*
G36*
X0063569Y0080259D02*
X0060446Y0080736D01*
X0060471Y0080901D01*
X0063594Y0080424D01*
X0063569Y0080259D01*
G37*
G36*
X0063494Y0079765D02*
X0060371Y0080242D01*
X0060396Y0080407D01*
X0063519Y0079930D01*
X0063494Y0079765D01*
G37*
G36*
X0063418Y0079271D02*
X0060295Y0079748D01*
X0060320Y0079913D01*
X0063443Y0079436D01*
X0063418Y0079271D01*
G37*
G36*
X0059288Y0062199D02*
X0056165Y0062676D01*
X0056190Y0062841D01*
X0059313Y0062364D01*
X0059288Y0062199D01*
G37*
G36*
X0059213Y0061705D02*
X0056090Y0062182D01*
X0056115Y0062347D01*
X0059238Y0061870D01*
X0059213Y0061705D01*
G37*
G36*
X0059137Y0061211D02*
X0056014Y0061688D01*
X0056039Y0061853D01*
X0059162Y0061376D01*
X0059137Y0061211D01*
G37*
G36*
X0059061Y0060716D02*
X0055938Y0061193D01*
X0055963Y0061358D01*
X0059086Y0060881D01*
X0059061Y0060716D01*
G37*
G36*
X0058986Y0060222D02*
X0055863Y0060699D01*
X0055888Y0060864D01*
X0059011Y0060387D01*
X0058986Y0060222D01*
G37*
G36*
X0058910Y0059728D02*
X0055787Y0060205D01*
X0055812Y0060370D01*
X0058935Y0059893D01*
X0058910Y0059728D01*
G37*
G36*
X0059026Y0057181D02*
X0055903Y0057658D01*
X0055928Y0057823D01*
X0059051Y0057346D01*
X0059026Y0057181D01*
G37*
G36*
X0063631Y0050912D02*
X0060508Y0051389D01*
X0060533Y0051554D01*
X0063656Y0051077D01*
X0063631Y0050912D01*
G37*
G36*
X0062834Y0049011D02*
X0059711Y0049488D01*
X0059736Y0049653D01*
X0062859Y0049176D01*
X0062834Y0049011D01*
G37*
G36*
X0062759Y0048517D02*
X0059636Y0048994D01*
X0059661Y0049159D01*
X0062784Y0048682D01*
X0062759Y0048517D01*
G37*
G36*
X0069300Y0044987D02*
X0066177Y0045464D01*
X0066202Y0045629D01*
X0069325Y0045152D01*
X0069300Y0044987D01*
G37*
G36*
X0069224Y0044493D02*
X0066101Y0044970D01*
X0066126Y0045135D01*
X0069249Y0044658D01*
X0069224Y0044493D01*
G37*
G36*
X0069265Y0041451D02*
X0066142Y0041928D01*
X0066167Y0042093D01*
X0069290Y0041616D01*
X0069265Y0041451D01*
G37*
G36*
X0069189Y0040957D02*
X0066066Y0041434D01*
X0066091Y0041599D01*
X0069214Y0041122D01*
X0069189Y0040957D01*
G37*
G36*
X0069381Y0038905D02*
X0066258Y0039382D01*
X0066283Y0039547D01*
X0069406Y0039070D01*
X0069381Y0038905D01*
G37*
G36*
X0065905Y0059163D02*
X0062782Y0059640D01*
X0062807Y0059805D01*
X0065930Y0059328D01*
X0065905Y0059163D01*
G37*
G36*
X0066132Y0060646D02*
X0063009Y0061123D01*
X0063034Y0061288D01*
X0066157Y0060811D01*
X0066132Y0060646D01*
G37*
G36*
X0066208Y0061140D02*
X0063085Y0061617D01*
X0063110Y0061782D01*
X0066233Y0061305D01*
X0066208Y0061140D01*
G37*
G36*
X0066057Y0060152D02*
X0062934Y0060629D01*
X0062959Y0060794D01*
X0066082Y0060317D01*
X0066057Y0060152D01*
G37*
G36*
X0065981Y0059658D02*
X0062858Y0060135D01*
X0062883Y0060300D01*
X0066006Y0059823D01*
X0065981Y0059658D01*
G37*
G36*
X0080676Y0079665D02*
X0077553Y0080142D01*
X0077578Y0080307D01*
X0080701Y0079830D01*
X0080676Y0079665D01*
G37*
G36*
X0085049Y0078490D02*
X0081926Y0078967D01*
X0081951Y0079132D01*
X0085074Y0078655D01*
X0085049Y0078490D01*
G37*
G36*
X0085125Y0078984D02*
X0082002Y0079461D01*
X0082027Y0079626D01*
X0085150Y0079149D01*
X0085125Y0078984D01*
G37*
G36*
X0084973Y0077996D02*
X0081850Y0078473D01*
X0081875Y0078638D01*
X0084998Y0078161D01*
X0084973Y0077996D01*
G37*
G36*
X0084671Y0076019D02*
X0081548Y0076496D01*
X0081573Y0076661D01*
X0084696Y0076184D01*
X0084671Y0076019D01*
G37*
G36*
X0084595Y0075525D02*
X0081472Y0076002D01*
X0081497Y0076167D01*
X0084620Y0075690D01*
X0084595Y0075525D01*
G37*
G36*
X0084520Y0075030D02*
X0081397Y0075507D01*
X0081422Y0075672D01*
X0084545Y0075195D01*
X0084520Y0075030D01*
G37*
G36*
X0084933Y0081037D02*
X0081810Y0081514D01*
X0081835Y0081679D01*
X0084958Y0081202D01*
X0084933Y0081037D01*
G37*
D301*
G36*
X0084080Y0085383D02*
X0080463Y0085935D01*
X0080488Y0086099D01*
X0084105Y0085547D01*
X0084080Y0085383D01*
G37*
G36*
X0071594Y0059980D02*
X0067977Y0060532D01*
X0068002Y0060696D01*
X0071619Y0060144D01*
X0071594Y0059980D01*
G37*
G36*
X0073142Y0056877D02*
X0069525Y0057429D01*
X0069550Y0057593D01*
X0073167Y0057041D01*
X0073142Y0056877D01*
G37*
G36*
X0070832Y0061614D02*
X0067215Y0062166D01*
X0067240Y0062330D01*
X0070857Y0061778D01*
X0070832Y0061614D01*
G37*
G36*
X0070858Y0061779D02*
X0067241Y0062331D01*
X0067266Y0062495D01*
X0070883Y0061943D01*
X0070858Y0061779D01*
G37*
G36*
X0067635Y0050638D02*
X0064018Y0051190D01*
X0064043Y0051354D01*
X0067660Y0050802D01*
X0067635Y0050638D01*
G37*
G36*
X0067610Y0050473D02*
X0063993Y0051025D01*
X0064018Y0051189D01*
X0067635Y0050637D01*
X0067610Y0050473D01*
G37*
G36*
X0065845Y0055464D02*
X0062228Y0056016D01*
X0062253Y0056180D01*
X0065870Y0055628D01*
X0065845Y0055464D01*
G37*
G36*
X0065895Y0055793D02*
X0062278Y0056345D01*
X0062303Y0056509D01*
X0065920Y0055957D01*
X0065895Y0055793D01*
G37*
G36*
X0061266Y0045374D02*
X0057649Y0045926D01*
X0057674Y0046090D01*
X0061291Y0045538D01*
X0061266Y0045374D01*
G37*
G36*
X0060646Y0044626D02*
X0057029Y0045178D01*
X0057054Y0045342D01*
X0060671Y0044790D01*
X0060646Y0044626D01*
G37*
G36*
X0059430Y0043295D02*
X0055813Y0043847D01*
X0055838Y0044011D01*
X0059455Y0043459D01*
X0059430Y0043295D01*
G37*
G36*
X0059405Y0043129D02*
X0055788Y0043681D01*
X0055813Y0043845D01*
X0059430Y0043293D01*
X0059405Y0043129D01*
G37*
G36*
X0058785Y0042382D02*
X0055168Y0042934D01*
X0055193Y0043098D01*
X0058810Y0042546D01*
X0058785Y0042382D01*
G37*
G36*
X0058190Y0041798D02*
X0054573Y0042350D01*
X0054598Y0042514D01*
X0058215Y0041962D01*
X0058190Y0041798D01*
G37*
G36*
X0057569Y0041050D02*
X0053952Y0041602D01*
X0053977Y0041766D01*
X0057594Y0041214D01*
X0057569Y0041050D01*
G37*
G36*
X0064961Y0082745D02*
X0061344Y0083297D01*
X0061369Y0083461D01*
X0064986Y0082909D01*
X0064961Y0082745D01*
G37*
G36*
X0063473Y0089548D02*
X0059856Y0090100D01*
X0059881Y0090264D01*
X0063498Y0089712D01*
X0063473Y0089548D01*
G37*
G36*
X0060498Y0086632D02*
X0056881Y0087184D01*
X0056906Y0087348D01*
X0060523Y0086796D01*
X0060498Y0086632D01*
G37*
G36*
X0060472Y0086467D02*
X0056855Y0087019D01*
X0056880Y0087183D01*
X0060497Y0086631D01*
X0060472Y0086467D01*
G37*
G36*
X0057416Y0089632D02*
X0053799Y0090184D01*
X0053824Y0090348D01*
X0057441Y0089796D01*
X0057416Y0089632D01*
G37*
D302*
G36*
X0058830Y0084526D02*
X0055697Y0085004D01*
X0055722Y0085168D01*
X0058855Y0084690D01*
X0058830Y0084526D01*
G37*
G36*
X0063511Y0078752D02*
X0060378Y0079230D01*
X0060403Y0079394D01*
X0063536Y0078916D01*
X0063511Y0078752D01*
G37*
G36*
X0074384Y0077088D02*
X0071251Y0077566D01*
X0071276Y0077730D01*
X0074409Y0077252D01*
X0074384Y0077088D01*
G37*
G36*
X0074628Y0077556D02*
X0071495Y0078034D01*
X0071520Y0078198D01*
X0074653Y0077720D01*
X0074628Y0077556D01*
G37*
G36*
X0074703Y0078051D02*
X0071570Y0078529D01*
X0071595Y0078693D01*
X0074728Y0078215D01*
X0074703Y0078051D01*
G37*
G36*
X0074779Y0078545D02*
X0071646Y0079023D01*
X0071671Y0079187D01*
X0074804Y0078709D01*
X0074779Y0078545D01*
G37*
G36*
X0074855Y0079039D02*
X0071722Y0079517D01*
X0071747Y0079681D01*
X0074880Y0079203D01*
X0074855Y0079039D01*
G37*
G36*
X0080618Y0078157D02*
X0077485Y0078635D01*
X0077510Y0078799D01*
X0080643Y0078321D01*
X0080618Y0078157D01*
G37*
G36*
X0080693Y0078652D02*
X0077560Y0079130D01*
X0077585Y0079294D01*
X0080718Y0078816D01*
X0080693Y0078652D01*
G37*
G36*
X0080769Y0079146D02*
X0077636Y0079624D01*
X0077661Y0079788D01*
X0080794Y0079310D01*
X0080769Y0079146D01*
G37*
G36*
X0080670Y0080678D02*
X0077537Y0081156D01*
X0077562Y0081320D01*
X0080695Y0080842D01*
X0080670Y0080678D01*
G37*
G36*
X0085025Y0080518D02*
X0081892Y0080996D01*
X0081917Y0081160D01*
X0085050Y0080682D01*
X0085025Y0080518D01*
G37*
G36*
X0085118Y0079998D02*
X0081985Y0080476D01*
X0082010Y0080640D01*
X0085143Y0080162D01*
X0085118Y0079998D01*
G37*
G36*
X0085042Y0079504D02*
X0081909Y0079982D01*
X0081934Y0080146D01*
X0085067Y0079668D01*
X0085042Y0079504D01*
G37*
G36*
X0080391Y0076675D02*
X0077258Y0077153D01*
X0077283Y0077317D01*
X0080416Y0076839D01*
X0080391Y0076675D01*
G37*
G36*
X0080315Y0076180D02*
X0077182Y0076658D01*
X0077207Y0076822D01*
X0080340Y0076344D01*
X0080315Y0076180D01*
G37*
G36*
X0080239Y0075686D02*
X0077106Y0076164D01*
X0077131Y0076328D01*
X0080264Y0075850D01*
X0080239Y0075686D01*
G37*
G36*
X0066503Y0064131D02*
X0063370Y0064609D01*
X0063395Y0064773D01*
X0066528Y0064295D01*
X0066503Y0064131D01*
G37*
G36*
X0066428Y0063637D02*
X0063295Y0064115D01*
X0063320Y0064279D01*
X0066453Y0063801D01*
X0066428Y0063637D01*
G37*
G36*
X0066352Y0063142D02*
X0063219Y0063620D01*
X0063244Y0063784D01*
X0066377Y0063306D01*
X0066352Y0063142D01*
G37*
G36*
X0066277Y0062648D02*
X0063144Y0063126D01*
X0063169Y0063290D01*
X0066302Y0062812D01*
X0066277Y0062648D01*
G37*
G36*
X0065846Y0057656D02*
X0062713Y0058134D01*
X0062738Y0058298D01*
X0065871Y0057820D01*
X0065846Y0057656D01*
G37*
G36*
X0065771Y0057161D02*
X0062638Y0057639D01*
X0062663Y0057803D01*
X0065796Y0057325D01*
X0065771Y0057161D01*
G37*
G36*
X0065695Y0056667D02*
X0062562Y0057145D01*
X0062587Y0057309D01*
X0065720Y0056831D01*
X0065695Y0056667D01*
G37*
G36*
X0063397Y0050443D02*
X0060264Y0050921D01*
X0060289Y0051085D01*
X0063422Y0050607D01*
X0063397Y0050443D01*
G37*
G36*
X0063322Y0049949D02*
X0060189Y0050427D01*
X0060214Y0050591D01*
X0063347Y0050113D01*
X0063322Y0049949D01*
G37*
G36*
X0063078Y0049480D02*
X0059945Y0049958D01*
X0059970Y0050122D01*
X0063103Y0049644D01*
X0063078Y0049480D01*
G37*
G36*
X0062525Y0048048D02*
X0059392Y0048526D01*
X0059417Y0048690D01*
X0062550Y0048212D01*
X0062525Y0048048D01*
G37*
G36*
X0062449Y0047553D02*
X0059316Y0048031D01*
X0059341Y0048195D01*
X0062474Y0047717D01*
X0062449Y0047553D01*
G37*
G36*
X0069125Y0046026D02*
X0065992Y0046504D01*
X0066017Y0046668D01*
X0069150Y0046190D01*
X0069125Y0046026D01*
G37*
G36*
X0069218Y0045506D02*
X0066085Y0045984D01*
X0066110Y0046148D01*
X0069243Y0045670D01*
X0069218Y0045506D01*
G37*
G36*
X0069317Y0043973D02*
X0066184Y0044451D01*
X0066209Y0044615D01*
X0069342Y0044137D01*
X0069317Y0043973D01*
G37*
G36*
X0069241Y0043479D02*
X0066108Y0043957D01*
X0066133Y0044121D01*
X0069266Y0043643D01*
X0069241Y0043479D01*
G37*
G36*
X0069334Y0042959D02*
X0066201Y0043437D01*
X0066226Y0043601D01*
X0069359Y0043123D01*
X0069334Y0042959D01*
G37*
G36*
X0069258Y0042465D02*
X0066125Y0042943D01*
X0066150Y0043107D01*
X0069283Y0042629D01*
X0069258Y0042465D01*
G37*
G36*
X0069282Y0040438D02*
X0066149Y0040916D01*
X0066174Y0041080D01*
X0069307Y0040602D01*
X0069282Y0040438D01*
G37*
G36*
X0069374Y0039918D02*
X0066241Y0040396D01*
X0066266Y0040560D01*
X0069399Y0040082D01*
X0069374Y0039918D01*
G37*
G36*
X0069298Y0039424D02*
X0066165Y0039902D01*
X0066190Y0040066D01*
X0069323Y0039588D01*
X0069298Y0039424D01*
G37*
G36*
X0059211Y0056142D02*
X0056078Y0056620D01*
X0056103Y0056784D01*
X0059236Y0056306D01*
X0059211Y0056142D01*
G37*
G36*
X0059119Y0056662D02*
X0055986Y0057140D01*
X0056011Y0057304D01*
X0059144Y0056826D01*
X0059119Y0056662D01*
G37*
G36*
X0059019Y0058195D02*
X0055886Y0058673D01*
X0055911Y0058837D01*
X0059044Y0058359D01*
X0059019Y0058195D01*
G37*
G36*
X0058927Y0058715D02*
X0055794Y0059193D01*
X0055819Y0059357D01*
X0058952Y0058879D01*
X0058927Y0058715D01*
G37*
G36*
X0059003Y0059209D02*
X0055870Y0059687D01*
X0055895Y0059851D01*
X0059028Y0059373D01*
X0059003Y0059209D01*
G37*
G36*
X0055103Y0086614D02*
X0051970Y0087092D01*
X0051995Y0087256D01*
X0055128Y0086778D01*
X0055103Y0086614D01*
G37*
D303*
G36*
X0063198Y0089928D02*
X0060233Y0090380D01*
X0060258Y0090544D01*
X0063223Y0090092D01*
X0063198Y0089928D01*
G37*
G36*
X0067302Y0071596D02*
X0064337Y0072048D01*
X0064362Y0072212D01*
X0067327Y0071760D01*
X0067302Y0071596D01*
G37*
G36*
X0066201Y0062154D02*
X0063236Y0062606D01*
X0063261Y0062770D01*
X0066226Y0062318D01*
X0066201Y0062154D01*
G37*
G36*
X0066125Y0061660D02*
X0063160Y0062112D01*
X0063185Y0062276D01*
X0066150Y0061824D01*
X0066125Y0061660D01*
G37*
G36*
X0065830Y0058670D02*
X0062865Y0059122D01*
X0062890Y0059286D01*
X0065855Y0058834D01*
X0065830Y0058670D01*
G37*
G36*
X0065754Y0058176D02*
X0062789Y0058628D01*
X0062814Y0058792D01*
X0065779Y0058340D01*
X0065754Y0058176D01*
G37*
G36*
X0069182Y0041971D02*
X0066217Y0042423D01*
X0066242Y0042587D01*
X0069207Y0042135D01*
X0069182Y0041971D01*
G37*
G36*
X0084286Y0074561D02*
X0081321Y0075013D01*
X0081346Y0075177D01*
X0084311Y0074725D01*
X0084286Y0074561D01*
G37*
G36*
X0084746Y0076514D02*
X0081781Y0076966D01*
X0081806Y0077130D01*
X0084771Y0076678D01*
X0084746Y0076514D01*
G37*
G36*
X0084822Y0077008D02*
X0081857Y0077460D01*
X0081882Y0077624D01*
X0084847Y0077172D01*
X0084822Y0077008D01*
G37*
G36*
X0084898Y0077503D02*
X0081933Y0077955D01*
X0081958Y0078119D01*
X0084923Y0077667D01*
X0084898Y0077503D01*
G37*
G36*
X0083712Y0086283D02*
X0080747Y0086735D01*
X0080772Y0086899D01*
X0083737Y0086447D01*
X0083712Y0086283D01*
G37*
G36*
X0080542Y0077663D02*
X0077577Y0078115D01*
X0077602Y0078279D01*
X0080567Y0077827D01*
X0080542Y0077663D01*
G37*
G36*
X0080466Y0077169D02*
X0077501Y0077621D01*
X0077526Y0077785D01*
X0080491Y0077333D01*
X0080466Y0077169D01*
G37*
D304*
G36*
X0079992Y0083985D02*
X0076207Y0084563D01*
X0076232Y0084727D01*
X0080017Y0084149D01*
X0079992Y0083985D01*
G37*
G36*
X0079849Y0084176D02*
X0076064Y0084754D01*
X0076089Y0084918D01*
X0079874Y0084340D01*
X0079849Y0084176D01*
G37*
G36*
X0074427Y0081802D02*
X0070642Y0082380D01*
X0070667Y0082544D01*
X0074452Y0081966D01*
X0074427Y0081802D01*
G37*
G36*
X0073612Y0075351D02*
X0069827Y0075929D01*
X0069852Y0076093D01*
X0073637Y0075515D01*
X0073612Y0075351D01*
G37*
G36*
X0070534Y0086107D02*
X0066749Y0086685D01*
X0066774Y0086849D01*
X0070559Y0086271D01*
X0070534Y0086107D01*
G37*
G36*
X0065531Y0083163D02*
X0061746Y0083741D01*
X0061771Y0083905D01*
X0065556Y0083327D01*
X0065531Y0083163D01*
G37*
G36*
X0061286Y0087354D02*
X0057501Y0087932D01*
X0057526Y0088096D01*
X0061311Y0087518D01*
X0061286Y0087354D01*
G37*
G36*
X0061068Y0087050D02*
X0057283Y0087628D01*
X0057308Y0087792D01*
X0061093Y0087214D01*
X0061068Y0087050D01*
G37*
G36*
X0058204Y0090354D02*
X0054419Y0090932D01*
X0054444Y0091096D01*
X0058229Y0090518D01*
X0058204Y0090354D01*
G37*
G36*
X0068416Y0072269D02*
X0064631Y0072847D01*
X0064656Y0073011D01*
X0068441Y0072433D01*
X0068416Y0072269D01*
G37*
G36*
X0071369Y0060689D02*
X0067584Y0061267D01*
X0067609Y0061431D01*
X0071394Y0060853D01*
X0071369Y0060689D01*
G37*
G36*
X0071619Y0060145D02*
X0067834Y0060723D01*
X0067859Y0060887D01*
X0071644Y0060309D01*
X0071619Y0060145D01*
G37*
G36*
X0072130Y0059055D02*
X0068345Y0059633D01*
X0068370Y0059797D01*
X0072155Y0059219D01*
X0072130Y0059055D01*
G37*
G36*
X0072524Y0058320D02*
X0068739Y0058898D01*
X0068764Y0059062D01*
X0072549Y0058484D01*
X0072524Y0058320D01*
G37*
G36*
X0072892Y0057421D02*
X0069107Y0057999D01*
X0069132Y0058163D01*
X0072917Y0057585D01*
X0072892Y0057421D01*
G37*
G36*
X0073285Y0056686D02*
X0069500Y0057264D01*
X0069525Y0057428D01*
X0073310Y0056850D01*
X0073285Y0056686D01*
G37*
G36*
X0073536Y0056142D02*
X0069751Y0056720D01*
X0069776Y0056884D01*
X0073561Y0056306D01*
X0073536Y0056142D01*
G37*
G36*
X0072774Y0057776D02*
X0068989Y0058354D01*
X0069014Y0058518D01*
X0072799Y0057940D01*
X0072774Y0057776D01*
G37*
G36*
X0072381Y0058511D02*
X0068596Y0059089D01*
X0068621Y0059253D01*
X0072406Y0058675D01*
X0072381Y0058511D01*
G37*
G36*
X0068146Y0049548D02*
X0064361Y0050126D01*
X0064386Y0050290D01*
X0068171Y0049712D01*
X0068146Y0049548D01*
G37*
G36*
X0068540Y0048813D02*
X0064755Y0049391D01*
X0064780Y0049555D01*
X0068565Y0048977D01*
X0068540Y0048813D01*
G37*
G36*
X0068790Y0048269D02*
X0065005Y0048847D01*
X0065030Y0049011D01*
X0068815Y0048433D01*
X0068790Y0048269D01*
G37*
G36*
X0068397Y0049004D02*
X0064612Y0049582D01*
X0064637Y0049746D01*
X0068422Y0049168D01*
X0068397Y0049004D01*
G37*
G36*
X0061769Y0065193D02*
X0057984Y0065771D01*
X0058009Y0065935D01*
X0061794Y0065357D01*
X0061769Y0065193D01*
G37*
G36*
X0062583Y0066080D02*
X0058798Y0066658D01*
X0058823Y0066822D01*
X0062608Y0066244D01*
X0062583Y0066080D01*
G37*
G36*
X0062960Y0066359D02*
X0059175Y0066937D01*
X0059200Y0067101D01*
X0062985Y0066523D01*
X0062960Y0066359D01*
G37*
G36*
X0061988Y0065496D02*
X0058203Y0066074D01*
X0058228Y0066238D01*
X0062013Y0065660D01*
X0061988Y0065496D01*
G37*
G36*
X0061368Y0064748D02*
X0057583Y0065326D01*
X0057608Y0065490D01*
X0061393Y0064912D01*
X0061368Y0064748D01*
G37*
G36*
X0061174Y0064609D02*
X0057389Y0065187D01*
X0057414Y0065351D01*
X0061199Y0064773D01*
X0061174Y0064609D01*
G37*
D305*
G36*
X0062776Y0066218D02*
X0058981Y0066798D01*
X0059006Y0066962D01*
X0062801Y0066382D01*
X0062776Y0066218D01*
G37*
G36*
X0073428Y0056495D02*
X0069633Y0057075D01*
X0069658Y0057239D01*
X0073453Y0056659D01*
X0073428Y0056495D01*
G37*
G36*
X0068683Y0048622D02*
X0064888Y0049202D01*
X0064913Y0049366D01*
X0068708Y0048786D01*
X0068683Y0048622D01*
G37*
G36*
X0065348Y0083023D02*
X0061553Y0083603D01*
X0061578Y0083767D01*
X0065373Y0083187D01*
X0065348Y0083023D01*
G37*
G36*
X0061348Y0093245D02*
X0057553Y0093825D01*
X0057578Y0093989D01*
X0061373Y0093409D01*
X0061348Y0093245D01*
G37*
G36*
X0083973Y0085737D02*
X0080178Y0086317D01*
X0080203Y0086481D01*
X0083998Y0085901D01*
X0083973Y0085737D01*
G37*
D306*
G36*
X0067503Y0050826D02*
X0060584Y0051884D01*
X0060609Y0052048D01*
X0067528Y0050990D01*
X0067503Y0050826D01*
G37*
D307*
G36*
X0067360Y0051017D02*
X0060767Y0052025D01*
X0060792Y0052189D01*
X0067385Y0051181D01*
X0067360Y0051017D01*
G37*
G36*
X0067385Y0051182D02*
X0060792Y0052190D01*
X0060817Y0052354D01*
X0067410Y0051346D01*
X0067385Y0051182D01*
G37*
G36*
X0069989Y0063766D02*
X0063396Y0064774D01*
X0063421Y0064938D01*
X0070014Y0063930D01*
X0069989Y0063766D01*
G37*
G36*
X0070014Y0063931D02*
X0063421Y0064939D01*
X0063446Y0065103D01*
X0070039Y0064095D01*
X0070014Y0063931D01*
G37*
D308*
G36*
X0069871Y0064121D02*
X0063446Y0065103D01*
X0063471Y0065267D01*
X0069896Y0064285D01*
X0069871Y0064121D01*
G37*
G36*
X0067242Y0051372D02*
X0060817Y0052354D01*
X0060842Y0052518D01*
X0067267Y0051536D01*
X0067242Y0051372D01*
G37*
D309*
G36*
X0067108Y0051561D02*
X0060842Y0052519D01*
X0060868Y0052683D01*
X0067134Y0051725D01*
X0067108Y0051561D01*
G37*
G36*
X0067134Y0051726D02*
X0060868Y0052684D01*
X0060894Y0052848D01*
X0067160Y0051890D01*
X0067134Y0051726D01*
G37*
G36*
X0068222Y0068757D02*
X0061956Y0069715D01*
X0061982Y0069879D01*
X0068248Y0068921D01*
X0068222Y0068757D01*
G37*
D310*
G36*
X0069527Y0065186D02*
X0063597Y0066092D01*
X0063623Y0066256D01*
X0069553Y0065350D01*
X0069527Y0065186D01*
G37*
G36*
X0066991Y0051917D02*
X0061061Y0052823D01*
X0061087Y0052987D01*
X0067017Y0052081D01*
X0066991Y0051917D01*
G37*
D311*
G36*
X0067016Y0052081D02*
X0061086Y0052987D01*
X0061112Y0053151D01*
X0067042Y0052245D01*
X0067016Y0052081D01*
G37*
G36*
X0069502Y0065021D02*
X0063572Y0065927D01*
X0063598Y0066091D01*
X0069528Y0065185D01*
X0069502Y0065021D01*
G37*
D312*
G36*
X0069384Y0065376D02*
X0063622Y0066256D01*
X0063648Y0066420D01*
X0069410Y0065540D01*
X0069384Y0065376D01*
G37*
G36*
X0069410Y0065541D02*
X0063648Y0066421D01*
X0063674Y0066585D01*
X0069436Y0065705D01*
X0069410Y0065541D01*
G37*
G36*
X0068105Y0069113D02*
X0062343Y0069993D01*
X0062369Y0070157D01*
X0068131Y0069277D01*
X0068105Y0069113D01*
G37*
G36*
X0069455Y0072447D02*
X0063693Y0073327D01*
X0063719Y0073491D01*
X0069481Y0072611D01*
X0069455Y0072447D01*
G37*
G36*
X0066873Y0052272D02*
X0061111Y0053152D01*
X0061137Y0053316D01*
X0066899Y0052436D01*
X0066873Y0052272D01*
G37*
D313*
G36*
X0066740Y0052461D02*
X0061137Y0053317D01*
X0061162Y0053481D01*
X0066765Y0052625D01*
X0066740Y0052461D01*
G37*
G36*
X0069277Y0065730D02*
X0063674Y0066586D01*
X0063699Y0066750D01*
X0069302Y0065894D01*
X0069277Y0065730D01*
G37*
D314*
G36*
X0069302Y0065894D02*
X0063699Y0066750D01*
X0063724Y0066914D01*
X0069327Y0066058D01*
X0069302Y0065894D01*
G37*
G36*
X0068130Y0069278D02*
X0062527Y0070134D01*
X0062552Y0070298D01*
X0068155Y0069442D01*
X0068130Y0069278D01*
G37*
G36*
X0066766Y0052625D02*
X0061163Y0053481D01*
X0061188Y0053645D01*
X0066791Y0052789D01*
X0066766Y0052625D01*
G37*
D315*
G36*
X0066623Y0052815D02*
X0061356Y0053621D01*
X0061381Y0053785D01*
X0066648Y0052979D01*
X0066623Y0052815D01*
G37*
D316*
G36*
X0066648Y0052980D02*
X0061381Y0053786D01*
X0061406Y0053950D01*
X0066673Y0053144D01*
X0066648Y0052980D01*
G37*
D317*
G36*
X0066505Y0053170D02*
X0061406Y0053950D01*
X0061431Y0054114D01*
X0066530Y0053334D01*
X0066505Y0053170D01*
G37*
G36*
X0066530Y0053335D02*
X0061431Y0054115D01*
X0061456Y0054279D01*
X0066555Y0053499D01*
X0066530Y0053335D01*
G37*
D318*
G36*
X0072137Y0054670D02*
X0070656Y0054896D01*
X0070681Y0055060D01*
X0072162Y0054834D01*
X0072137Y0054670D01*
G37*
G36*
X0057652Y0055874D02*
X0056171Y0056100D01*
X0056196Y0056264D01*
X0057677Y0056038D01*
X0057652Y0055874D01*
G37*
D319*
G36*
X0058171Y0055963D02*
X0056027Y0056291D01*
X0056053Y0056455D01*
X0058197Y0056127D01*
X0058171Y0055963D01*
G37*
G36*
X0072681Y0054923D02*
X0070537Y0055251D01*
X0070563Y0055415D01*
X0072707Y0055087D01*
X0072681Y0054923D01*
G37*
G36*
X0083604Y0086636D02*
X0081460Y0086964D01*
X0081486Y0087128D01*
X0083630Y0086800D01*
X0083604Y0086636D01*
G37*
G36*
X0060811Y0094170D02*
X0058667Y0094498D01*
X0058693Y0094662D01*
X0060837Y0094334D01*
X0060811Y0094170D01*
G37*
D320*
G36*
X0058780Y0084197D02*
X0056141Y0084599D01*
X0056166Y0084763D01*
X0058805Y0084361D01*
X0058780Y0084197D01*
G37*
G36*
X0055078Y0086450D02*
X0052439Y0086852D01*
X0052464Y0087016D01*
X0055103Y0086614D01*
X0055078Y0086450D01*
G37*
G36*
X0058692Y0056053D02*
X0056053Y0056455D01*
X0056078Y0056619D01*
X0058717Y0056217D01*
X0058692Y0056053D01*
G37*
G36*
X0079599Y0084721D02*
X0076960Y0085123D01*
X0076985Y0085287D01*
X0079624Y0084885D01*
X0079599Y0084721D01*
G37*
G36*
X0084261Y0074397D02*
X0081622Y0074799D01*
X0081647Y0074963D01*
X0084286Y0074561D01*
X0084261Y0074397D01*
G37*
D321*
G36*
X0073419Y0075212D02*
X0069466Y0075816D01*
X0069491Y0075980D01*
X0073444Y0075376D01*
X0073419Y0075212D01*
G37*
G36*
X0064691Y0076548D02*
X0060738Y0077152D01*
X0060763Y0077316D01*
X0064716Y0076712D01*
X0064691Y0076548D01*
G37*
G36*
X0063346Y0066637D02*
X0059393Y0067241D01*
X0059418Y0067405D01*
X0063371Y0066801D01*
X0063346Y0066637D01*
G37*
G36*
X0065962Y0055109D02*
X0062009Y0055713D01*
X0062034Y0055877D01*
X0065987Y0055273D01*
X0065962Y0055109D01*
G37*
G36*
X0061663Y0087633D02*
X0057710Y0088237D01*
X0057735Y0088401D01*
X0061688Y0087797D01*
X0061663Y0087633D01*
G37*
G36*
X0063616Y0089358D02*
X0059663Y0089962D01*
X0059688Y0090126D01*
X0063641Y0089522D01*
X0063616Y0089358D01*
G37*
G36*
X0058993Y0091077D02*
X0055040Y0091681D01*
X0055065Y0091845D01*
X0059018Y0091241D01*
X0058993Y0091077D01*
G37*
G36*
X0058581Y0090634D02*
X0054628Y0091238D01*
X0054653Y0091402D01*
X0058606Y0090798D01*
X0058581Y0090634D01*
G37*
D322*
G36*
X0071399Y0054277D02*
X0070906Y0054352D01*
X0070931Y0054515D01*
X0071424Y0054440D01*
X0071399Y0054277D01*
G37*
D323*
G36*
X0071943Y0054531D02*
X0070788Y0054707D01*
X0070813Y0054871D01*
X0071968Y0054695D01*
X0071943Y0054531D01*
G37*
D324*
G36*
X0072320Y0054810D02*
X0070680Y0055060D01*
X0070706Y0055224D01*
X0072346Y0054974D01*
X0072320Y0054810D01*
G37*
G36*
X0058561Y0083893D02*
X0056921Y0084143D01*
X0056947Y0084307D01*
X0058587Y0084057D01*
X0058561Y0083893D01*
G37*
D325*
G36*
X0069907Y0086371D02*
X0067436Y0086749D01*
X0067461Y0086913D01*
X0069932Y0086535D01*
X0069907Y0086371D01*
G37*
G36*
X0072865Y0055064D02*
X0070394Y0055442D01*
X0070419Y0055606D01*
X0072890Y0055228D01*
X0072865Y0055064D01*
G37*
D326*
G36*
X0073227Y0055177D02*
X0070420Y0055605D01*
X0070445Y0055769D01*
X0073252Y0055341D01*
X0073227Y0055177D01*
G37*
D327*
G36*
X0066151Y0061824D02*
X0063186Y0062276D01*
X0063211Y0062440D01*
X0066176Y0061988D01*
X0066151Y0061824D01*
G37*
G36*
X0066176Y0061989D02*
X0063211Y0062441D01*
X0063236Y0062605D01*
X0066201Y0062153D01*
X0066176Y0061989D01*
G37*
G36*
X0066226Y0062319D02*
X0063261Y0062771D01*
X0063286Y0062935D01*
X0066251Y0062483D01*
X0066226Y0062319D01*
G37*
G36*
X0066251Y0062484D02*
X0063286Y0062936D01*
X0063311Y0063100D01*
X0066276Y0062648D01*
X0066251Y0062484D01*
G37*
G36*
X0065805Y0058505D02*
X0062840Y0058957D01*
X0062865Y0059121D01*
X0065830Y0058669D01*
X0065805Y0058505D01*
G37*
G36*
X0065779Y0058340D02*
X0062814Y0058792D01*
X0062839Y0058956D01*
X0065804Y0058504D01*
X0065779Y0058340D01*
G37*
G36*
X0065729Y0058011D02*
X0062764Y0058463D01*
X0062789Y0058627D01*
X0065754Y0058175D01*
X0065729Y0058011D01*
G37*
G36*
X0065704Y0057846D02*
X0062739Y0058298D01*
X0062764Y0058462D01*
X0065729Y0058010D01*
X0065704Y0057846D01*
G37*
G36*
X0067327Y0071761D02*
X0064362Y0072213D01*
X0064387Y0072377D01*
X0067352Y0071925D01*
X0067327Y0071761D01*
G37*
G36*
X0067571Y0072229D02*
X0064606Y0072681D01*
X0064631Y0072845D01*
X0067596Y0072393D01*
X0067571Y0072229D01*
G37*
G36*
X0067352Y0071926D02*
X0064387Y0072378D01*
X0064412Y0072542D01*
X0067377Y0072090D01*
X0067352Y0071926D01*
G37*
G36*
X0079741Y0084530D02*
X0076776Y0084982D01*
X0076801Y0085146D01*
X0079766Y0084694D01*
X0079741Y0084530D01*
G37*
G36*
X0080592Y0077993D02*
X0077627Y0078445D01*
X0077652Y0078609D01*
X0080617Y0078157D01*
X0080592Y0077993D01*
G37*
G36*
X0080567Y0077828D02*
X0077602Y0078280D01*
X0077627Y0078444D01*
X0080592Y0077992D01*
X0080567Y0077828D01*
G37*
G36*
X0080517Y0077499D02*
X0077552Y0077951D01*
X0077577Y0078115D01*
X0080542Y0077663D01*
X0080517Y0077499D01*
G37*
G36*
X0080491Y0077334D02*
X0077526Y0077786D01*
X0077551Y0077950D01*
X0080516Y0077498D01*
X0080491Y0077334D01*
G37*
G36*
X0084772Y0076679D02*
X0081807Y0077131D01*
X0081832Y0077295D01*
X0084797Y0076843D01*
X0084772Y0076679D01*
G37*
G36*
X0084797Y0076844D02*
X0081832Y0077296D01*
X0081857Y0077460D01*
X0084822Y0077008D01*
X0084797Y0076844D01*
G37*
G36*
X0084847Y0077173D02*
X0081882Y0077625D01*
X0081907Y0077789D01*
X0084872Y0077337D01*
X0084847Y0077173D01*
G37*
G36*
X0084873Y0077338D02*
X0081908Y0077790D01*
X0081933Y0077954D01*
X0084898Y0077502D01*
X0084873Y0077338D01*
G37*
G36*
X0084923Y0077667D02*
X0081958Y0078119D01*
X0081983Y0078283D01*
X0084948Y0077831D01*
X0084923Y0077667D01*
G37*
G36*
X0084721Y0076349D02*
X0081756Y0076801D01*
X0081781Y0076965D01*
X0084746Y0076513D01*
X0084721Y0076349D01*
G37*
G36*
X0084696Y0076184D02*
X0081731Y0076636D01*
X0081756Y0076800D01*
X0084721Y0076348D01*
X0084696Y0076184D01*
G37*
G36*
X0084992Y0079174D02*
X0082027Y0079626D01*
X0082052Y0079790D01*
X0085017Y0079338D01*
X0084992Y0079174D01*
G37*
D328*
G36*
X0069753Y0064477D02*
X0063496Y0065433D01*
X0063521Y0065597D01*
X0069778Y0064641D01*
X0069753Y0064477D01*
G37*
G36*
X0069728Y0064312D02*
X0063471Y0065268D01*
X0063496Y0065432D01*
X0069753Y0064476D01*
X0069728Y0064312D01*
G37*
D329*
G36*
X0069620Y0064665D02*
X0063522Y0065597D01*
X0063548Y0065761D01*
X0069646Y0064829D01*
X0069620Y0064665D01*
G37*
G36*
X0068248Y0068922D02*
X0062150Y0069854D01*
X0062176Y0070018D01*
X0068274Y0069086D01*
X0068248Y0068922D01*
G37*
D330*
G36*
X0069645Y0064830D02*
X0063547Y0065762D01*
X0063573Y0065926D01*
X0069671Y0064994D01*
X0069645Y0064830D01*
G37*
D331*
G36*
X0071450Y0073322D02*
X0062061Y0074758D01*
X0062086Y0074922D01*
X0071475Y0073486D01*
X0071450Y0073322D01*
G37*
G36*
X0073114Y0084195D02*
X0063725Y0085631D01*
X0063750Y0085795D01*
X0073139Y0084359D01*
X0073114Y0084195D01*
G37*
G36*
X0069159Y0066085D02*
X0059770Y0067521D01*
X0059795Y0067685D01*
X0069184Y0066249D01*
X0069159Y0066085D01*
G37*
D332*
G36*
X0069184Y0066249D02*
X0059795Y0067685D01*
X0059820Y0067849D01*
X0069209Y0066413D01*
X0069184Y0066249D01*
G37*
D333*
G36*
X0069041Y0066440D02*
X0059988Y0067824D01*
X0060013Y0067988D01*
X0069066Y0066604D01*
X0069041Y0066440D01*
G37*
D334*
G36*
X0069067Y0066605D02*
X0060172Y0067965D01*
X0060197Y0068129D01*
X0069092Y0066769D01*
X0069067Y0066605D01*
G37*
D335*
G36*
X0068934Y0066794D02*
X0060365Y0068104D01*
X0060390Y0068268D01*
X0068959Y0066958D01*
X0068934Y0066794D01*
G37*
D336*
G36*
X0068791Y0066984D02*
X0060390Y0068268D01*
X0060415Y0068432D01*
X0068816Y0067148D01*
X0068791Y0066984D01*
G37*
G36*
X0072670Y0084600D02*
X0064269Y0085884D01*
X0064294Y0086048D01*
X0072695Y0084764D01*
X0072670Y0084600D01*
G37*
D337*
G36*
X0068816Y0067148D02*
X0060583Y0068407D01*
X0060608Y0068572D01*
X0068841Y0067313D01*
X0068816Y0067148D01*
G37*
D338*
G36*
X0068674Y0067339D02*
X0060767Y0068548D01*
X0060792Y0068713D01*
X0068699Y0067504D01*
X0068674Y0067339D01*
G37*
D339*
G36*
X0068699Y0067503D02*
X0060960Y0068687D01*
X0060985Y0068851D01*
X0068724Y0067667D01*
X0068699Y0067503D01*
G37*
D340*
G36*
X0070361Y0072813D02*
X0062948Y0073947D01*
X0062973Y0074111D01*
X0070386Y0072977D01*
X0070361Y0072813D01*
G37*
G36*
X0068566Y0067693D02*
X0061153Y0068827D01*
X0061178Y0068991D01*
X0068591Y0067857D01*
X0068566Y0067693D01*
G37*
D341*
G36*
X0068591Y0067857D02*
X0061178Y0068991D01*
X0061203Y0069155D01*
X0068616Y0068021D01*
X0068591Y0067857D01*
G37*
D342*
G36*
X0068448Y0068048D02*
X0061361Y0069132D01*
X0061386Y0069296D01*
X0068473Y0068212D01*
X0068448Y0068048D01*
G37*
G36*
X0072084Y0085195D02*
X0064997Y0086279D01*
X0065022Y0086443D01*
X0072109Y0085359D01*
X0072084Y0085195D01*
G37*
D343*
G36*
X0068474Y0068213D02*
X0061555Y0069271D01*
X0061580Y0069435D01*
X0068499Y0068377D01*
X0068474Y0068213D01*
G37*
D344*
G36*
X0068331Y0068404D02*
X0061748Y0069410D01*
X0061773Y0069574D01*
X0068356Y0068568D01*
X0068331Y0068404D01*
G37*
D345*
G36*
X0068356Y0068568D02*
X0061931Y0069550D01*
X0061956Y0069714D01*
X0068381Y0068732D01*
X0068356Y0068568D01*
G37*
G36*
X0069817Y0072560D02*
X0063392Y0073542D01*
X0063417Y0073706D01*
X0069842Y0072724D01*
X0069817Y0072560D01*
G37*
G36*
X0071783Y0085410D02*
X0065358Y0086392D01*
X0065383Y0086556D01*
X0071808Y0085574D01*
X0071783Y0085410D01*
G37*
D346*
G36*
X0067987Y0069467D02*
X0062552Y0070298D01*
X0062577Y0070463D01*
X0068012Y0069632D01*
X0067987Y0069467D01*
G37*
D347*
G36*
X0067854Y0069656D02*
X0062745Y0070437D01*
X0062770Y0070602D01*
X0067879Y0069821D01*
X0067854Y0069656D01*
G37*
D348*
G36*
X0067619Y0070367D02*
X0063340Y0071021D01*
X0063365Y0071185D01*
X0067644Y0070531D01*
X0067619Y0070367D01*
G37*
G36*
X0065134Y0076142D02*
X0060855Y0076796D01*
X0060880Y0076960D01*
X0065159Y0076306D01*
X0065134Y0076142D01*
G37*
G36*
X0062777Y0088306D02*
X0058498Y0088960D01*
X0058523Y0089124D01*
X0062802Y0088470D01*
X0062777Y0088306D01*
G37*
G36*
X0060484Y0092029D02*
X0056205Y0092683D01*
X0056230Y0092847D01*
X0060509Y0092193D01*
X0060484Y0092029D01*
G37*
G36*
X0059914Y0091610D02*
X0055635Y0092264D01*
X0055660Y0092428D01*
X0059939Y0091774D01*
X0059914Y0091610D01*
G37*
D349*
G36*
X0067645Y0070532D02*
X0063534Y0071160D01*
X0063559Y0071324D01*
X0067670Y0070696D01*
X0067645Y0070532D01*
G37*
D350*
G36*
X0067378Y0072090D02*
X0064581Y0072517D01*
X0064606Y0072682D01*
X0067403Y0072255D01*
X0067378Y0072090D01*
G37*
D351*
G36*
X0070168Y0072674D02*
X0063081Y0073758D01*
X0063106Y0073922D01*
X0070193Y0072838D01*
X0070168Y0072674D01*
G37*
D352*
G36*
X0070712Y0072929D02*
X0062637Y0074163D01*
X0062662Y0074327D01*
X0070737Y0073093D01*
X0070712Y0072929D01*
G37*
G36*
X0072528Y0084791D02*
X0064453Y0086025D01*
X0064478Y0086189D01*
X0072553Y0084955D01*
X0072528Y0084791D01*
G37*
D353*
G36*
X0070906Y0073068D02*
X0062505Y0074352D01*
X0062530Y0074516D01*
X0070931Y0073232D01*
X0070906Y0073068D01*
G37*
D354*
G36*
X0071257Y0073182D02*
X0062194Y0074568D01*
X0062219Y0074732D01*
X0071282Y0073346D01*
X0071257Y0073182D01*
G37*
D355*
G36*
X0071633Y0073462D02*
X0061917Y0074948D01*
X0061943Y0075112D01*
X0071659Y0073626D01*
X0071633Y0073462D01*
G37*
D356*
G36*
X0071826Y0073600D02*
X0061774Y0075138D01*
X0061800Y0075302D01*
X0071852Y0073764D01*
X0071826Y0073600D01*
G37*
D357*
G36*
X0072021Y0073740D02*
X0061642Y0075328D01*
X0061667Y0075492D01*
X0072046Y0073904D01*
X0072021Y0073740D01*
G37*
G36*
X0073533Y0083625D02*
X0063154Y0085213D01*
X0063179Y0085377D01*
X0073558Y0083789D01*
X0073533Y0083625D01*
G37*
D358*
G36*
X0072204Y0073880D02*
X0061499Y0075518D01*
X0061524Y0075682D01*
X0072229Y0074044D01*
X0072204Y0073880D01*
G37*
D359*
G36*
X0072397Y0074020D02*
X0061356Y0075708D01*
X0061381Y0075872D01*
X0072422Y0074184D01*
X0072397Y0074020D01*
G37*
D360*
G36*
X0073926Y0082890D02*
X0062559Y0084628D01*
X0062584Y0084792D01*
X0073951Y0083054D01*
X0073926Y0082890D01*
G37*
G36*
X0073952Y0083055D02*
X0062585Y0084793D01*
X0062610Y0084957D01*
X0073977Y0083219D01*
X0073952Y0083055D01*
G37*
G36*
X0072590Y0074159D02*
X0061223Y0075897D01*
X0061248Y0076061D01*
X0072615Y0074323D01*
X0072590Y0074159D01*
G37*
D361*
G36*
X0072616Y0074324D02*
X0061249Y0076062D01*
X0061274Y0076226D01*
X0072641Y0074488D01*
X0072616Y0074324D01*
G37*
D362*
G36*
X0072799Y0074464D02*
X0061106Y0076252D01*
X0061131Y0076416D01*
X0072824Y0074628D01*
X0072799Y0074464D01*
G37*
D363*
G36*
X0073394Y0075048D02*
X0069283Y0075676D01*
X0069308Y0075840D01*
X0073419Y0075212D01*
X0073394Y0075048D01*
G37*
G36*
X0074453Y0081967D02*
X0070342Y0082595D01*
X0070367Y0082759D01*
X0074478Y0082131D01*
X0074453Y0081967D01*
G37*
G36*
X0061481Y0093057D02*
X0057370Y0093685D01*
X0057395Y0093849D01*
X0061506Y0093221D01*
X0061481Y0093057D01*
G37*
D364*
G36*
X0060418Y0094905D02*
X0059599Y0095030D01*
X0059624Y0095193D01*
X0060443Y0095068D01*
X0060418Y0094905D01*
G37*
G36*
X0058510Y0083563D02*
X0057691Y0083688D01*
X0057716Y0083851D01*
X0058535Y0083726D01*
X0058510Y0083563D01*
G37*
G36*
X0079995Y0075218D02*
X0079176Y0075343D01*
X0079201Y0075506D01*
X0080020Y0075381D01*
X0079995Y0075218D01*
G37*
D365*
G36*
X0058327Y0083423D02*
X0057992Y0083474D01*
X0058017Y0083637D01*
X0058352Y0083586D01*
X0058327Y0083423D01*
G37*
D366*
G36*
X0058587Y0084057D02*
X0056452Y0084383D01*
X0056477Y0084547D01*
X0058612Y0084221D01*
X0058587Y0084057D01*
G37*
D367*
G36*
X0062970Y0088445D02*
X0058691Y0089099D01*
X0058716Y0089263D01*
X0062995Y0088609D01*
X0062970Y0088445D01*
G37*
G36*
X0066244Y0083391D02*
X0061965Y0084045D01*
X0061990Y0084209D01*
X0066269Y0083555D01*
X0066244Y0083391D01*
G37*
G36*
X0060291Y0091890D02*
X0056012Y0092544D01*
X0056037Y0092708D01*
X0060316Y0092054D01*
X0060291Y0091890D01*
G37*
G36*
X0059721Y0091471D02*
X0055442Y0092125D01*
X0055467Y0092289D01*
X0059746Y0091635D01*
X0059721Y0091471D01*
G37*
D368*
G36*
X0054625Y0085675D02*
X0054290Y0085726D01*
X0054315Y0085889D01*
X0054650Y0085838D01*
X0054625Y0085675D01*
G37*
D369*
G36*
X0074059Y0082702D02*
X0062366Y0084490D01*
X0062391Y0084654D01*
X0074084Y0082866D01*
X0074059Y0082702D01*
G37*
D370*
G36*
X0083185Y0087206D02*
X0082356Y0087333D01*
X0082381Y0087496D01*
X0083210Y0087369D01*
X0083185Y0087206D01*
G37*
G36*
X0054650Y0085840D02*
X0053821Y0085967D01*
X0053846Y0086130D01*
X0054675Y0086003D01*
X0054650Y0085840D01*
G37*
D371*
G36*
X0054859Y0086145D02*
X0053051Y0086421D01*
X0053077Y0086585D01*
X0054885Y0086309D01*
X0054859Y0086145D01*
G37*
G36*
X0060668Y0094361D02*
X0058860Y0094637D01*
X0058886Y0094801D01*
X0060694Y0094525D01*
X0060668Y0094361D01*
G37*
G36*
X0083461Y0086827D02*
X0081653Y0087103D01*
X0081679Y0087267D01*
X0083487Y0086991D01*
X0083461Y0086827D01*
G37*
D372*
G36*
X0073809Y0083246D02*
X0062768Y0084934D01*
X0062793Y0085098D01*
X0073834Y0083410D01*
X0073809Y0083246D01*
G37*
D373*
G36*
X0054885Y0086310D02*
X0052750Y0086636D01*
X0052775Y0086800D01*
X0054910Y0086474D01*
X0054885Y0086310D01*
G37*
D374*
G36*
X0073666Y0083435D02*
X0062961Y0085073D01*
X0062986Y0085237D01*
X0073691Y0083599D01*
X0073666Y0083435D01*
G37*
D375*
G36*
X0073390Y0083815D02*
X0063338Y0085353D01*
X0063364Y0085517D01*
X0073416Y0083979D01*
X0073390Y0083815D01*
G37*
D376*
G36*
X0073247Y0084006D02*
X0063531Y0085492D01*
X0063557Y0085656D01*
X0073273Y0084170D01*
X0073247Y0084006D01*
G37*
D377*
G36*
X0072971Y0084385D02*
X0063908Y0085771D01*
X0063933Y0085935D01*
X0072996Y0084549D01*
X0072971Y0084385D01*
G37*
D378*
G36*
X0072385Y0084981D02*
X0064646Y0086165D01*
X0064671Y0086329D01*
X0072410Y0085145D01*
X0072385Y0084981D01*
G37*
D379*
G36*
X0071471Y0085627D02*
X0065709Y0086507D01*
X0065735Y0086671D01*
X0071497Y0085791D01*
X0071471Y0085627D01*
G37*
D380*
G36*
X0079480Y0085075D02*
X0077504Y0085377D01*
X0077530Y0085541D01*
X0079506Y0085239D01*
X0079480Y0085075D01*
G37*
D381*
G36*
X0079347Y0085264D02*
X0077866Y0085490D01*
X0077891Y0085654D01*
X0079372Y0085428D01*
X0079347Y0085264D01*
G37*
G36*
X0060535Y0094550D02*
X0059054Y0094776D01*
X0059079Y0094940D01*
X0060560Y0094714D01*
X0060535Y0094550D01*
G37*
D382*
G36*
X0062686Y0091017D02*
X0061699Y0091168D01*
X0061724Y0091331D01*
X0062711Y0091180D01*
X0062686Y0091017D01*
G37*
G36*
X0079205Y0085455D02*
X0078218Y0085606D01*
X0078243Y0085769D01*
X0079230Y0085618D01*
X0079205Y0085455D01*
G37*
D383*
G36*
X0079230Y0085620D02*
X0078411Y0085745D01*
X0078436Y0085908D01*
X0079255Y0085783D01*
X0079230Y0085620D01*
G37*
D384*
G36*
X0079087Y0085810D02*
X0078762Y0085860D01*
X0078787Y0086024D01*
X0079112Y0085974D01*
X0079087Y0085810D01*
G37*
G36*
X0062410Y0091396D02*
X0062085Y0091446D01*
X0062110Y0091610D01*
X0062435Y0091560D01*
X0062410Y0091396D01*
G37*
D385*
G36*
X0063080Y0090282D02*
X0060609Y0090660D01*
X0060634Y0090824D01*
X0063105Y0090446D01*
X0063080Y0090282D01*
G37*
G36*
X0060955Y0093979D02*
X0058484Y0094357D01*
X0058509Y0094521D01*
X0060980Y0094143D01*
X0060955Y0093979D01*
G37*
G36*
X0083579Y0086471D02*
X0081108Y0086849D01*
X0081133Y0087013D01*
X0083604Y0086635D01*
X0083579Y0086471D01*
G37*
D386*
G36*
X0063223Y0090092D02*
X0060426Y0090519D01*
X0060451Y0090684D01*
X0063248Y0090257D01*
X0063223Y0090092D01*
G37*
D387*
G36*
X0083211Y0087371D02*
X0082550Y0087472D01*
X0082575Y0087635D01*
X0083236Y0087534D01*
X0083211Y0087371D01*
G37*
D388*
G36*
X0062803Y0090662D02*
X0061154Y0090914D01*
X0061179Y0091078D01*
X0062828Y0090826D01*
X0062803Y0090662D01*
G37*
D389*
G36*
X0083068Y0087561D02*
X0082901Y0087586D01*
X0082926Y0087749D01*
X0083093Y0087724D01*
X0083068Y0087561D01*
G37*
D390*
G36*
X0060930Y0093816D02*
X0058291Y0094218D01*
X0058316Y0094382D01*
X0060955Y0093980D01*
X0060930Y0093816D01*
G37*
M02*
