G75*
%MOIN*%
%OFA0B0*%
%FSLAX25Y25*%
%IPPOS*%
%LPD*%
%AMOC8*
5,1,8,0,0,1.08239X$1,22.5*
%
%ADD10R,0.02600X0.08000*%
%ADD11R,0.03150X0.04724*%
%ADD12R,0.01169X0.03346*%
%ADD13R,0.09449X0.06496*%
%ADD14R,0.02756X0.01102*%
%ADD15R,0.03937X0.04331*%
%ADD16R,0.04331X0.03937*%
%ADD17R,0.02500X0.05000*%
%ADD18R,0.07087X0.06299*%
%ADD19R,0.05118X0.05118*%
%ADD20R,0.01969X0.04724*%
%ADD21R,0.04724X0.01969*%
%ADD22R,0.05118X0.04724*%
%ADD23R,0.04724X0.05118*%
%ADD24R,0.15000X0.03600*%
%ADD25C,0.07000*%
%ADD26C,0.06600*%
%ADD27C,0.00600*%
%ADD28C,0.02978*%
D10*
X0060095Y0109133D03*
X0065095Y0109133D03*
X0070095Y0109133D03*
X0075095Y0109133D03*
X0080095Y0109133D03*
X0085095Y0109133D03*
X0090095Y0109133D03*
X0095095Y0109133D03*
X0100095Y0109133D03*
X0105095Y0109133D03*
X0110095Y0109133D03*
X0115095Y0109133D03*
X0115095Y0148733D03*
X0110095Y0148733D03*
X0105095Y0148733D03*
X0100095Y0148733D03*
X0095095Y0148733D03*
X0090095Y0148733D03*
X0085095Y0148733D03*
X0080095Y0148733D03*
X0075095Y0148733D03*
X0070095Y0148733D03*
X0065095Y0148733D03*
X0060095Y0148733D03*
D11*
X0080052Y0041733D03*
X0087138Y0041733D03*
D12*
X0095158Y0052926D03*
X0097127Y0052926D03*
X0099095Y0052926D03*
X0101064Y0052926D03*
X0103032Y0052926D03*
X0103032Y0064540D03*
X0101064Y0064540D03*
X0099095Y0064540D03*
X0097127Y0064540D03*
X0095158Y0064540D03*
D13*
X0099095Y0058733D03*
D14*
X0105001Y0057749D03*
X0105001Y0059717D03*
X0093190Y0059717D03*
X0093190Y0057749D03*
D15*
X0107995Y0071487D03*
X0107995Y0078180D03*
X0117295Y0078180D03*
X0117295Y0071487D03*
D16*
X0099542Y0074433D03*
X0099942Y0084333D03*
X0093249Y0084333D03*
X0092849Y0074433D03*
X0087542Y0058133D03*
X0087342Y0048633D03*
X0080649Y0048633D03*
X0080849Y0058133D03*
X0079749Y0034133D03*
X0086442Y0034133D03*
D17*
X0087195Y0067433D03*
X0083995Y0067433D03*
X0080795Y0067433D03*
D18*
X0112795Y0064245D03*
X0112795Y0053221D03*
D19*
X0096095Y0046839D03*
X0096095Y0035028D03*
D20*
X0100721Y0194602D03*
X0103871Y0194602D03*
X0107020Y0194602D03*
X0110170Y0194602D03*
X0113320Y0194602D03*
X0116469Y0194602D03*
X0116469Y0203264D03*
X0113320Y0203264D03*
X0110170Y0203264D03*
X0107020Y0203264D03*
X0103871Y0203264D03*
X0100721Y0203264D03*
D21*
X0100327Y0198933D03*
X0116863Y0198933D03*
D22*
X0117095Y0180933D03*
X0117095Y0172933D03*
X0108595Y0172933D03*
X0108595Y0180933D03*
X0100095Y0180933D03*
X0100095Y0172933D03*
X0091595Y0172933D03*
X0091595Y0180933D03*
X0091095Y0194933D03*
X0091095Y0202933D03*
D23*
X0095095Y0211433D03*
X0103095Y0211433D03*
D24*
X0042595Y0209933D03*
X0042595Y0199933D03*
X0042595Y0189933D03*
X0042595Y0179933D03*
X0042595Y0169933D03*
X0042595Y0159933D03*
X0042595Y0149933D03*
X0042595Y0139933D03*
X0042595Y0117933D03*
X0042595Y0107933D03*
X0042595Y0097933D03*
X0042595Y0087933D03*
X0042595Y0077933D03*
X0042595Y0067933D03*
X0042595Y0057933D03*
X0042595Y0047933D03*
D25*
X0076095Y0176933D03*
D26*
X0079095Y0219433D03*
X0069095Y0219433D03*
X0059095Y0219433D03*
D27*
X0042595Y0047933D02*
X0042795Y0047533D01*
X0099795Y0104533D01*
X0099795Y0108733D01*
X0100095Y0109133D01*
X0095095Y0109133D02*
X0094995Y0108733D01*
X0094995Y0106933D01*
X0046395Y0058333D01*
X0042795Y0058333D01*
X0042595Y0057933D01*
X0042595Y0067933D02*
X0050595Y0067933D01*
X0089595Y0106933D01*
X0089595Y0108733D01*
X0090095Y0109133D01*
X0085095Y0109133D02*
X0084795Y0108733D01*
X0084795Y0106933D01*
X0055995Y0078133D01*
X0042795Y0078133D01*
X0042595Y0077933D01*
X0042595Y0087933D02*
X0042795Y0088333D01*
X0061395Y0088333D01*
X0079995Y0106933D01*
X0079995Y0108733D01*
X0080095Y0109133D01*
X0075095Y0109133D02*
X0074595Y0108733D01*
X0074595Y0103933D01*
X0067395Y0096733D01*
X0043995Y0096733D01*
X0042795Y0097933D01*
X0042595Y0097933D01*
X0042795Y0107533D02*
X0042595Y0107933D01*
X0042795Y0107533D02*
X0043995Y0107533D01*
X0053595Y0097933D01*
X0066795Y0097933D01*
X0069795Y0100933D01*
X0069795Y0108733D01*
X0070095Y0109133D01*
X0067395Y0104533D02*
X0067395Y0153133D01*
X0066795Y0153733D01*
X0063195Y0153733D01*
X0060195Y0150733D01*
X0060195Y0148933D01*
X0060095Y0148733D01*
X0064995Y0148333D02*
X0064995Y0146533D01*
X0058395Y0139933D01*
X0042595Y0139933D01*
X0042595Y0149933D02*
X0047595Y0154933D01*
X0067395Y0154933D01*
X0069795Y0152533D01*
X0069795Y0148933D01*
X0070095Y0148733D01*
X0074595Y0148933D02*
X0075095Y0148733D01*
X0074595Y0148933D02*
X0074595Y0151333D01*
X0066195Y0159733D01*
X0042795Y0159733D01*
X0042595Y0159933D01*
X0042595Y0169933D02*
X0060795Y0169933D01*
X0079995Y0150733D01*
X0079995Y0148933D01*
X0080095Y0148733D01*
X0084795Y0148933D02*
X0085095Y0148733D01*
X0084795Y0148933D02*
X0084795Y0150733D01*
X0055995Y0179533D01*
X0042795Y0179533D01*
X0042595Y0179933D01*
X0042795Y0189733D02*
X0042595Y0189933D01*
X0042795Y0189733D02*
X0051195Y0189733D01*
X0089595Y0151333D01*
X0089595Y0148933D01*
X0090095Y0148733D01*
X0094995Y0148933D02*
X0095095Y0148733D01*
X0094995Y0148933D02*
X0094995Y0150733D01*
X0045795Y0199933D01*
X0042595Y0199933D01*
X0042795Y0209533D02*
X0042595Y0209933D01*
X0042795Y0209533D02*
X0049995Y0209533D01*
X0082395Y0177133D01*
X0093795Y0177133D01*
X0095595Y0175333D01*
X0095595Y0171133D01*
X0099795Y0166933D01*
X0099795Y0148933D01*
X0100095Y0148733D01*
X0097395Y0144733D02*
X0098595Y0143533D01*
X0100395Y0143533D01*
X0100395Y0142333D01*
X0100395Y0143533D02*
X0101595Y0143533D01*
X0102795Y0144733D01*
X0102795Y0167533D01*
X0108195Y0172933D01*
X0108595Y0172933D01*
X0108195Y0172933D02*
X0100395Y0180733D01*
X0100095Y0180933D01*
X0100395Y0181333D01*
X0100395Y0194533D01*
X0100721Y0194602D01*
X0100395Y0195133D01*
X0100395Y0198733D01*
X0100327Y0198933D01*
X0099795Y0199333D01*
X0096195Y0202933D01*
X0091095Y0202933D01*
X0090795Y0196933D02*
X0082395Y0205333D01*
X0091995Y0214933D01*
X0105795Y0214933D01*
X0106995Y0213733D01*
X0106995Y0203533D01*
X0107020Y0203264D01*
X0107595Y0203533D01*
X0109995Y0203533D01*
X0110170Y0203264D01*
X0110595Y0202933D01*
X0110595Y0201133D01*
X0112395Y0199333D01*
X0116595Y0199333D01*
X0116863Y0198933D01*
X0117195Y0198733D01*
X0118395Y0197533D01*
X0118395Y0191533D01*
X0117195Y0190333D01*
X0117195Y0181333D01*
X0117095Y0180933D01*
X0113595Y0183733D02*
X0115995Y0186133D01*
X0115995Y0194533D01*
X0116469Y0194602D01*
X0113595Y0183733D02*
X0113595Y0175933D01*
X0116595Y0172933D01*
X0117095Y0172933D01*
X0108595Y0180933D02*
X0107595Y0181933D01*
X0107595Y0189733D01*
X0106395Y0189733D01*
X0107595Y0189733D02*
X0107595Y0194533D01*
X0107020Y0194602D01*
X0103871Y0194602D02*
X0103395Y0194533D01*
X0103395Y0189733D01*
X0102795Y0189133D01*
X0097995Y0186133D02*
X0096195Y0184333D01*
X0089595Y0184333D01*
X0088395Y0185533D01*
X0085995Y0184333D02*
X0085995Y0189733D01*
X0090795Y0194533D01*
X0091095Y0194933D01*
X0090795Y0195133D01*
X0090795Y0196933D01*
X0085995Y0184333D02*
X0088995Y0181333D01*
X0091395Y0181333D01*
X0091595Y0180933D01*
X0096195Y0184333D02*
X0096195Y0176533D01*
X0099795Y0172933D01*
X0100095Y0172933D01*
X0091995Y0172933D02*
X0091995Y0158533D01*
X0097395Y0153133D01*
X0097395Y0144733D01*
X0105195Y0148333D02*
X0105195Y0131533D01*
X0108795Y0127933D01*
X0108195Y0118333D02*
X0105195Y0115333D01*
X0105195Y0109333D01*
X0105095Y0109133D01*
X0109995Y0108733D02*
X0110095Y0109133D01*
X0109995Y0108733D02*
X0109995Y0099733D01*
X0114795Y0100933D02*
X0105195Y0091333D01*
X0106995Y0089533D01*
X0105195Y0091333D02*
X0101595Y0087733D01*
X0096795Y0087733D01*
X0093795Y0084733D01*
X0093249Y0084333D01*
X0093795Y0084133D01*
X0093795Y0079933D01*
X0099195Y0074533D01*
X0099542Y0074433D01*
X0099195Y0074533D02*
X0096195Y0071533D01*
X0096195Y0069133D01*
X0096795Y0068533D01*
X0096795Y0064933D01*
X0097127Y0064540D01*
X0097395Y0064333D01*
X0097395Y0060133D01*
X0099095Y0058733D01*
X0100995Y0056533D01*
X0102195Y0057733D01*
X0104595Y0057733D01*
X0105001Y0057749D01*
X0105195Y0057733D01*
X0105195Y0059533D01*
X0105001Y0059717D01*
X0105195Y0060133D01*
X0108795Y0063733D01*
X0112395Y0063733D01*
X0112795Y0064245D01*
X0117795Y0058333D02*
X0112995Y0053533D01*
X0112795Y0053221D01*
X0112395Y0052933D01*
X0103395Y0052933D01*
X0103032Y0052926D01*
X0102795Y0052333D01*
X0102795Y0046933D01*
X0096195Y0040333D01*
X0096195Y0035533D01*
X0096095Y0035028D01*
X0096095Y0046839D02*
X0096195Y0046933D01*
X0099195Y0049933D01*
X0099195Y0052333D01*
X0099095Y0052926D01*
X0100995Y0052933D02*
X0101064Y0052926D01*
X0100995Y0052933D02*
X0100995Y0056533D01*
X0099195Y0058333D01*
X0099095Y0058733D01*
X0098595Y0058933D01*
X0097395Y0060133D01*
X0093195Y0060133D01*
X0093190Y0059717D01*
X0093195Y0059533D01*
X0093195Y0057733D01*
X0093190Y0057749D01*
X0092595Y0057733D01*
X0089595Y0054733D01*
X0089595Y0053533D01*
X0087195Y0054133D02*
X0087195Y0057733D01*
X0087542Y0058133D01*
X0087795Y0058333D01*
X0087795Y0062533D01*
X0087195Y0065533D02*
X0087195Y0067433D01*
X0087195Y0065533D02*
X0081195Y0059533D01*
X0081195Y0058333D01*
X0080849Y0058133D01*
X0082995Y0053533D02*
X0081195Y0051733D01*
X0081195Y0048733D01*
X0080649Y0048633D01*
X0080595Y0048133D01*
X0080595Y0042133D01*
X0080052Y0041733D01*
X0076995Y0039133D02*
X0079395Y0036733D01*
X0079395Y0034333D01*
X0079749Y0034133D01*
X0076995Y0039133D02*
X0076995Y0063733D01*
X0080595Y0067333D01*
X0080795Y0067433D01*
X0083995Y0067433D02*
X0084195Y0067933D01*
X0084195Y0069733D01*
X0088395Y0073933D01*
X0092595Y0073933D01*
X0092849Y0074433D01*
X0093195Y0073933D01*
X0094995Y0072133D01*
X0094995Y0064933D01*
X0095158Y0064540D01*
X0099195Y0069733D02*
X0098595Y0070333D01*
X0099195Y0069733D02*
X0099195Y0064933D01*
X0099095Y0064540D01*
X0100995Y0064933D02*
X0101064Y0064540D01*
X0100995Y0064933D02*
X0100995Y0070333D01*
X0107595Y0076933D01*
X0107595Y0078133D01*
X0107995Y0078180D01*
X0108195Y0078133D01*
X0117195Y0078133D01*
X0117295Y0078180D01*
X0117195Y0071533D02*
X0117295Y0071487D01*
X0117795Y0070933D01*
X0117795Y0058333D01*
X0117195Y0071533D02*
X0108195Y0071533D01*
X0107995Y0071487D01*
X0107595Y0070933D01*
X0104595Y0067933D01*
X0103995Y0067933D01*
X0103395Y0068533D01*
X0104595Y0067933D02*
X0103395Y0066733D01*
X0103395Y0064933D01*
X0103032Y0064540D01*
X0107995Y0078180D02*
X0107595Y0078733D01*
X0102195Y0084133D01*
X0100395Y0084133D01*
X0099942Y0084333D01*
X0114795Y0100933D02*
X0114795Y0108733D01*
X0115095Y0109133D01*
X0110595Y0138133D02*
X0110595Y0148333D01*
X0110095Y0148733D01*
X0105195Y0148333D02*
X0105095Y0148733D01*
X0114795Y0148333D02*
X0114795Y0139933D01*
X0114795Y0148333D02*
X0115095Y0148733D01*
X0091995Y0172933D02*
X0091595Y0172933D01*
X0100721Y0203264D02*
X0100395Y0203533D01*
X0100395Y0206533D01*
X0095595Y0211333D01*
X0095095Y0211433D01*
X0103095Y0211433D02*
X0103395Y0211333D01*
X0103395Y0203533D01*
X0103871Y0203264D01*
X0082395Y0205333D02*
X0068595Y0219133D01*
X0069095Y0219433D01*
X0065095Y0148733D02*
X0064995Y0148333D01*
X0058395Y0117733D02*
X0042795Y0117733D01*
X0042595Y0117933D01*
X0058395Y0117733D02*
X0064995Y0111133D01*
X0064995Y0109333D01*
X0065095Y0109133D01*
X0067395Y0104533D02*
X0066795Y0103933D01*
X0065595Y0103933D01*
X0065595Y0100333D01*
X0065595Y0103933D02*
X0063195Y0103933D01*
X0060195Y0106933D01*
X0060195Y0108733D01*
X0060095Y0109133D01*
X0087195Y0054133D02*
X0084195Y0051133D01*
X0084195Y0044533D01*
X0086595Y0042133D01*
X0087138Y0041733D01*
X0087138Y0042938D01*
X0092636Y0048435D01*
X0092636Y0049770D01*
X0093218Y0050353D01*
X0096115Y0050353D01*
X0096642Y0050880D01*
X0096642Y0052442D01*
X0097127Y0052926D01*
X0095158Y0052926D02*
X0094995Y0052333D01*
X0091995Y0052333D01*
X0087795Y0048133D01*
X0087342Y0048633D01*
X0087138Y0041733D02*
X0086595Y0041533D01*
X0086595Y0034333D01*
X0086442Y0034133D01*
D28*
X0089595Y0053533D03*
X0087795Y0062533D03*
X0082995Y0053533D03*
X0098595Y0070333D03*
X0103395Y0068533D03*
X0106995Y0089533D03*
X0109995Y0099733D03*
X0108195Y0118333D03*
X0108795Y0127933D03*
X0110595Y0138133D03*
X0114795Y0139933D03*
X0100395Y0142333D03*
X0097995Y0186133D03*
X0102795Y0189133D03*
X0106395Y0189733D03*
X0088395Y0185533D03*
X0065595Y0100333D03*
M02*
